<svg width="53" height="53" viewBox="0 0 53 53" fill="none" xmlns="http://www.w3.org/2000/svg">
<g clip-path="url(#clip0_1_193)">
<path d="M41.9016 19.699H52.1463C52.6178 19.699 53 19.3171 53 18.8452V2.62992C53 2.15846 52.6178 1.7762 52.1463 1.7762H41.9016C41.4302 1.7762 41.0479 2.15846 41.0479 2.62992V3.10806L24.3149 0.182139C22.8755 -0.0675584 21.3944 0.0987674 20.0462 0.661941L2.49447 8.32336C0.691149 9.1108 -0.312643 11.0554 0.0892075 12.9817C0.491058 14.908 2.18892 16.2887 4.1569 16.2895H20.223C20.6073 16.7947 21.1017 17.2062 21.6682 17.4921C18.3309 19.2784 16.2399 22.7487 16.2207 26.5342C16.2187 29.0324 17.1357 31.4443 18.7973 33.3102L11.9521 34.8792V34.2227C11.9521 33.7512 11.5699 33.369 11.0984 33.369H0.853723C0.382258 33.369 0 33.7512 0 34.2227V50.4384C0 50.9099 0.382258 51.2922 0.853723 51.2922H11.0984C11.5699 51.2922 11.9521 50.9099 11.9521 50.4384V49.9603L28.6852 52.8858C30.1246 53.1372 31.6061 52.9708 32.9538 52.406L50.5064 44.745C52.3097 43.9571 53.3139 42.0125 52.9117 40.0862C52.5094 38.1595 50.8111 36.7793 48.8431 36.7789H32.7771C32.3877 36.2657 31.8854 35.8493 31.3085 35.5621C34.0672 34.0872 35.9985 31.4306 36.5513 28.3521C37.104 25.2732 36.217 22.1105 34.1439 19.7682L41.0479 18.1854V18.8419C41.0471 19.0691 41.1367 19.2871 41.2968 19.448C41.4569 19.6089 41.6745 19.699 41.9016 19.699ZM42.7554 3.48365H51.2926V17.9915H42.7554V3.48365ZM10.2447 49.5847H1.70745V35.0764H10.2447V49.5847ZM31.8616 38.6418C32.0701 39.3459 31.9679 40.1058 31.5819 40.7307C30.92 41.8145 29.5427 42.2176 28.4009 41.6611L22.4878 38.7585C22.0634 38.5509 21.5511 38.7264 21.3435 39.1508C21.1359 39.5751 21.3114 40.0875 21.7358 40.295L27.6489 43.198C29.5773 44.1481 31.9121 43.4702 33.0322 41.6357C33.6087 40.6936 33.7975 39.5647 33.5591 38.4863H48.8406C50.0016 38.4855 51.0033 39.2996 51.2401 40.4359C51.4768 41.5723 50.8837 42.7187 49.819 43.1818L32.2827 50.8353C31.2401 51.2721 30.0937 51.3997 28.9803 51.2034L11.9521 48.2262V36.6309L21.8262 34.3669C23.1118 34.0739 24.4583 34.2189 25.6517 34.7792L30.5223 37.0707C31.1722 37.3796 31.6595 37.9511 31.8616 38.6418ZM35.0027 26.5342C35.0172 30.1721 32.7112 33.4144 29.27 34.5941L26.38 33.2339C24.8409 32.5119 23.1043 32.3252 21.4465 32.7032L20.7549 32.8612C18.9532 31.2518 17.9249 28.9499 17.9282 26.5342C17.9449 22.8896 20.2618 19.6531 23.7062 18.4622L26.6217 19.834C27.6368 20.3101 28.7444 20.5569 29.8657 20.5564C30.4347 20.5564 31.0017 20.4923 31.5561 20.3651L32.1955 20.2192C33.9809 21.8333 35.001 24.1272 35.0027 26.5342ZM31.1738 18.701C29.8882 18.9949 28.5414 18.8494 27.3483 18.2887L22.4819 15.9973C21.8321 15.6888 21.3448 15.1173 21.1426 14.4266C20.9341 13.7221 21.0363 12.9621 21.4223 12.3377C22.0847 11.2539 23.4616 10.8512 24.6033 11.4068L30.5164 14.3094C30.9375 14.5053 31.4377 14.3286 31.6424 13.9117C31.847 13.4945 31.6807 12.9905 31.2685 12.7771L25.3558 9.87448C23.427 8.92738 21.0942 9.60436 19.972 11.4369C19.3951 12.3773 19.205 13.5045 19.441 14.5821H4.1569C2.99595 14.5829 1.99424 13.7688 1.75747 12.6324C1.52069 11.4961 2.11388 10.3493 3.17854 9.88657L20.7174 2.23266C21.7599 1.79621 22.9059 1.6674 24.0193 1.86166L41.0479 4.84177V16.4371L31.1738 18.701Z" fill="#21E4C1"/>
<path d="M26.4654 23.1193C27.3429 23.1193 28.1729 23.6316 28.1729 24.1693C28.1729 24.6408 28.5551 25.0231 29.0266 25.0231C29.4981 25.0231 29.8803 24.6408 29.8803 24.1693C29.7594 22.7904 28.6927 21.6824 27.3192 21.5098V21.4118C27.3192 20.9404 26.9369 20.5581 26.4654 20.5581C25.994 20.5581 25.6117 20.9404 25.6117 21.4118V21.5227C24.279 21.7612 23.2852 22.8842 23.2102 24.236C23.2102 26.0006 24.8109 26.7118 26.0973 27.2837C27.2929 27.8131 28.0124 28.1816 28.0124 28.8323C28.0124 29.4367 27.3037 29.9491 26.4654 29.9491C25.5879 29.9491 24.758 29.4367 24.758 28.899C24.758 28.4275 24.3757 28.0453 23.9043 28.0453C23.4328 28.0453 23.0505 28.4275 23.0505 28.899C23.1714 30.278 24.2382 31.3856 25.6117 31.5581V31.6565C25.6117 32.128 25.994 32.5102 26.4654 32.5102C26.9369 32.5102 27.3192 32.128 27.3192 31.6565V31.5456C28.6514 31.3068 29.6452 30.1838 29.7198 28.8323C29.7198 27.0248 28.0978 26.3028 26.7914 25.7238C25.6263 25.2048 24.9176 24.8463 24.9176 24.236C24.9176 23.6253 25.6271 23.1193 26.4654 23.1193Z" fill="#21E4C1"/>
</g>
<defs>
<clipPath id="clip0_1_193">
<rect width="53" height="53" fill="white"/>
</clipPath>
</defs>
</svg>
