<svg width="53" height="53" viewBox="0 0 53 53" fill="none" xmlns="http://www.w3.org/2000/svg">
<path d="M52.3781 24.1839L44.4951 16.8639V4.87184H35.4143V8.43242L26.3335 0L0.289853 24.1839C-0.0770106 24.5254 -0.0988044 25.1002 0.242633 25.468C0.583162 25.8348 1.15798 25.8557 1.52666 25.5152L4.54057 22.7165V53H19.0698H33.5991H48.1283V22.7156L51.1422 25.5143C51.3166 25.6768 51.5391 25.7567 51.7606 25.7567C52.0049 25.7567 52.2474 25.6596 52.4254 25.4671C52.7668 25.1002 52.745 24.5254 52.3781 24.1839ZM37.2305 6.688H42.679V15.1776L37.2305 10.1187V6.688ZM20.8851 51.1838V32.057C20.8851 31.5875 21.2665 31.2061 21.7359 31.2061H30.9311C31.4006 31.2061 31.782 31.5875 31.782 32.057V51.1838H20.8851ZM46.3113 51.1838H33.5982V32.057C33.5982 30.5859 32.4022 29.39 30.9311 29.39H21.7359C20.2649 29.39 19.0689 30.5859 19.0689 32.057V51.1838H6.35582V21.0293L26.3335 2.47815L39.3009 14.5193L44.4951 19.3421L46.3113 21.0284V51.1838Z" fill="#21E4C1"/>
</svg>
