<svg width="112" height="112" viewBox="0 0 112 112" fill="none" xmlns="http://www.w3.org/2000/svg">
<rect x="0.5" y="0.5" width="111" height="111" rx="55.5" fill="#EDFAF9"/>
<g clip-path="url(#clip0_1_135)">
<g clip-path="url(#clip1_1_135)">
<path d="M68.2008 33.1121C67.7759 31.0295 65.9309 29.4569 63.7241 29.4569C63.2188 29.4569 62.8103 29.8654 62.8103 30.3707C62.8103 30.876 63.2188 31.2845 63.7241 31.2845C65.2355 31.2845 66.4655 32.5145 66.4655 34.0259C66.4655 35.5373 65.2355 36.7673 63.7241 36.7673C63.2188 36.7673 62.8103 37.1757 62.8103 37.681C62.8103 38.1864 63.2188 38.5948 63.7241 38.5948C65.93 38.5948 67.7759 37.0222 68.2008 34.9397H80.1724V43.1638H30.8276V34.9397H43.6207H46.3621C46.8674 34.9397 47.2759 34.5312 47.2759 34.0259C47.2759 33.5205 46.8674 33.1121 46.3621 33.1121H44.7026C45.0809 32.0503 46.0861 31.2845 47.2759 31.2845C48.7873 31.2845 50.0172 32.5145 50.0172 34.0259C50.0172 35.5373 48.7873 36.7673 47.2759 36.7673C46.7705 36.7673 46.3621 37.1757 46.3621 37.681C46.3621 38.1864 46.7705 38.5948 47.2759 38.5948C49.7952 38.5948 51.8448 36.5452 51.8448 34.0259C51.8448 31.5065 49.7952 29.4569 47.2759 29.4569C45.07 29.4569 43.2241 31.0295 42.7992 33.1121H29V44.9914V81.5431H82V44.9914V33.1121H68.2008ZM80.1724 79.7155H30.8276V44.9914H80.1724V79.7155Z" fill="#21E4C1"/>
<path d="M52.7586 31.2845C54.27 31.2845 55.5 32.5145 55.5 34.0259C55.5 35.5373 54.27 36.7673 52.7586 36.7673C52.2533 36.7673 51.8448 37.1757 51.8448 37.681C51.8448 38.1864 52.2533 38.5948 52.7586 38.5948C55.2779 38.5948 57.3276 36.5452 57.3276 34.0259C57.3276 31.5065 55.2779 29.4569 52.7586 29.4569C52.2533 29.4569 51.8448 29.8654 51.8448 30.3707C51.8448 30.876 52.2533 31.2845 52.7586 31.2845Z" fill="#21E4C1"/>
<path d="M58.2414 31.2845C59.7528 31.2845 60.9828 32.5145 60.9828 34.0259C60.9828 35.5373 59.7528 36.7673 58.2414 36.7673C57.7361 36.7673 57.3276 37.1757 57.3276 37.681C57.3276 38.1864 57.7361 38.5948 58.2414 38.5948C60.7607 38.5948 62.8103 36.5452 62.8103 34.0259C62.8103 31.5065 60.7607 29.4569 58.2414 29.4569C57.7361 29.4569 57.3276 29.8654 57.3276 30.3707C57.3276 30.876 57.7361 31.2845 58.2414 31.2845Z" fill="#21E4C1"/>
<path d="M49.1034 52.3017C49.6081 52.3017 50.0172 51.8926 50.0172 51.3879C50.0172 50.8832 49.6081 50.4741 49.1034 50.4741C48.5988 50.4741 48.1897 50.8832 48.1897 51.3879C48.1897 51.8926 48.5988 52.3017 49.1034 52.3017Z" fill="#21E4C1"/>
<path d="M55.5 52.3017C56.0047 52.3017 56.4138 51.8926 56.4138 51.3879C56.4138 50.8832 56.0047 50.4741 55.5 50.4741C54.9953 50.4741 54.5862 50.8832 54.5862 51.3879C54.5862 51.8926 54.9953 52.3017 55.5 52.3017Z" fill="#21E4C1"/>
<path d="M61.8966 52.3017C62.4012 52.3017 62.8103 51.8926 62.8103 51.3879C62.8103 50.8832 62.4012 50.4741 61.8966 50.4741C61.3919 50.4741 60.9828 50.8832 60.9828 51.3879C60.9828 51.8926 61.3919 52.3017 61.8966 52.3017Z" fill="#21E4C1"/>
<path d="M68.2931 52.3017C68.7978 52.3017 69.2069 51.8926 69.2069 51.3879C69.2069 50.8832 68.7978 50.4741 68.2931 50.4741C67.7884 50.4741 67.3793 50.8832 67.3793 51.3879C67.3793 51.8926 67.7884 52.3017 68.2931 52.3017Z" fill="#21E4C1"/>
<path d="M74.6897 52.3017C75.1943 52.3017 75.6034 51.8926 75.6034 51.3879C75.6034 50.8832 75.1943 50.4741 74.6897 50.4741C74.185 50.4741 73.7759 50.8832 73.7759 51.3879C73.7759 51.8926 74.185 52.3017 74.6897 52.3017Z" fill="#21E4C1"/>
<path d="M36.3103 59.6121C36.815 59.6121 37.2241 59.203 37.2241 58.6983C37.2241 58.1936 36.815 57.7845 36.3103 57.7845C35.8057 57.7845 35.3966 58.1936 35.3966 58.6983C35.3966 59.203 35.8057 59.6121 36.3103 59.6121Z" fill="#21E4C1"/>
<path d="M42.7069 59.6121C43.2116 59.6121 43.6207 59.203 43.6207 58.6983C43.6207 58.1936 43.2116 57.7845 42.7069 57.7845C42.2022 57.7845 41.7931 58.1936 41.7931 58.6983C41.7931 59.203 42.2022 59.6121 42.7069 59.6121Z" fill="#21E4C1"/>
<path d="M49.1034 59.6121C49.6081 59.6121 50.0172 59.203 50.0172 58.6983C50.0172 58.1936 49.6081 57.7845 49.1034 57.7845C48.5988 57.7845 48.1897 58.1936 48.1897 58.6983C48.1897 59.203 48.5988 59.6121 49.1034 59.6121Z" fill="#21E4C1"/>
<path d="M55.5 59.6121C56.0047 59.6121 56.4138 59.203 56.4138 58.6983C56.4138 58.1936 56.0047 57.7845 55.5 57.7845C54.9953 57.7845 54.5862 58.1936 54.5862 58.6983C54.5862 59.203 54.9953 59.6121 55.5 59.6121Z" fill="#21E4C1"/>
<path d="M61.8966 59.6121C62.4012 59.6121 62.8103 59.203 62.8103 58.6983C62.8103 58.1936 62.4012 57.7845 61.8966 57.7845C61.3919 57.7845 60.9828 58.1936 60.9828 58.6983C60.9828 59.203 61.3919 59.6121 61.8966 59.6121Z" fill="#21E4C1"/>
<path d="M68.2931 59.6121C68.7978 59.6121 69.2069 59.203 69.2069 58.6983C69.2069 58.1936 68.7978 57.7845 68.2931 57.7845C67.7884 57.7845 67.3793 58.1936 67.3793 58.6983C67.3793 59.203 67.7884 59.6121 68.2931 59.6121Z" fill="#21E4C1"/>
<path d="M74.6897 59.6121C75.1943 59.6121 75.6034 59.203 75.6034 58.6983C75.6034 58.1936 75.1943 57.7845 74.6897 57.7845C74.185 57.7845 73.7759 58.1936 73.7759 58.6983C73.7759 59.203 74.185 59.6121 74.6897 59.6121Z" fill="#21E4C1"/>
<path d="M36.3103 66.0086C36.815 66.0086 37.2241 65.5995 37.2241 65.0948C37.2241 64.5901 36.815 64.181 36.3103 64.181C35.8057 64.181 35.3966 64.5901 35.3966 65.0948C35.3966 65.5995 35.8057 66.0086 36.3103 66.0086Z" fill="#21E4C1"/>
<path d="M42.7069 66.0086C43.2116 66.0086 43.6207 65.5995 43.6207 65.0948C43.6207 64.5901 43.2116 64.181 42.7069 64.181C42.2022 64.181 41.7931 64.5901 41.7931 65.0948C41.7931 65.5995 42.2022 66.0086 42.7069 66.0086Z" fill="#21E4C1"/>
<path d="M49.1034 66.0086C49.6081 66.0086 50.0172 65.5995 50.0172 65.0948C50.0172 64.5901 49.6081 64.181 49.1034 64.181C48.5988 64.181 48.1897 64.5901 48.1897 65.0948C48.1897 65.5995 48.5988 66.0086 49.1034 66.0086Z" fill="#21E4C1"/>
<path d="M55.5 66.0086C56.0047 66.0086 56.4138 65.5995 56.4138 65.0948C56.4138 64.5901 56.0047 64.181 55.5 64.181C54.9953 64.181 54.5862 64.5901 54.5862 65.0948C54.5862 65.5995 54.9953 66.0086 55.5 66.0086Z" fill="#21E4C1"/>
<path d="M61.8966 66.0086C62.4012 66.0086 62.8103 65.5995 62.8103 65.0948C62.8103 64.5901 62.4012 64.181 61.8966 64.181C61.3919 64.181 60.9828 64.5901 60.9828 65.0948C60.9828 65.5995 61.3919 66.0086 61.8966 66.0086Z" fill="#21E4C1"/>
<path d="M68.2931 66.0086C68.7978 66.0086 69.2069 65.5995 69.2069 65.0948C69.2069 64.5901 68.7978 64.181 68.2931 64.181C67.7884 64.181 67.3793 64.5901 67.3793 65.0948C67.3793 65.5995 67.7884 66.0086 68.2931 66.0086Z" fill="#21E4C1"/>
<path d="M74.6897 66.0086C75.1943 66.0086 75.6034 65.5995 75.6034 65.0948C75.6034 64.5901 75.1943 64.181 74.6897 64.181C74.185 64.181 73.7759 64.5901 73.7759 65.0948C73.7759 65.5995 74.185 66.0086 74.6897 66.0086Z" fill="#21E4C1"/>
<path d="M36.3103 73.319C36.815 73.319 37.2241 72.9099 37.2241 72.4052C37.2241 71.9005 36.815 71.4914 36.3103 71.4914C35.8057 71.4914 35.3966 71.9005 35.3966 72.4052C35.3966 72.9099 35.8057 73.319 36.3103 73.319Z" fill="#21E4C1"/>
<path d="M42.7069 73.319C43.2116 73.319 43.6207 72.9099 43.6207 72.4052C43.6207 71.9005 43.2116 71.4914 42.7069 71.4914C42.2022 71.4914 41.7931 71.9005 41.7931 72.4052C41.7931 72.9099 42.2022 73.319 42.7069 73.319Z" fill="#21E4C1"/>
<path d="M49.1034 73.319C49.6081 73.319 50.0172 72.9099 50.0172 72.4052C50.0172 71.9005 49.6081 71.4914 49.1034 71.4914C48.5988 71.4914 48.1897 71.9005 48.1897 72.4052C48.1897 72.9099 48.5988 73.319 49.1034 73.319Z" fill="#21E4C1"/>
<path d="M55.5 73.319C56.0047 73.319 56.4138 72.9099 56.4138 72.4052C56.4138 71.9005 56.0047 71.4914 55.5 71.4914C54.9953 71.4914 54.5862 71.9005 54.5862 72.4052C54.5862 72.9099 54.9953 73.319 55.5 73.319Z" fill="#21E4C1"/>
<path d="M61.8966 73.319C62.4012 73.319 62.8103 72.9099 62.8103 72.4052C62.8103 71.9005 62.4012 71.4914 61.8966 71.4914C61.3919 71.4914 60.9828 71.9005 60.9828 72.4052C60.9828 72.9099 61.3919 73.319 61.8966 73.319Z" fill="#21E4C1"/>
</g>
</g>
<rect x="0.5" y="0.5" width="111" height="111" rx="55.5" stroke="#DFF2F2"/>
<defs>
<clipPath id="clip0_1_135">
<rect width="53" height="53" fill="white" transform="translate(29 29)"/>
</clipPath>
<clipPath id="clip1_1_135">
<rect width="53" height="53" fill="white" transform="translate(29 29)"/>
</clipPath>
</defs>
</svg>
