<svg width="53" height="44" viewBox="0 0 53 44" fill="none" xmlns="http://www.w3.org/2000/svg">
<path d="M28.258 30.0239H42.3869C42.9167 30.0239 43.2699 29.6707 43.2699 29.1408V21.1933C43.2699 20.6635 42.9167 20.3103 42.3869 20.3103H28.258C27.7282 20.3103 27.375 20.6635 27.375 21.1933V29.1408C27.3749 29.6706 27.7282 30.0239 28.258 30.0239ZM29.141 22.0763H41.5039V28.2577H29.141V22.0763Z" fill="#21E4C1"/>
<path d="M4.41525 18.5441H11.4797C12.0096 18.5441 12.3628 18.1909 12.3628 17.6611C12.3628 17.1313 12.0096 16.7781 11.4797 16.7781H4.41525C3.88542 16.7781 3.53223 17.1313 3.53223 17.6611C3.53223 18.1909 3.88542 18.5441 4.41525 18.5441Z" fill="#21E4C1"/>
<path d="M15.0119 18.5441H22.0764C22.6063 18.5441 22.9594 18.1909 22.9594 17.6611C22.9594 17.1313 22.6063 16.7781 22.0764 16.7781H15.0119C14.4821 16.7781 14.1289 17.1313 14.1289 17.6611C14.1289 18.1909 14.4821 18.5441 15.0119 18.5441Z" fill="#21E4C1"/>
<path d="M4.41525 22.0763H15.895C16.4248 22.0763 16.778 21.7232 16.778 21.1933C16.778 20.6635 16.4248 20.3103 15.895 20.3103H4.41525C3.88542 20.3103 3.53223 20.6635 3.53223 21.1933C3.53223 21.7232 3.88542 22.0763 4.41525 22.0763Z" fill="#21E4C1"/>
<path d="M22.0766 20.3103H19.4275C18.8976 20.3103 18.5444 20.6635 18.5444 21.1933C18.5444 21.7232 18.8976 22.0763 19.4275 22.0763H22.0766C22.6065 22.0763 22.9597 21.7232 22.9597 21.1933C22.9597 20.6635 22.6065 20.3103 22.0766 20.3103Z" fill="#21E4C1"/>
<path d="M52.1887 9.36037C51.5706 8.56562 50.7758 8.12406 49.8044 8.03579L47.6851 7.77894V5.29824V3.5322C47.6851 1.5895 46.0956 5.05261e-09 44.1529 5.05261e-09H3.5322C1.5895 -0.000103478 0 1.5894 0 3.5322V5.29834V12.3628V31.7901C0 33.3851 1.07178 34.7412 2.53048 35.1758C2.48598 36.9622 3.83757 38.513 5.65164 38.6779L46.4489 43.2698C46.5372 43.2698 46.7138 43.2698 46.8021 43.2698C48.5682 43.2698 50.1577 41.9452 50.3343 40.2674L52.9834 11.9213C53.0717 11.0381 52.8068 10.0668 52.1887 9.36037ZM1.76615 6.18137H45.9191V8.47735V11.4797H1.76615V6.18137ZM3.5322 1.76605H44.1528C45.1242 1.76605 45.9189 2.5608 45.9189 3.5322V4.41522H1.76615V3.5322C1.76615 2.5608 2.5609 1.76605 3.5322 1.76605ZM1.76615 31.79V13.2458H45.9191V31.79C45.9191 32.7614 45.1243 33.5561 44.1529 33.5561H3.62057H3.5323C2.5609 33.5561 1.76615 32.7614 1.76615 31.79ZM51.2173 11.568L48.5681 39.9141C48.4799 40.8855 47.5967 41.5919 46.6254 41.5036L5.91645 36.9118C5.03343 36.8235 4.41522 36.117 4.32695 35.3223H44.1528C46.0955 35.3223 47.685 33.7328 47.685 31.7901V12.3627V9.44865L49.7161 9.62529C50.1576 9.62529 50.5991 9.89021 50.864 10.2434C51.129 10.5966 51.3057 11.1264 51.2173 11.568Z" fill="#21E4C1"/>
</svg>
