<svg width="880" height="39" viewBox="0 0 880 39" fill="none" xmlns="http://www.w3.org/2000/svg">
<g clip-path="url(#clip0_2_459)">
<g clip-path="url(#clip1_2_459)">
<path fill-rule="evenodd" clip-rule="evenodd" d="M111.007 24.2851H109.447C109.308 24.2851 109.256 24.1563 109.193 24.0307L107.353 20.9362H107.071C106.737 20.9362 105.706 20.8999 105.411 20.8862V24.0307C105.411 24.17 105.308 24.2858 105.169 24.2858H103.889C103.822 24.285 103.758 24.2578 103.71 24.2101C103.663 24.1623 103.636 24.0979 103.636 24.0307V15.668C103.636 15.4121 103.788 15.322 104.045 15.2872C104.709 15.1842 106.137 15.1206 107.071 15.1206C109.037 15.1206 110.853 15.8232 110.853 18.0053V18.1196C110.853 19.4696 110.177 20.2101 109.129 20.6159L111.133 24.0307C111.16 24.0685 111.16 24.1049 111.16 24.1336C111.16 24.2192 111.108 24.2851 111.007 24.2851ZM109.091 18.0046C109.091 17.0475 108.348 16.6394 107.07 16.6394C106.802 16.6394 105.64 16.6652 105.412 16.6902V19.4552C105.615 19.4689 106.85 19.4939 107.07 19.4939C108.385 19.4939 109.091 19.2425 109.091 18.1196V18.0046ZM114.566 21.7721C114.566 22.8419 114.606 22.87 115.572 22.87H118.805C118.946 22.87 119.061 22.9835 119.061 23.1244V23.9398C119.061 24.1192 118.996 24.1828 118.806 24.2078C118.397 24.2722 117.564 24.3865 116.045 24.3865C113.925 24.3865 112.802 24.4001 112.802 21.7721V17.7358C112.802 15.107 113.925 15.1214 116.045 15.1214C117.565 15.1214 118.397 15.2372 118.806 15.2993C118.995 15.3228 119.061 15.3886 119.061 15.5688V16.3835C119.061 16.4514 119.034 16.5165 118.986 16.5648C118.938 16.613 118.873 16.6404 118.806 16.6409H115.572C114.606 16.6409 114.565 16.6682 114.565 17.7358V18.904H118.653C118.72 18.9046 118.785 18.9317 118.832 18.9794C118.88 19.0272 118.907 19.0917 118.908 19.1592V20.0806C118.908 20.1483 118.881 20.213 118.833 20.2609C118.785 20.3087 118.72 20.3356 118.653 20.3358H114.566V21.7713V21.7721ZM124.795 24.3865C122.74 24.3865 120.971 23.4931 120.971 20.7749V15.4643C120.971 15.3212 121.088 15.2221 121.227 15.2221H122.489C122.631 15.2221 122.745 15.3212 122.745 15.4643V20.7734C122.745 22.2287 123.419 22.9192 124.795 22.9192C126.176 22.9192 126.848 22.2287 126.848 20.7734V15.4643C126.848 15.3212 126.963 15.2221 127.102 15.2221H128.367C128.508 15.2221 128.624 15.3212 128.624 15.4643V20.7734C128.624 23.4916 126.853 24.385 124.795 24.385V24.3865ZM137.022 16.7008H134.473V24.0299C134.472 24.0978 134.445 24.1627 134.397 24.2105C134.349 24.2584 134.284 24.2854 134.216 24.2858H132.952C132.884 24.2854 132.82 24.2584 132.772 24.2107C132.724 24.163 132.697 24.0983 132.696 24.0307V16.7008H130.146C130.008 16.7008 129.893 16.6122 129.893 16.4729V15.4643C129.893 15.3212 130.008 15.2221 130.146 15.2221H137.022C137.159 15.2221 137.274 15.3212 137.274 15.4643V16.4713C137.274 16.6114 137.16 16.7 137.022 16.7V16.7008ZM154.365 24.2858H152.805C152.666 24.2858 152.616 24.1571 152.551 24.0307L150.712 20.9362H150.427C150.097 20.9362 149.063 20.8999 148.767 20.8862V24.0307C148.767 24.17 148.667 24.2858 148.526 24.2858H147.251C147.184 24.2854 147.119 24.2584 147.071 24.2107C147.023 24.163 146.996 24.0983 146.996 24.0307V15.668C146.996 15.4121 147.147 15.322 147.403 15.2872C148.066 15.1842 149.497 15.1206 150.428 15.1206C152.395 15.1206 154.21 15.8232 154.21 18.0053V18.1196C154.21 19.4696 153.533 20.2101 152.486 20.6159L154.494 24.0307C154.519 24.0685 154.519 24.1049 154.519 24.1336C154.519 24.2192 154.467 24.2851 154.366 24.2851L154.365 24.2858ZM152.449 18.0046C152.449 17.0475 151.705 16.6394 150.427 16.6394C150.16 16.6394 148.997 16.6652 148.767 16.6902V19.4552C148.974 19.4689 150.213 19.4939 150.427 19.4939C151.744 19.4939 152.45 19.2425 152.45 18.1196V18.0046H152.449ZM159.239 24.3941C158.11 24.3941 156.966 24.1987 156.352 24.0572C156.226 24.0322 156.11 23.9436 156.11 23.8035V22.8843C156.11 22.7443 156.226 22.6405 156.352 22.6405H156.378C156.889 22.7049 158.085 22.87 159.265 22.87C160.401 22.87 160.749 22.4649 160.749 21.7244C160.749 20.7681 158.462 20.2389 157.346 19.7801C156.236 19.3205 155.841 18.4399 155.841 17.5495C155.841 16.145 156.972 15.1236 159.348 15.1236C160.565 15.1236 161.679 15.3546 162.113 15.459C162.242 15.4848 162.343 15.5749 162.343 15.7006V16.6447C162.343 16.7719 162.255 16.8757 162.125 16.8757H162.101C161.258 16.7984 160.383 16.644 159.273 16.644C158.327 16.644 157.618 16.9741 157.618 17.5495C157.618 17.969 158.099 18.3551 158.667 18.5785C159.232 18.8033 159.977 19.0933 160.824 19.4333C161.902 19.8679 162.599 20.5009 162.599 21.7244C162.599 23.0131 161.795 24.3933 159.239 24.3933V24.3941ZM140.354 21.7713C140.354 22.8412 140.392 22.8692 141.361 22.8692H144.595C144.732 22.8692 144.849 22.9828 144.849 23.1236V23.939C144.849 24.1185 144.784 24.1821 144.595 24.2071C144.184 24.2714 143.354 24.3858 141.834 24.3858C139.711 24.3858 138.589 24.3994 138.589 21.7713V17.7358C138.589 15.107 139.711 15.1214 141.834 15.1214C143.354 15.1214 144.184 15.2372 144.595 15.2993C144.784 15.3228 144.849 15.3886 144.849 15.5688V16.3835C144.849 16.5228 144.732 16.6409 144.595 16.6409H141.361C140.392 16.6409 140.354 16.6682 140.354 17.7358V18.904H144.439C144.582 18.904 144.694 19.0214 144.694 19.1592V20.0806C144.694 20.1141 144.688 20.1474 144.675 20.1784C144.662 20.2094 144.643 20.2375 144.62 20.2612C144.596 20.285 144.568 20.3038 144.537 20.3166C144.506 20.3294 144.473 20.3359 144.439 20.3358H140.354V21.7713Z" fill="#9C9C9C"/>
<path fill-rule="evenodd" clip-rule="evenodd" d="M84.005 12.9658C83.7795 13.2032 83.469 13.3415 83.1417 13.3503C82.8144 13.3591 82.4969 13.2377 82.259 13.0127C82.1406 12.9019 82.0453 12.7687 81.9786 12.6208C81.912 12.4729 81.8753 12.3133 81.8707 12.1511C81.8661 11.989 81.8937 11.8275 81.9519 11.6761C82.0101 11.5247 82.0978 11.3863 82.2098 11.269C82.3206 11.1504 82.4537 11.0549 82.6015 10.9879C82.7493 10.921 82.9089 10.8839 83.0711 10.8788C83.2333 10.8738 83.3948 10.9008 83.5465 10.9584C83.6982 11.016 83.8371 11.103 83.955 11.2145C84.4517 11.6839 84.4744 12.4623 84.005 12.9665V12.9658ZM71.6855 10.1568C71.5668 10.0473 71.4098 9.98884 71.2484 9.99394C71.0869 9.99904 70.934 10.0673 70.8224 10.184C70.7122 10.3015 70.6529 10.4577 70.6575 10.6187C70.662 10.7797 70.73 10.9323 70.8466 11.0434C70.9042 11.1011 70.9729 11.1466 71.0484 11.1773C71.124 11.2081 71.2049 11.2233 71.2865 11.2222C71.368 11.2211 71.4485 11.2037 71.5232 11.171C71.5979 11.1382 71.6653 11.0909 71.7214 11.0316C71.7775 10.9724 71.8211 10.9026 71.8497 10.8262C71.8783 10.7498 71.8914 10.6685 71.888 10.587C71.8847 10.5055 71.865 10.4255 71.8303 10.3518C71.7955 10.278 71.7462 10.2119 71.6855 10.1575V10.1568ZM74.7739 8.9847C74.6284 8.84785 74.4345 8.7744 74.2349 8.78051C74.0352 8.78661 73.8462 8.87178 73.7093 9.01726C73.5725 9.16274 73.499 9.35663 73.5052 9.55627C73.5113 9.75592 73.5964 9.94495 73.7419 10.0818C73.8875 10.2187 74.0815 10.2921 74.2812 10.2859C74.4809 10.2797 74.67 10.1945 74.8068 10.0489C74.9437 9.90328 75.0171 9.7093 75.0109 9.50959C75.0047 9.30987 74.9195 9.1208 74.7739 8.98395V8.9847ZM78.0864 8.74318C77.9016 8.57021 77.6559 8.47729 77.4029 8.48467C77.1499 8.49204 76.9101 8.59911 76.7356 8.78255C76.6498 8.87411 76.5829 8.98169 76.5386 9.09913C76.4944 9.21658 76.4737 9.34158 76.4778 9.46701C76.4819 9.59245 76.5106 9.71585 76.5624 9.83017C76.6142 9.94449 76.688 10.0475 76.7796 10.1333C76.8706 10.2203 76.978 10.2884 77.0955 10.3337C77.213 10.379 77.3383 10.4006 77.4642 10.3973C77.5901 10.3939 77.7141 10.3656 77.829 10.3141C77.9439 10.2626 78.0475 10.1888 78.1338 10.097C78.22 10.0053 78.2873 9.89734 78.3316 9.77947C78.3759 9.66159 78.3965 9.5361 78.3921 9.41024C78.3877 9.28437 78.3584 9.16063 78.3059 9.04614C78.2535 8.93165 78.1789 8.82868 78.0864 8.74318ZM81.2217 9.54423C81.1192 9.44699 80.9986 9.37097 80.8666 9.32052C80.7346 9.27008 80.594 9.24621 80.4528 9.25029C80.3116 9.25437 80.1726 9.28632 80.0437 9.3443C79.9149 9.40228 79.7988 9.48515 79.7021 9.58815C79.6053 9.69081 79.5297 9.81153 79.4796 9.94342C79.4294 10.0753 79.4058 10.2158 79.4099 10.3568C79.4141 10.4978 79.4459 10.6367 79.5037 10.7654C79.5616 10.8941 79.6441 11.0102 79.7468 11.107C79.8495 11.2038 79.9702 11.2794 80.1021 11.3295C80.234 11.3797 80.3744 11.4033 80.5155 11.3992C80.6565 11.3951 80.7953 11.3632 80.9241 11.3054C81.0528 11.2476 81.1688 11.165 81.2656 11.0623C81.4608 10.855 81.5658 10.5788 81.5576 10.2942C81.5493 10.0096 81.4285 9.73989 81.2217 9.54423ZM69.0673 12.2147C68.9793 12.1322 68.8622 12.0878 68.7416 12.0914C68.621 12.0949 68.5067 12.1461 68.4237 12.2336C68.3825 12.2766 68.3502 12.3274 68.3288 12.383C68.3073 12.4386 68.2971 12.4979 68.2987 12.5575C68.3003 12.6171 68.3137 12.6758 68.3382 12.7301C68.3626 12.7845 68.3976 12.8334 68.4411 12.8741C68.5297 12.9499 68.644 12.9888 68.7604 12.9828C68.8768 12.9768 68.9864 12.9263 69.0667 12.8419C69.147 12.7574 69.1919 12.6453 69.192 12.5288C69.1921 12.4122 69.1475 12.3001 69.0673 12.2154V12.2147ZM84.8855 23.4151C84.8262 23.4725 84.7792 23.5414 84.7473 23.6176C84.7154 23.6938 84.6992 23.7756 84.6999 23.8582C84.7005 23.9408 84.718 24.0224 84.7511 24.098C84.7842 24.1737 84.8323 24.2418 84.8925 24.2984C84.9527 24.3549 85.0237 24.3986 85.1013 24.4268C85.1789 24.4551 85.2615 24.4673 85.3439 24.4627C85.4264 24.4582 85.507 24.4369 85.581 24.4002C85.655 24.3636 85.7208 24.3123 85.7744 24.2495C85.8851 24.1317 85.9445 23.9749 85.9397 23.8133C85.9349 23.6518 85.8662 23.4988 85.7487 23.3878C85.6303 23.2776 85.4732 23.2187 85.3115 23.2238C85.1498 23.2289 84.9967 23.2976 84.8855 23.4151ZM85.6669 20.2707C85.5653 20.3791 85.498 20.5153 85.4737 20.6619C85.4494 20.8085 85.4691 20.9591 85.5303 21.0945C85.5915 21.23 85.6915 21.3442 85.8176 21.4229C85.9438 21.5015 86.0904 21.541 86.239 21.5363C86.3875 21.5317 86.5314 21.4831 86.6523 21.3967C86.7733 21.3104 86.8659 21.1901 86.9186 21.0511C86.9712 20.912 86.9814 20.7605 86.948 20.6157C86.9146 20.4709 86.8389 20.3392 86.7307 20.2374C86.5849 20.1013 86.3912 20.0284 86.1919 20.0346C85.9926 20.0409 85.8039 20.1257 85.6669 20.2707ZM85.4261 16.9574C85.3372 17.0483 85.2673 17.1559 85.2205 17.2741C85.1737 17.3923 85.151 17.5187 85.1536 17.6458C85.1563 17.7729 85.1843 17.8982 85.236 18.0143C85.2876 18.1305 85.362 18.2351 85.4546 18.3222C85.5473 18.4092 85.6563 18.4769 85.7755 18.5213C85.8946 18.5657 86.0214 18.5858 86.1484 18.5805C86.2754 18.5753 86.4001 18.5447 86.5152 18.4907C86.6303 18.4366 86.7334 18.3602 86.8185 18.2658C86.9047 18.1747 86.972 18.0674 87.0166 17.9502C87.0611 17.833 87.0821 17.7082 87.0782 17.5829C87.0744 17.4575 87.0457 17.3342 86.994 17.22C86.9423 17.1058 86.8685 17.0029 86.7769 16.9173C86.5922 16.744 86.3464 16.651 86.0932 16.6585C85.8401 16.6661 85.6002 16.7735 85.4261 16.9574ZM84.2692 13.8887C84.1725 13.9915 84.0969 14.1123 84.0469 14.2442C83.9968 14.3762 83.9732 14.5167 83.9775 14.6578C83.9817 14.7989 84.0137 14.9377 84.0717 15.0664C84.1296 15.1951 84.2123 15.3112 84.315 15.4079C84.4178 15.5047 84.5386 15.5802 84.6706 15.6303C84.8025 15.6803 84.943 15.7039 85.0841 15.6997C85.2252 15.6954 85.364 15.6634 85.4927 15.6055C85.6215 15.5476 85.7375 15.4649 85.8342 15.3621C86.0157 15.1524 86.1091 14.8807 86.0949 14.6037C86.0807 14.3267 85.9601 14.0659 85.7581 13.8758C85.5562 13.6857 85.2886 13.581 85.0113 13.5836C84.734 13.5861 84.4684 13.6957 84.27 13.8895L84.2692 13.8887ZM83.2062 26.1431C83.1654 26.1865 83.1336 26.2376 83.1125 26.2933C83.0915 26.3491 83.0816 26.4084 83.0835 26.468C83.0854 26.5275 83.099 26.5861 83.1236 26.6404C83.1482 26.6947 83.1832 26.7436 83.2266 26.7844C83.4106 26.954 83.6961 26.9487 83.8664 26.7624C83.9078 26.7197 83.9402 26.6691 83.9617 26.6137C83.9833 26.5582 83.9935 26.4991 83.9919 26.4396C83.9903 26.3802 83.9768 26.3216 83.9523 26.2675C83.9277 26.2133 83.8926 26.1646 83.849 26.1241C83.8057 26.0829 83.7547 26.0506 83.6988 26.0291C83.643 26.0077 83.5834 25.9976 83.5236 25.9993C83.4639 26.0011 83.405 26.0147 83.3505 26.0394C83.296 26.0641 83.247 26.0993 83.2062 26.1431ZM70.0849 27.7308C70.1963 27.6127 70.2833 27.4739 70.341 27.3222C70.3987 27.1705 70.4259 27.0089 70.4212 26.8467C70.4164 26.6844 70.3798 26.5247 70.3133 26.3767C70.2469 26.2286 70.1519 26.0951 70.0338 25.9837C69.9157 25.8723 69.7769 25.7853 69.6252 25.7276C69.4735 25.6699 69.3119 25.6427 69.1497 25.6474C68.9874 25.6522 68.8277 25.6888 68.6796 25.7553C68.5316 25.8218 68.3981 25.9167 68.2867 26.0348C68.0618 26.2733 67.9408 26.5913 67.9504 26.9189C67.96 27.2466 68.0993 27.557 68.3378 27.7819C68.5763 28.0068 68.8943 28.1278 69.2219 28.1182C69.5496 28.1086 69.86 27.9693 70.0849 27.7308ZM67.4084 15.5832C67.4633 15.5249 67.5062 15.4563 67.5345 15.3815C67.5629 15.3066 67.5763 15.2268 67.5739 15.1468C67.5714 15.0667 67.5533 14.988 67.5204 14.9149C67.4875 14.8419 67.4406 14.7761 67.3823 14.7212C67.324 14.6663 67.2554 14.6235 67.1805 14.5951C67.1057 14.5667 67.0259 14.5533 66.9459 14.5557C66.8658 14.5582 66.787 14.5763 66.714 14.6092C66.641 14.6421 66.5752 14.689 66.5203 14.7473C66.465 14.8053 66.4218 14.8736 66.3931 14.9484C66.3645 15.0233 66.3511 15.103 66.3536 15.1831C66.3562 15.2631 66.3746 15.3419 66.4079 15.4148C66.4412 15.4876 66.4887 15.5531 66.5475 15.6074C66.6652 15.7177 66.8217 15.777 66.983 15.7725C67.1442 15.7679 67.2971 15.6999 67.4084 15.5832ZM66.624 18.7299C66.6917 18.6579 66.7445 18.5733 66.7795 18.4809C66.8144 18.3885 66.8308 18.2901 66.8278 18.1914C66.8247 18.0926 66.8022 17.9954 66.7616 17.9054C66.721 17.8153 66.6631 17.7341 66.5911 17.6665C66.5191 17.5988 66.4345 17.546 66.3421 17.511C66.2497 17.4761 66.1513 17.4597 66.0525 17.4627C65.9538 17.4658 65.8566 17.4882 65.7666 17.5289C65.6765 17.5695 65.5953 17.6274 65.5277 17.6994C65.4601 17.771 65.4072 17.8553 65.3722 17.9473C65.3372 18.0394 65.3207 18.1374 65.3235 18.2359C65.3264 18.3343 65.3487 18.4312 65.389 18.521C65.4294 18.6109 65.487 18.6919 65.5587 18.7594C65.7043 18.8959 65.8979 18.9693 66.0974 18.9638C66.2969 18.9583 66.4862 18.8742 66.624 18.7299ZM66.8655 22.0409C66.9519 21.9494 67.0193 21.8418 67.064 21.7242C67.1087 21.6066 67.1298 21.4814 67.1261 21.3557C67.1224 21.2299 67.0939 21.1062 67.0423 20.9915C66.9907 20.8767 66.917 20.7733 66.8254 20.6871C66.6877 20.5573 66.5146 20.4713 66.328 20.4399C66.1414 20.4085 65.9496 20.4331 65.777 20.5106C65.6044 20.5881 65.4586 20.7151 65.3582 20.8754C65.2577 21.0358 65.207 21.2223 65.2125 21.4115C65.218 21.6006 65.2794 21.7839 65.3891 21.9381C65.4987 22.0924 65.6516 22.2106 65.8284 22.278C66.0053 22.3454 66.1981 22.3588 66.3826 22.3166C66.567 22.2744 66.7348 22.1784 66.8648 22.0409H66.8655ZM68.0202 25.1111C68.2155 24.9041 68.3205 24.6279 68.3122 24.3434C68.3039 24.059 68.1829 23.7894 67.9759 23.5942C67.7689 23.3989 67.4927 23.2938 67.2082 23.3021C66.9238 23.3104 66.6542 23.4314 66.4589 23.6384C66.3617 23.7408 66.2856 23.8613 66.2351 23.993C66.1845 24.1248 66.1604 24.2653 66.1642 24.4063C66.168 24.5474 66.1996 24.6864 66.2572 24.8153C66.3148 24.9441 66.3972 25.0603 66.4998 25.1573C66.7083 25.3512 66.9849 25.4551 67.2695 25.4464C67.5541 25.4378 67.8238 25.3173 68.0202 25.1111ZM80.6077 28.8408C80.7267 28.9421 80.8801 28.9939 81.0362 28.9854C81.1923 28.9768 81.3391 28.9086 81.4464 28.7949C81.5536 28.6811 81.613 28.5305 81.6124 28.3742C81.6117 28.2179 81.551 28.0678 81.4428 27.9549C81.3846 27.9001 81.3162 27.8572 81.2415 27.8288C81.1668 27.8004 81.0872 27.787 81.0073 27.7894C80.9274 27.7917 80.8487 27.8098 80.7758 27.8426C80.7029 27.8753 80.6371 27.9221 80.5823 27.9803C80.5275 28.0385 80.4846 28.1068 80.4562 28.1816C80.4278 28.2563 80.4144 28.3359 80.4168 28.4158C80.4191 28.4957 80.4372 28.5743 80.47 28.6473C80.5027 28.7202 80.5495 28.7859 80.6077 28.8408ZM77.5178 30.0121C77.6634 30.1481 77.857 30.221 78.0562 30.2147C78.2554 30.2085 78.444 30.1237 78.5808 29.9788C78.6488 29.9074 78.702 29.8233 78.7373 29.7313C78.7726 29.6392 78.7894 29.5411 78.7866 29.4426C78.7839 29.3441 78.7617 29.2471 78.7213 29.1572C78.6809 29.0673 78.6231 28.9862 78.5513 28.9188C78.4053 28.7821 78.2112 28.7088 78.0113 28.7147C77.8114 28.7207 77.622 28.8055 77.4845 28.9506C77.3487 29.096 77.276 29.2893 77.2823 29.4882C77.2885 29.6871 77.3732 29.8754 77.5178 30.0121ZM74.2022 30.2521C74.2933 30.3385 74.4005 30.4061 74.5177 30.4511C74.6349 30.496 74.7598 30.5174 74.8853 30.5139C75.0108 30.5105 75.1344 30.4823 75.2489 30.431C75.3635 30.3797 75.4668 30.3063 75.553 30.215C75.9164 29.8311 75.9013 29.2254 75.5151 28.8658C75.3301 28.692 75.0838 28.5985 74.8301 28.6056C74.5763 28.6126 74.3357 28.7198 74.1606 28.9036C73.9873 29.088 73.8944 29.3336 73.9022 29.5865C73.91 29.8394 74.0179 30.0788 74.2022 30.2521ZM71.0745 29.4548C71.2292 29.6004 71.4236 29.6969 71.6332 29.7319C71.8427 29.767 72.0579 29.7391 72.2516 29.6518C72.4453 29.5644 72.6087 29.4216 72.7212 29.2414C72.8336 29.0611 72.8901 28.8516 72.8834 28.6392C72.8767 28.4269 72.8072 28.2213 72.6836 28.0485C72.5601 27.8757 72.388 27.7434 72.1892 27.6685C71.9904 27.5935 71.7739 27.5792 71.5669 27.6273C71.36 27.6755 71.172 27.784 71.0268 27.939C70.9301 28.0415 70.8546 28.1621 70.8046 28.2939C70.7547 28.4256 70.7312 28.566 70.7357 28.7068C70.7401 28.8477 70.7723 28.9863 70.8305 29.1146C70.8886 29.243 70.9715 29.3586 71.0745 29.4548ZM79.216 12.4774C79.1801 12.5981 79.1208 12.7106 79.0413 12.8084C78.9619 12.9061 78.8639 12.9873 78.7531 13.0471C78.6422 13.107 78.5207 13.1444 78.3954 13.1572C78.2701 13.17 78.1434 13.1579 78.0228 13.1217C77.9012 13.087 77.7878 13.0284 77.6891 12.9494C77.5904 12.8705 77.5084 12.7726 77.4478 12.6617C77.3872 12.5507 77.3493 12.4288 77.3362 12.3031C77.3231 12.1774 77.3352 12.0503 77.3716 11.9292C77.4053 11.8055 77.4634 11.6897 77.5424 11.5887C77.6215 11.4877 77.72 11.4035 77.832 11.3411C77.9441 11.2787 78.0675 11.2394 78.1949 11.2253C78.3224 11.2113 78.4514 11.2229 78.5744 11.2594C78.6973 11.296 78.8117 11.3567 78.9109 11.4381C79.01 11.5195 79.0918 11.6199 79.1516 11.7333C79.2114 11.8468 79.2479 11.9711 79.259 12.0989C79.27 12.2266 79.2554 12.3553 79.216 12.4774ZM69.9903 14.7458C69.869 14.7121 69.7394 14.7271 69.629 14.7876C69.5187 14.8482 69.4364 14.9495 69.3997 15.0699C69.3255 15.3197 69.4716 15.5847 69.7237 15.6559C69.7835 15.6734 69.8461 15.679 69.9081 15.6724C69.97 15.6657 70.03 15.647 70.0847 15.6171C70.1393 15.5873 70.1876 15.5469 70.2266 15.4984C70.2657 15.45 70.2949 15.3942 70.3124 15.3345C70.33 15.2747 70.3356 15.2121 70.3289 15.1502C70.3223 15.0882 70.3035 15.0282 70.2736 14.9736C70.2438 14.9189 70.2035 14.8707 70.155 14.8316C70.1065 14.7925 70.0508 14.7634 69.991 14.7458H69.9903ZM71.6598 12.912C71.5859 12.8904 71.5086 12.8836 71.4321 12.892C71.3557 12.9003 71.2816 12.9236 71.2142 12.9606C71.1467 12.9976 71.0872 13.0475 71.0391 13.1075C70.991 13.1675 70.9552 13.2364 70.9337 13.3103C70.912 13.3842 70.9051 13.4617 70.9133 13.5383C70.9216 13.6148 70.9449 13.6891 70.9818 13.7567C71.0188 13.8243 71.0687 13.8839 71.1287 13.9322C71.1887 13.9806 71.2576 14.0166 71.3315 14.0383C71.4055 14.0599 71.4829 14.0668 71.5595 14.0586C71.6361 14.0503 71.7103 14.027 71.7779 13.9901C71.8455 13.9531 71.9052 13.9032 71.9535 13.8432C72.0018 13.7832 72.0379 13.7143 72.0595 13.6404C72.1025 13.4908 72.0846 13.3303 72.0097 13.1938C71.9348 13.0574 71.809 12.9561 71.6598 12.912ZM73.7987 11.6196C73.6091 11.5644 73.4055 11.5863 73.232 11.6805C73.0585 11.7746 72.9291 11.9334 72.8719 12.1223C72.8446 12.2163 72.836 12.3147 72.8467 12.412C72.8574 12.5093 72.8871 12.6035 72.9342 12.6893C72.9813 12.775 73.0449 12.8507 73.1212 12.9119C73.1976 12.9731 73.2853 13.0187 73.3792 13.046C73.4729 13.074 73.5713 13.0832 73.6685 13.073C73.7658 13.0629 73.8601 13.0336 73.946 12.9869C74.0319 12.9402 74.1078 12.8769 74.1691 12.8008C74.2305 12.7247 74.2763 12.6371 74.3037 12.5433C74.3572 12.3538 74.3343 12.151 74.2398 11.9783C74.1454 11.8056 73.987 11.6768 73.7987 11.6196ZM76.167 11.0896C76.0614 11.0582 75.9506 11.0481 75.841 11.0597C75.7315 11.0713 75.6252 11.1044 75.5285 11.1572C75.4318 11.2099 75.3464 11.2813 75.2773 11.3671C75.2083 11.453 75.1568 11.5516 75.126 11.6574C74.9935 12.1019 75.2471 12.5637 75.6923 12.697C75.9051 12.7587 76.1337 12.734 76.3285 12.6283C76.5232 12.5225 76.6684 12.3443 76.7326 12.1321C76.7643 12.0266 76.7748 11.9157 76.7635 11.8061C76.7522 11.6964 76.7194 11.5901 76.6668 11.4932C76.6142 11.3963 76.543 11.3107 76.4572 11.2414C76.3715 11.1722 76.2728 11.1206 76.167 11.0896ZM68.9363 17.0165C68.8466 16.9904 68.7501 17.0008 68.668 17.0455C68.5859 17.0901 68.5248 17.1654 68.4979 17.255C68.471 17.3455 68.481 17.4431 68.5257 17.5263C68.5703 17.6096 68.6461 17.6718 68.7364 17.6994C68.8264 17.724 68.9224 17.7122 69.0038 17.6667C69.0852 17.6212 69.1454 17.5456 69.1716 17.4561C69.1978 17.3666 69.1878 17.2704 69.1438 17.1882C69.0998 17.106 69.0253 17.0443 68.9363 17.0165ZM83.3069 19.1509C83.2312 19.4 83.375 19.6665 83.6287 19.7392C83.6884 19.7568 83.7511 19.7625 83.813 19.756C83.875 19.7494 83.9351 19.7307 83.9898 19.7009C84.0445 19.6711 84.0929 19.6309 84.132 19.5824C84.1712 19.534 84.2005 19.4783 84.2181 19.4185C84.2358 19.3588 84.2415 19.2961 84.2349 19.2341C84.2283 19.1722 84.2096 19.1121 84.1799 19.0574C84.1501 19.0027 84.1098 18.9543 84.0614 18.9151C84.0129 18.876 83.9572 18.8467 83.8975 18.8291C83.7765 18.7938 83.6465 18.8079 83.5358 18.8682C83.4252 18.9285 83.3429 19.0301 83.3069 19.1509ZM82.758 16.7772C82.7355 16.8514 82.728 16.9293 82.736 17.0064C82.744 17.0834 82.7672 17.1582 82.8043 17.2262C82.8415 17.2942 82.8918 17.3541 82.9523 17.4025C83.0129 17.4508 83.0824 17.4867 83.157 17.5079C83.2309 17.5298 83.3083 17.5368 83.3849 17.5286C83.4615 17.5204 83.5358 17.4971 83.6033 17.4601C83.6709 17.4231 83.7305 17.3731 83.7786 17.3129C83.8268 17.2527 83.8625 17.1836 83.8838 17.1096C83.9056 17.0359 83.9127 16.9587 83.9045 16.8823C83.8963 16.8059 83.8731 16.7319 83.8363 16.6644C83.7994 16.597 83.7496 16.5376 83.6896 16.4895C83.6297 16.4414 83.5609 16.4057 83.4871 16.3843C83.4134 16.3621 83.336 16.3548 83.2594 16.3626C83.1829 16.3704 83.1086 16.3933 83.0409 16.4299C82.9731 16.4664 82.9133 16.516 82.8647 16.5757C82.8162 16.6355 82.7799 16.7042 82.758 16.778V16.7772ZM81.464 14.6421C81.436 14.7359 81.4269 14.8344 81.437 14.9318C81.4472 15.0292 81.4765 15.1237 81.5233 15.2097C81.5701 15.2957 81.6334 15.3717 81.7097 15.4332C81.7859 15.4947 81.8735 15.5405 81.9675 15.5681C82.1573 15.6234 82.3612 15.6013 82.5347 15.5065C82.7081 15.4116 82.8369 15.2519 82.8927 15.0623C82.9208 14.9687 82.93 14.8705 82.9198 14.7734C82.9095 14.6762 82.88 14.5821 82.833 14.4965C82.786 14.4109 82.7224 14.3355 82.646 14.2747C82.5695 14.2139 82.4817 14.1689 82.3877 14.1424C82.199 14.0872 81.9961 14.1088 81.8231 14.2023C81.6502 14.2959 81.5211 14.4539 81.464 14.6421ZM79.6438 12.9839C79.613 13.0895 79.6033 13.2002 79.6152 13.3095C79.6272 13.4189 79.6605 13.5248 79.7134 13.6213C79.7662 13.7177 79.8376 13.8028 79.9234 13.8717C80.0091 13.9406 80.1076 13.9919 80.2132 14.0227C80.3188 14.0536 80.4294 14.0633 80.5388 14.0513C80.6481 14.0394 80.7541 14.0061 80.8505 13.9532C80.947 13.9003 81.0321 13.829 81.101 13.7432C81.1699 13.6574 81.2212 13.559 81.252 13.4534C81.2836 13.3481 81.294 13.2376 81.2826 13.1282C81.2713 13.0189 81.2384 12.9129 81.1859 12.8163C81.1334 12.7198 81.0623 12.6345 80.9767 12.5656C80.8911 12.4966 80.7927 12.4453 80.6872 12.4146C80.4733 12.3525 80.2436 12.3776 80.0482 12.4842C79.8527 12.5909 79.7074 12.7705 79.6438 12.9839ZM83.1146 21.5457C83.0886 21.6357 83.0989 21.7322 83.1434 21.8146C83.1878 21.897 83.2629 21.9587 83.3523 21.9864C83.3971 21.9999 83.4441 22.0044 83.4907 21.9995C83.5372 21.9946 83.5823 21.9805 83.6233 21.9581C83.6644 21.9356 83.7005 21.9051 83.7296 21.8685C83.7587 21.8319 83.7803 21.7899 83.793 21.7448C83.8064 21.7002 83.8109 21.6533 83.8062 21.6069C83.8014 21.5606 83.7875 21.5156 83.7652 21.4746C83.743 21.4336 83.7129 21.3975 83.6765 21.3682C83.6402 21.339 83.5985 21.3172 83.5537 21.3042C83.4634 21.279 83.3668 21.2903 83.2847 21.3356C83.2025 21.3809 83.1415 21.4566 83.1146 21.5465V21.5457ZM74.923 27.0751C74.9593 26.9536 74.9711 26.8262 74.9578 26.7001C74.9446 26.574 74.9065 26.4518 74.8459 26.3405C74.7852 26.2291 74.7031 26.1309 74.6044 26.0514C74.5056 25.9719 74.3921 25.9128 74.2704 25.8773C74.149 25.8418 74.0219 25.8306 73.8962 25.8442C73.7705 25.8579 73.6487 25.8961 73.5378 25.9569C73.4269 26.0176 73.329 26.0995 73.2498 26.1981C73.1705 26.2966 73.1115 26.4098 73.076 26.5311C73.0405 26.6525 73.0293 26.7796 73.0429 26.9053C73.0565 27.031 73.0948 27.1528 73.1555 27.2637C73.2162 27.3746 73.2982 27.4725 73.3967 27.5517C73.4953 27.631 73.6084 27.69 73.7298 27.7255C73.9744 27.796 74.2369 27.7672 74.4603 27.6453C74.6837 27.5234 74.85 27.3182 74.923 27.0744V27.0751ZM68.9855 19.8482C69.021 19.7277 69.0073 19.5981 68.9475 19.4877C68.8876 19.3773 68.7864 19.2951 68.666 19.2591C68.5447 19.2247 68.4146 19.2393 68.3039 19.2998C68.1932 19.3602 68.1106 19.4617 68.0739 19.5824C67.9982 19.8323 68.1459 20.0935 68.3972 20.1685C68.6471 20.2442 68.9106 20.1018 68.9855 19.8482ZM69.5367 22.2211C69.5587 22.1476 69.5659 22.0705 69.5579 21.9942C69.5498 21.918 69.5267 21.844 69.4899 21.7768C69.453 21.7095 69.4032 21.6502 69.3433 21.6024C69.2833 21.5545 69.2145 21.519 69.1407 21.498C69.0672 21.4749 68.9897 21.4667 68.913 21.4741C68.8362 21.4815 68.7617 21.5042 68.6939 21.5409C68.6261 21.5776 68.5664 21.6276 68.5183 21.6879C68.4702 21.7481 68.4347 21.8175 68.4139 21.8917C68.39 21.9661 68.3812 22.0445 68.388 22.1224C68.3949 22.2002 68.4173 22.2759 68.4539 22.3449C68.4904 22.4139 68.5405 22.475 68.601 22.5244C68.6615 22.5738 68.7313 22.6106 68.8063 22.6325C68.8813 22.6545 68.9599 22.6613 69.0375 22.6524C69.1152 22.6435 69.1902 22.6192 69.2583 22.5809C69.3264 22.5425 69.3861 22.4909 69.4339 22.4291C69.4817 22.3673 69.5167 22.2966 69.5367 22.2211ZM70.8314 24.3585C70.8862 24.1679 70.8634 23.9635 70.7681 23.7896C70.6728 23.6158 70.5127 23.4866 70.3226 23.4302C70.2287 23.4029 70.1303 23.3943 70.033 23.405C69.9357 23.4157 69.8415 23.4454 69.7557 23.4925C69.6699 23.5396 69.5943 23.6032 69.533 23.6795C69.4718 23.7559 69.4263 23.8435 69.3989 23.9375C69.3708 24.0313 69.3615 24.1297 69.3717 24.227C69.3818 24.3244 69.4112 24.4188 69.4581 24.5047C69.505 24.5906 69.5685 24.6664 69.6449 24.7276C69.7213 24.7888 69.8091 24.8342 69.9032 24.8612C70.093 24.9176 70.2973 24.8964 70.4714 24.8021C70.6455 24.7078 70.775 24.5482 70.8314 24.3585ZM72.6509 26.0189C72.7132 25.8053 72.6881 25.5758 72.5812 25.3807C72.4743 25.1856 72.2943 25.041 72.0807 24.9786C71.9752 24.9475 71.8645 24.9375 71.7551 24.9494C71.6457 24.9612 71.5398 24.9946 71.4433 25.0476C71.3469 25.1006 71.2619 25.1722 71.1933 25.2582C71.1247 25.3442 71.0737 25.4429 71.0434 25.5487C71.0123 25.654 71.0022 25.7644 71.0139 25.8736C71.0255 25.9828 71.0587 26.0886 71.1114 26.185C71.1641 26.2813 71.2353 26.3663 71.321 26.4349C71.4067 26.5036 71.5051 26.5547 71.6105 26.5853C71.8236 26.6467 72.0523 26.6217 72.247 26.5157C72.4417 26.4097 72.5868 26.2312 72.6509 26.0189ZM82.2999 24.2517C82.4212 24.2875 82.5517 24.2738 82.6629 24.2137C82.7741 24.1535 82.857 24.0518 82.8935 23.9307C82.9282 23.8095 82.9139 23.6796 82.8537 23.5689C82.7935 23.4581 82.6922 23.3754 82.5717 23.3386C82.4505 23.3038 82.3205 23.3183 82.2099 23.3788C82.0994 23.4394 82.0171 23.5411 81.9811 23.6619C81.9454 23.7825 81.9588 23.9123 82.0185 24.023C82.0783 24.1337 82.1795 24.2162 82.2999 24.2525V24.2517ZM80.6342 26.0878C80.7834 26.1319 80.944 26.1149 81.0806 26.0406C81.2173 25.9662 81.3189 25.8406 81.3629 25.6914C81.407 25.5422 81.39 25.3816 81.3157 25.245C81.2413 25.1083 81.1158 25.0068 80.9666 24.9627C80.8167 24.9193 80.6557 24.9367 80.5186 25.0111C80.3814 25.0855 80.279 25.2109 80.2336 25.3602C80.1918 25.5098 80.2103 25.6698 80.2852 25.8059C80.3601 25.9419 80.4854 26.0432 80.6342 26.0878ZM78.496 27.3825C78.5898 27.4102 78.6882 27.4192 78.7854 27.4088C78.8827 27.3985 78.977 27.3691 79.0629 27.3224C79.1488 27.2756 79.2247 27.2124 79.2862 27.1363C79.3476 27.0603 79.3935 26.9728 79.4212 26.879C79.4489 26.7852 79.4579 26.6869 79.4475 26.5896C79.4372 26.4923 79.4079 26.398 79.3611 26.3121C79.3144 26.2262 79.2511 26.1503 79.1751 26.0889C79.099 26.0274 79.0115 25.9815 78.9177 25.9538C78.8223 25.9203 78.7211 25.9066 78.6202 25.9134C78.5194 25.9203 78.4209 25.9476 78.3309 25.9936C78.2409 26.0397 78.1612 26.1036 78.0967 26.1814C78.0322 26.2593 77.9841 26.3494 77.9555 26.4464C77.9269 26.5433 77.9183 26.6451 77.9302 26.7455C77.9421 26.8459 77.9744 26.9428 78.0249 27.0304C78.0755 27.118 78.1433 27.1943 78.2243 27.2549C78.3053 27.3154 78.3977 27.3588 78.496 27.3825ZM76.1284 27.9095C76.2337 27.9414 76.3442 27.9521 76.4536 27.9409C76.563 27.9298 76.6691 27.897 76.7657 27.8445C76.8623 27.7921 76.9476 27.7209 77.0165 27.6352C77.0854 27.5496 77.1367 27.4511 77.1672 27.3454C77.2297 27.1323 77.2049 26.903 77.0983 26.7081C76.9918 26.5133 76.8121 26.3687 76.599 26.3062C76.3858 26.2438 76.1566 26.2686 75.9617 26.3751C75.7668 26.4817 75.6223 26.6613 75.5598 26.8745C75.4984 27.0871 75.5238 27.3154 75.6303 27.5094C75.7369 27.7034 75.916 27.8473 76.1284 27.9095ZM74.1674 14.2605C74.261 14.4347 74.2819 14.6389 74.2256 14.8285C74.1693 15.0182 74.0404 15.1778 73.8668 15.2728C73.6913 15.3663 73.4859 15.3865 73.2955 15.3291C73.1051 15.2716 72.9452 15.1411 72.8507 14.9661C72.7597 14.7917 72.7411 14.5883 72.7991 14.4002C72.8571 14.2122 72.9869 14.0546 73.1604 13.9616C73.3339 13.8687 73.537 13.848 73.7257 13.9039C73.9144 13.9599 74.0734 14.088 74.1682 14.2605H74.1674ZM70.471 20.1056C70.369 20.1622 70.2933 20.2567 70.2605 20.3686C70.2276 20.4806 70.2401 20.601 70.2954 20.7038C70.3226 20.7549 70.3598 20.8 70.4048 20.8365C70.4497 20.873 70.5015 20.9001 70.5571 20.9163C70.6128 20.9324 70.671 20.9373 70.7285 20.9306C70.786 20.9238 70.8416 20.9057 70.892 20.8771C70.9434 20.8506 70.9889 20.814 71.0258 20.7695C71.0628 20.725 71.0904 20.6736 71.1071 20.6182C71.1237 20.5628 71.1291 20.5047 71.1229 20.4472C71.1166 20.3897 71.0989 20.334 71.0707 20.2835C71.0138 20.1814 70.9192 20.1057 70.807 20.0726C70.6949 20.0394 70.5743 20.0516 70.471 20.1064V20.1056ZM70.3968 18.3097C70.2786 18.3745 70.1906 18.4834 70.1522 18.6127C70.1138 18.742 70.128 18.8813 70.1917 19.0002C70.2563 19.1203 70.366 19.2098 70.4966 19.2491C70.6272 19.2885 70.768 19.2744 70.8882 19.2099C71.0073 19.1443 71.0959 19.0345 71.1348 18.9042C71.1738 18.7739 71.16 18.6336 71.0964 18.5133C71.064 18.4539 71.0201 18.4015 70.9674 18.3591C70.9146 18.3167 70.854 18.2851 70.789 18.2662C70.724 18.2472 70.6559 18.2413 70.5886 18.2488C70.5213 18.2563 70.4561 18.277 70.3968 18.3097ZM70.864 16.5811C70.7276 16.6549 70.6258 16.7796 70.5807 16.928C70.5356 17.0764 70.5509 17.2366 70.6232 17.3738C70.698 17.5099 70.8233 17.6111 70.9721 17.6554C71.1209 17.6998 71.2812 17.6838 71.4182 17.6108C71.4864 17.5746 71.5467 17.5252 71.5957 17.4656C71.6447 17.4059 71.6814 17.3372 71.7037 17.2633C71.726 17.1894 71.7334 17.1118 71.7256 17.035C71.7179 16.9582 71.6949 16.8837 71.6582 16.8158C71.5834 16.6799 71.4579 16.5789 71.309 16.535C71.1602 16.491 71 16.5076 70.8632 16.5811H70.864ZM71.8165 15.0842C71.7394 15.1249 71.6712 15.1804 71.6158 15.2477C71.5604 15.315 71.519 15.3926 71.494 15.4761C71.469 15.5595 71.4608 15.6472 71.47 15.7338C71.4793 15.8204 71.5057 15.9044 71.5477 15.9807C71.7211 16.2987 72.1156 16.4191 72.4351 16.2465C72.512 16.2062 72.5801 16.1512 72.6355 16.0844C72.6909 16.0176 72.7325 15.9405 72.7579 15.8575C72.7833 15.7745 72.7919 15.6873 72.7833 15.601C72.7746 15.5146 72.7489 15.4309 72.7076 15.3545C72.667 15.2782 72.6117 15.2106 72.5449 15.1556C72.478 15.1006 72.401 15.0594 72.3182 15.0343C72.2354 15.0092 72.1485 15.0007 72.0624 15.0093C71.9763 15.0178 71.8927 15.0433 71.8165 15.0842ZM71.0866 21.8084C71.0439 21.8314 71.0062 21.8625 70.9756 21.9001C70.945 21.9377 70.9221 21.9809 70.9084 22.0274C70.8946 22.0738 70.8901 22.1226 70.8952 22.1708C70.9003 22.2189 70.915 22.2656 70.9382 22.3081C71.0351 22.4846 71.2547 22.5504 71.4379 22.4573C71.5227 22.4096 71.5855 22.3306 71.6128 22.2372C71.6401 22.1438 71.6298 22.0435 71.584 21.9576C71.5374 21.8723 71.4591 21.8088 71.366 21.7809C71.2728 21.753 71.1725 21.7629 71.0866 21.8084ZM79.5916 15.6892C79.6485 15.7917 79.7433 15.8678 79.8556 15.9013C79.968 15.9349 80.089 15.9231 80.1928 15.8686C80.2949 15.8118 80.3706 15.7171 80.4038 15.605C80.4369 15.4929 80.4247 15.3722 80.3699 15.269C80.3425 15.2182 80.3053 15.1733 80.2605 15.1369C80.2156 15.1005 80.1641 15.0733 80.1087 15.0568C80.0534 15.0404 79.9953 15.035 79.9379 15.041C79.8805 15.047 79.8248 15.0643 79.7741 15.0918C79.7228 15.119 79.6773 15.156 79.6404 15.2007C79.6034 15.2455 79.5757 15.2971 79.5587 15.3526C79.5417 15.4081 79.5359 15.4664 79.5416 15.5242C79.5472 15.5819 79.5642 15.638 79.5916 15.6892ZM78.0977 14.7382C78.2325 14.9881 78.549 15.0789 78.7913 14.9427C78.8511 14.9114 78.904 14.8685 78.9471 14.8165C78.9901 14.7646 79.0223 14.7045 79.0418 14.6399C79.0614 14.5754 79.0678 14.5075 79.0608 14.4404C79.0538 14.3733 79.0335 14.3083 79.001 14.2491C78.9364 14.13 78.8274 14.0412 78.6977 14.002C78.568 13.9627 78.4281 13.9761 78.3082 14.0394C78.1883 14.1048 78.099 14.2148 78.0596 14.3456C78.0202 14.4764 78.0339 14.6175 78.0977 14.7382ZM76.3699 14.2771C76.5214 14.5595 76.8765 14.6663 77.1596 14.5111C77.2278 14.4751 77.2881 14.426 77.3372 14.3666C77.3862 14.3073 77.4231 14.2388 77.4456 14.1651C77.4681 14.0914 77.4759 14.014 77.4684 13.9374C77.4609 13.8607 77.4383 13.7863 77.4019 13.7184C77.3658 13.6501 77.3163 13.5898 77.2565 13.541C77.1967 13.4922 77.1278 13.4558 77.0537 13.434C76.9796 13.4122 76.9019 13.4054 76.8252 13.4141C76.7485 13.4227 76.6743 13.4466 76.6069 13.4844C76.5392 13.5208 76.4793 13.5702 76.4307 13.6297C76.3821 13.6893 76.3458 13.7579 76.3237 13.8315C76.3017 13.9052 76.2945 13.9825 76.3024 14.0589C76.3103 14.1354 76.3333 14.2096 76.3699 14.2771ZM74.5679 14.3475C74.6508 14.5022 74.7917 14.6178 74.9596 14.6687C75.1275 14.7197 75.3088 14.7019 75.4636 14.6194C75.54 14.578 75.6075 14.522 75.6622 14.4546C75.7169 14.3871 75.7578 14.3096 75.7826 14.2263C75.8073 14.1431 75.8154 14.0558 75.8064 13.9694C75.7974 13.883 75.7715 13.7993 75.7302 13.7229C75.6888 13.6465 75.6328 13.5791 75.5654 13.5244C75.4979 13.4696 75.4204 13.4287 75.3371 13.404C75.2539 13.3792 75.1666 13.3711 75.0802 13.3801C74.9938 13.3891 74.9101 13.415 74.8337 13.4564C74.6806 13.5397 74.5668 13.6802 74.5172 13.8472C74.4675 14.0143 74.486 14.1942 74.5687 14.3475H74.5679ZM80.7137 17.0339C80.8083 17.2118 81.0317 17.2769 81.2058 17.1808C81.2486 17.1589 81.2864 17.1286 81.3172 17.0918C81.3479 17.0549 81.3708 17.0122 81.3846 16.9662C81.3984 16.9202 81.4028 16.8719 81.3974 16.8242C81.3921 16.7765 81.3771 16.7304 81.3535 16.6886C81.3079 16.6023 81.23 16.5374 81.1369 16.5081C81.0438 16.4788 80.9429 16.4873 80.856 16.5319C80.7723 16.5812 80.7108 16.6609 80.6843 16.7544C80.6578 16.8479 80.6683 16.948 80.7137 17.0339ZM79.4439 24.0246C79.3976 23.9374 79.3344 23.8604 79.258 23.7979C79.1816 23.7353 79.0935 23.6886 78.999 23.6603C78.9044 23.6321 78.8051 23.6229 78.707 23.6333C78.6088 23.6437 78.5137 23.6735 78.4271 23.721C78.3405 23.7671 78.2639 23.8301 78.2018 23.9062C78.1397 23.9823 78.0934 24.0699 78.0656 24.1641C78.0378 24.2582 78.0289 24.357 78.0397 24.4546C78.0504 24.5522 78.0804 24.6467 78.128 24.7325C78.2239 24.9057 78.3838 25.0345 78.5734 25.0912C78.763 25.148 78.9674 25.1282 79.1426 25.0361C79.3158 24.941 79.4445 24.7816 79.5009 24.5922C79.5573 24.4029 79.5368 24.1989 79.4439 24.0246ZM72.7008 23.3C72.6443 23.199 72.5505 23.124 72.4394 23.0912C72.3284 23.0584 72.2089 23.0703 72.1065 23.1243C72.0557 23.1513 72.0107 23.188 71.9742 23.2325C71.9377 23.2769 71.9103 23.3281 71.8937 23.3831C71.8771 23.4382 71.8716 23.496 71.8774 23.5532C71.8833 23.6104 71.9004 23.6659 71.9278 23.7164C72.0398 23.933 72.3071 24.0117 72.5221 23.8913C72.5727 23.8644 72.6175 23.8277 72.6539 23.7834C72.6903 23.7391 72.7176 23.688 72.7342 23.6332C72.7508 23.5783 72.7564 23.5207 72.7507 23.4636C72.7449 23.4066 72.728 23.3512 72.7008 23.3008V23.3ZM74.1962 24.251C74.1476 24.1621 74.0737 24.0897 73.984 24.0427C73.8943 23.9957 73.7927 23.9763 73.6919 23.987C73.5912 23.9976 73.4959 24.0378 73.418 24.1025C73.3401 24.1672 73.283 24.2535 73.254 24.3506C73.2251 24.4476 73.2254 24.5511 73.2551 24.6479C73.2848 24.7447 73.3424 24.8306 73.4208 24.8948C73.4992 24.9589 73.5948 24.9984 73.6956 25.0084C73.7964 25.0183 73.8978 24.9982 73.9872 24.9506C74.2371 24.8113 74.3302 24.4963 74.1962 24.251ZM75.9263 24.7128C75.7763 24.4297 75.4167 24.329 75.1282 24.4758C74.9979 24.5535 74.9027 24.6786 74.8623 24.8249C74.822 24.9711 74.8398 25.1273 74.9119 25.2608C74.984 25.3943 75.1049 25.4947 75.2494 25.5412C75.3938 25.5877 75.5506 25.5765 75.687 25.5101C75.7557 25.4741 75.8165 25.4247 75.8658 25.3649C75.9151 25.3051 75.952 25.2361 75.9743 25.1618C75.9966 25.0875 76.0038 25.0096 75.9956 24.9325C75.9873 24.8554 75.9638 24.7807 75.9263 24.7128ZM77.726 24.6409C77.6422 24.487 77.501 24.3724 77.3331 24.322C77.1652 24.2717 76.9842 24.2897 76.8295 24.3721C76.7533 24.4134 76.6861 24.4695 76.6317 24.537C76.5774 24.6045 76.537 24.6822 76.513 24.7655C76.489 24.8488 76.4817 24.936 76.4918 25.0222C76.5018 25.1083 76.5288 25.1915 76.5713 25.2671C76.6118 25.3434 76.667 25.4108 76.7337 25.4656C76.8005 25.5203 76.8775 25.5612 76.9602 25.5859C77.043 25.6105 77.1298 25.6185 77.2157 25.6092C77.3015 25.6 77.3846 25.5738 77.4602 25.5321C77.5364 25.4913 77.6038 25.4358 77.6585 25.3688C77.7132 25.3018 77.754 25.2247 77.7787 25.1418C77.8034 25.059 77.8115 24.9721 77.8024 24.8861C77.7934 24.8001 77.7674 24.7168 77.726 24.6409ZM81.8161 18.8889C81.9188 18.832 81.9955 18.7375 82.0301 18.6253C82.0647 18.5131 82.0545 18.3918 82.0016 18.287C81.946 18.1847 81.8522 18.1086 81.7407 18.0753C81.6292 18.042 81.5091 18.0541 81.4065 18.109C81.355 18.136 81.3094 18.1729 81.2724 18.2178C81.2354 18.2626 81.2077 18.3143 81.191 18.37C81.1743 18.4256 81.1689 18.484 81.1751 18.5418C81.1812 18.5996 81.1989 18.6556 81.227 18.7064C81.2818 18.8079 81.3742 18.8837 81.4844 18.9177C81.5946 18.9517 81.7137 18.9411 81.8161 18.8881V18.8889ZM81.8994 20.6833C81.9584 20.6511 82.0105 20.6075 82.0527 20.5551C82.0949 20.5027 82.1263 20.4425 82.1451 20.3779C82.164 20.3133 82.1699 20.2457 82.1626 20.1788C82.1552 20.112 82.1347 20.0472 82.1023 19.9883C82.0706 19.929 82.0275 19.8766 81.9755 19.834C81.9234 19.7914 81.8635 19.7595 81.7992 19.7402C81.7348 19.7208 81.6672 19.7144 81.6003 19.7212C81.5335 19.7281 81.4686 19.7481 81.4095 19.78C81.2901 19.8461 81.2013 19.9564 81.1621 20.0871C81.1229 20.2179 81.1364 20.3588 81.1998 20.4796C81.2671 20.5977 81.3779 20.685 81.5084 20.7229C81.639 20.7607 81.7792 20.7463 81.8994 20.6826V20.6833ZM81.4299 22.4119C81.5676 22.3383 81.6705 22.2132 81.7162 22.0639C81.7619 21.9147 81.7466 21.7534 81.6737 21.6154C81.5965 21.4834 81.471 21.3866 81.3237 21.3454C81.1765 21.3041 81.019 21.3217 80.8844 21.3944C80.7499 21.4671 80.6488 21.5891 80.6025 21.7349C80.5563 21.8807 80.5684 22.0387 80.6364 22.1756C80.7113 22.311 80.8363 22.4116 80.9845 22.4557C81.1328 22.4999 81.2924 22.4842 81.4292 22.4119H81.4299ZM80.4827 23.9019C80.5589 23.861 80.6262 23.8054 80.6809 23.7383C80.7355 23.6713 80.7764 23.5942 80.8011 23.5113C80.8259 23.4284 80.8341 23.3415 80.8252 23.2555C80.8163 23.1695 80.7905 23.0861 80.7493 23.01C80.6875 22.8952 80.5931 22.8013 80.478 22.7401C80.3628 22.679 80.2321 22.6534 80.1024 22.6666C79.9727 22.6798 79.8499 22.7312 79.7494 22.8142C79.6489 22.8973 79.5753 23.0083 79.538 23.1332C79.5006 23.2581 79.5012 23.3913 79.5396 23.5159C79.5779 23.6405 79.6524 23.7508 79.7536 23.8331C79.8547 23.9153 79.978 23.9657 80.1078 23.9778C80.2376 23.9899 80.3681 23.9633 80.4827 23.9012V23.9019ZM93.2822 21.4155C93.0305 21.4153 92.7812 21.3655 92.5487 21.269C92.3162 21.1724 92.105 21.0311 91.9271 20.8529C91.7492 20.6747 91.6082 20.4633 91.512 20.2306C91.4159 19.998 91.3665 19.7486 91.3667 19.4969C91.3664 19.245 91.4159 18.9956 91.5123 18.7629C91.6087 18.5303 91.7502 18.319 91.9285 18.1412C92.1069 17.9633 92.3187 17.8225 92.5516 17.7269C92.7846 17.6312 93.0342 17.5825 93.286 17.5836C93.5379 17.5831 93.7873 17.6323 94.0201 17.7284C94.2529 17.8245 94.4644 17.9657 94.6425 18.1437C94.8206 18.3217 94.9618 18.5332 95.058 18.7659C95.1542 18.9986 95.2035 19.2481 95.2031 19.4999C95.2021 20.0086 94.9992 20.496 94.6391 20.8552C94.2789 21.2144 93.7909 21.4159 93.2822 21.4155ZM85.7517 4.88705C85.7809 4.75125 85.7829 4.61102 85.7578 4.47443C85.7326 4.33784 85.6806 4.20757 85.6049 4.09112C85.5292 3.97467 85.4312 3.87434 85.3166 3.79588C85.202 3.71743 85.073 3.66241 84.937 3.63398C84.6659 3.58328 84.3858 3.64055 84.1563 3.79355C83.9269 3.94655 83.7663 4.18318 83.7089 4.45292C83.6515 4.72266 83.7018 5.00416 83.8491 5.23733C83.9963 5.47051 84.2289 5.63689 84.4971 5.70098C84.7713 5.75936 85.0575 5.70651 85.2927 5.55403C85.5279 5.40156 85.693 5.16193 85.7517 4.8878V4.88705ZM89.5314 7.59005C89.5577 7.42394 89.551 7.25427 89.5117 7.09074C89.4724 6.92722 89.4012 6.77305 89.3023 6.63705C89.2033 6.50105 89.0786 6.38588 88.9351 6.29815C88.7916 6.21041 88.6322 6.15182 88.4661 6.12573C88.2998 6.09897 88.1299 6.1053 87.966 6.14436C87.8022 6.18342 87.6477 6.25443 87.5114 6.35334C87.375 6.45224 87.2596 6.57708 87.1716 6.7207C87.0836 6.86432 87.0249 7.0239 86.9987 7.19028C86.972 7.35667 86.9784 7.5267 87.0175 7.69062C87.0567 7.85454 87.1278 8.00911 87.2269 8.14545C87.3259 8.28179 87.4509 8.39722 87.5947 8.48512C87.7385 8.57301 87.8983 8.63163 88.0648 8.65762C88.4008 8.71035 88.744 8.62753 89.019 8.42735C89.294 8.22717 89.4783 7.92602 89.5314 7.59005ZM92.5766 11.1039C92.599 10.8952 92.58 10.684 92.5206 10.4826C92.4613 10.2812 92.3627 10.0935 92.2306 9.93026C92.0984 9.76705 91.9354 9.63154 91.7508 9.53151C91.5661 9.43148 91.3636 9.36891 91.1547 9.34737C90.7328 9.30329 90.3107 9.42843 89.9811 9.69532C89.6515 9.96221 89.4412 10.349 89.3966 10.7708C89.3747 10.9796 89.3942 11.1907 89.4539 11.392C89.5136 11.5932 89.6123 11.7808 89.7445 11.9439C89.8767 12.107 90.0397 12.2425 90.2242 12.3426C90.4088 12.4427 90.6112 12.5055 90.82 12.5274C91.0288 12.5493 91.2399 12.5298 91.4412 12.4701C91.6424 12.4104 91.83 12.3116 91.9931 12.1795C92.1562 12.0473 92.2917 11.8843 92.3918 11.6997C92.4919 11.5152 92.5547 11.3127 92.5766 11.1039ZM94.4657 15.1569C94.4781 14.926 94.4448 14.6949 94.3677 14.4768C94.2907 14.2588 94.1713 14.0581 94.0164 13.8863C93.8616 13.7146 93.6744 13.575 93.4655 13.4758C93.2566 13.3765 93.0302 13.3195 92.7992 13.308C92.568 13.295 92.3365 13.3278 92.118 13.4046C91.8996 13.4813 91.6984 13.6005 91.5261 13.7552C91.3538 13.9099 91.2138 14.0971 91.1141 14.3061C91.0143 14.5151 90.9569 14.7417 90.945 14.9729C90.9264 15.2077 90.9551 15.4439 91.0293 15.6674C91.1035 15.8909 91.2217 16.0973 91.377 16.2744C91.5322 16.4515 91.7214 16.5957 91.9333 16.6985C92.1453 16.8013 92.3756 16.8606 92.6108 16.8729C92.846 16.8852 93.0813 16.8502 93.3028 16.7701C93.5243 16.6899 93.7275 16.5663 93.9003 16.4063C94.0732 16.2464 94.2123 16.0534 94.3094 15.8388C94.4065 15.6242 94.4596 15.3924 94.4657 15.1569ZM76.9158 2.37712C76.9158 1.95009 76.5706 1.60938 76.1443 1.60938C75.9406 1.60938 75.7452 1.6903 75.6012 1.83435C75.4571 1.9784 75.3762 2.17378 75.3762 2.3775C75.3762 2.58121 75.4571 2.77659 75.6012 2.92064C75.7452 3.06469 75.9406 3.14562 76.1443 3.14562C76.5706 3.14562 76.9166 2.80263 76.9166 2.37636L76.9158 2.37712ZM84.4971 33.2973C84.3571 33.322 84.2236 33.3745 84.1043 33.4519C83.9851 33.5292 83.8826 33.6298 83.8031 33.7475C83.7235 33.8653 83.6684 33.9979 83.6412 34.1374C83.6139 34.2769 83.615 34.4204 83.6444 34.5595C83.6738 34.6985 83.7308 34.8303 83.8122 34.9468C83.8935 35.0633 83.9975 35.1623 84.1179 35.2379C84.2383 35.3134 84.3727 35.3639 84.513 35.3864C84.6533 35.4089 84.7968 35.4029 84.9347 35.3689C85.2014 35.303 85.4321 35.1361 85.5781 34.9034C85.724 34.6707 85.7739 34.3904 85.7171 34.1216C85.6603 33.8528 85.5014 33.6166 85.2737 33.4628C85.0461 33.309 84.7677 33.2497 84.4971 33.2973ZM88.0648 30.3422C87.8984 30.3682 87.7388 30.4268 87.5951 30.5146C87.4515 30.6024 87.3265 30.7176 87.2275 30.8538C87.1284 30.99 87.0573 31.1444 87.018 31.3081C86.9787 31.4719 86.9722 31.6417 86.9987 31.808C87.0248 31.9744 87.0835 32.1339 87.1714 32.2775C87.2592 32.4212 87.3746 32.546 87.5109 32.6449C87.6472 32.7438 87.8016 32.8148 87.9654 32.8539C88.1292 32.893 88.2991 32.8993 88.4653 32.8726C88.633 32.848 88.7942 32.7904 88.9395 32.7031C89.0848 32.6157 89.2113 32.5005 89.3117 32.3639C89.4121 32.2273 89.4844 32.0722 89.5244 31.9075C89.5645 31.7428 89.5714 31.5718 89.5449 31.4044C89.5183 31.2369 89.4588 31.0765 89.3698 30.9322C89.2808 30.788 89.164 30.6628 89.0263 30.564C88.8885 30.4652 88.7325 30.3947 88.5674 30.3567C88.4022 30.3186 88.2311 30.3137 88.064 30.3422H88.0648ZM90.8193 26.4732C90.6107 26.4951 90.4085 26.5579 90.2242 26.658C90.0399 26.758 89.8772 26.8934 89.7452 27.0564C89.6132 27.2194 89.5147 27.4067 89.4551 27.6078C89.3955 27.8089 89.3762 28.0197 89.3981 28.2282C89.42 28.4368 89.4828 28.639 89.5829 28.8233C89.6829 29.0076 89.8183 29.1703 89.9813 29.3023C90.1443 29.4343 90.3316 29.5329 90.5327 29.5924C90.7338 29.652 90.9446 29.6713 91.1532 29.6494C91.5648 29.5936 91.9386 29.3797 92.1952 29.053C92.4518 28.7263 92.571 28.3124 92.5276 27.8993C92.4841 27.4861 92.2815 27.1061 91.9625 26.8399C91.6436 26.5737 91.2335 26.4421 90.8193 26.4732ZM92.6107 22.1726C92.1445 22.1977 91.7072 22.4067 91.3949 22.7537C91.0826 23.1008 90.9208 23.5576 90.945 24.0238C90.9566 24.2552 91.0138 24.482 91.1134 24.6912C91.2131 24.9003 91.3531 25.0877 91.5254 25.2426C91.6978 25.3974 91.8991 25.5166 92.1177 25.5933C92.3363 25.67 92.5679 25.7027 92.7992 25.6895C93.0302 25.6779 93.2566 25.6208 93.4654 25.5215C93.6743 25.4221 93.8615 25.2825 94.0162 25.1107C94.171 24.9388 94.2903 24.7381 94.3673 24.52C94.4443 24.3019 94.4775 24.0708 94.4649 23.8398C94.4397 23.3729 94.2301 22.935 93.8823 22.6224C93.5345 22.3098 93.0769 22.1481 92.6099 22.1726H92.6107ZM76.1443 35.8542C76.0404 35.8496 75.9367 35.8661 75.8393 35.9026C75.742 35.9392 75.6531 35.9951 75.5779 36.067C75.5028 36.1389 75.443 36.2253 75.4021 36.3209C75.3612 36.4165 75.3402 36.5195 75.3402 36.6235C75.3402 36.7274 75.3612 36.8304 75.4021 36.926C75.443 37.0216 75.5028 37.108 75.5779 37.1799C75.6531 37.2518 75.742 37.3077 75.8393 37.3443C75.9367 37.3808 76.0404 37.3973 76.1443 37.3927C76.2482 37.3973 76.352 37.3808 76.4493 37.3443C76.5467 37.3077 76.6356 37.2518 76.7107 37.1799C76.7859 37.108 76.8457 37.0216 76.8865 36.926C76.9274 36.8304 76.9485 36.7274 76.9485 36.6235C76.9485 36.5195 76.9274 36.4165 76.8865 36.3209C76.8457 36.2253 76.7859 36.1389 76.7107 36.067C76.6356 35.9951 76.5467 35.9392 76.4493 35.9026C76.352 35.8661 76.2482 35.8496 76.1443 35.8542ZM59.0064 21.4155C59.5145 21.4145 60.0015 21.2119 60.3603 20.8521C60.7192 20.4924 60.9207 20.005 60.9204 19.4969C60.9206 19.2455 60.8713 18.9966 60.7751 18.7644C60.679 18.5322 60.538 18.3212 60.3602 18.1435C60.1824 17.9659 59.9713 17.825 59.739 17.7291C59.5067 17.6331 59.2577 17.5839 59.0064 17.5843C58.4984 17.5843 58.0111 17.7862 57.6519 18.1454C57.2926 18.5046 57.0908 18.9919 57.0908 19.4999C57.0908 20.0079 57.2926 20.4952 57.6519 20.8544C58.0111 21.2137 58.4984 21.4155 59.0064 21.4155ZM67.7923 5.70098C67.9283 5.67237 68.0573 5.61718 68.172 5.53858C68.2866 5.45997 68.3846 5.3595 68.4603 5.24293C68.536 5.12636 68.5879 4.99599 68.6131 4.85929C68.6382 4.7226 68.6362 4.58228 68.607 4.44639C68.5782 4.31053 68.5229 4.18169 68.4442 4.06726C68.3655 3.95283 68.265 3.85507 68.1484 3.77959C68.0319 3.7041 67.9015 3.65238 67.7649 3.6274C67.6283 3.60241 67.4881 3.60464 67.3524 3.63398C67.2134 3.6595 67.081 3.71261 66.963 3.79018C66.8449 3.86775 66.7436 3.9682 66.665 4.08559C66.5864 4.20298 66.5322 4.33493 66.5055 4.47365C66.4787 4.61236 66.4801 4.75503 66.5095 4.89321C66.5388 5.03139 66.5956 5.16228 66.6764 5.27815C66.7572 5.39402 66.8604 5.49252 66.9799 5.56782C67.0994 5.64313 67.2328 5.69371 67.3722 5.71658C67.5116 5.73945 67.6542 5.73414 67.7915 5.70098H67.7923ZM64.2261 8.65762C64.3924 8.63127 64.5519 8.57242 64.6955 8.48444C64.839 8.39646 64.9638 8.28107 65.0628 8.14485C65.1617 8.00863 65.2329 7.85425 65.2722 7.69053C65.3115 7.52681 65.3182 7.35695 65.2918 7.19065C65.2655 7.02436 65.2066 6.86488 65.1186 6.72133C65.0307 6.57777 64.9153 6.45295 64.779 6.354C64.6428 6.25504 64.4884 6.18388 64.3247 6.14459C64.161 6.10529 63.9911 6.09863 63.8248 6.12498C63.489 6.17819 63.188 6.36264 62.9882 6.63775C62.7883 6.91286 62.706 7.25609 62.7592 7.59194C62.8124 7.92779 62.9968 8.22874 63.2719 8.4286C63.5471 8.62845 63.8903 8.71083 64.2261 8.65762ZM61.4671 12.5266C61.6759 12.5047 61.8782 12.4419 62.0627 12.3417C62.2472 12.2416 62.4101 12.1061 62.5422 11.943C62.6743 11.7799 62.773 11.5923 62.8327 11.3911C62.8923 11.1898 62.9117 10.9788 62.8898 10.77C62.8679 10.5613 62.805 10.3589 62.7049 10.1744C62.6047 9.98996 62.4692 9.82702 62.3061 9.69491C62.143 9.56281 61.9555 9.46412 61.7542 9.40449C61.553 9.34486 61.342 9.32545 61.1332 9.34737C60.9242 9.36871 60.7214 9.43118 60.5366 9.53119C60.3517 9.63119 60.1885 9.76676 60.0563 9.93009C59.9241 10.0934 59.8255 10.2813 59.7661 10.4829C59.7068 10.6845 59.6879 10.8958 59.7105 11.1047C59.7324 11.3135 59.7951 11.5159 59.8952 11.7005C59.9953 11.885 60.1308 12.048 60.294 12.1801C60.4571 12.3122 60.6447 12.4109 60.846 12.4705C61.0473 12.5301 61.2583 12.5494 61.4671 12.5274V12.5266ZM59.678 16.8272C60.1446 16.8021 60.5822 16.593 60.8948 16.2456C61.2073 15.8983 61.3693 15.4411 61.3452 14.9745C61.3336 14.743 61.2763 14.5161 61.1766 14.3069C61.077 14.0977 60.9369 13.9103 60.7644 13.7555C60.592 13.6006 60.3907 13.4814 60.172 13.4048C59.9533 13.3281 59.7216 13.2955 59.4902 13.3087C59.2591 13.3204 59.0326 13.3775 58.8235 13.4768C58.6145 13.5761 58.4272 13.7156 58.2721 13.8874C58.1171 14.0593 57.9975 14.26 57.9202 14.4781C57.8429 14.6962 57.8093 14.9274 57.8215 15.1584C57.8471 15.6257 58.0569 16.0637 58.4049 16.3765C58.7529 16.6893 59.2107 16.8513 59.678 16.8272ZM66.5377 34.1112C66.4788 34.3858 66.5313 34.6724 66.6837 34.9082C66.8361 35.144 67.076 35.3095 67.3505 35.3685C67.625 35.4274 67.9117 35.3749 68.1474 35.2225C68.3832 35.07 68.5488 34.8302 68.6077 34.5557C68.6369 34.4198 68.639 34.2794 68.614 34.1427C68.5889 34.006 68.5372 33.8755 68.4617 33.7587C68.3862 33.642 68.2885 33.5413 68.1741 33.4623C68.0597 33.3833 67.9308 33.3276 67.7949 33.2985C67.659 33.2693 67.5187 33.2671 67.3819 33.2922C67.2452 33.3173 67.1147 33.369 66.998 33.4445C66.8812 33.5199 66.7805 33.6177 66.7015 33.7321C66.6225 33.8465 66.5669 33.9753 66.5377 34.1112ZM62.7595 31.4083C62.7328 31.5744 62.7392 31.7442 62.7782 31.9079C62.8173 32.0716 62.8884 32.2259 62.9873 32.3621C63.0862 32.4982 63.2111 32.6135 63.3547 32.7012C63.4983 32.7889 63.6578 32.8474 63.8241 32.8733C64.1596 32.9265 64.5026 32.8443 64.7775 32.6446C65.0524 32.445 65.2367 32.1443 65.2899 31.8088C65.3431 31.4732 65.2609 31.1303 65.0612 30.8554C64.8616 30.5805 64.5609 30.3962 64.2254 30.3429C64.0592 30.3166 63.8895 30.3233 63.7259 30.3626C63.5624 30.4019 63.4081 30.4731 63.2721 30.572C63.136 30.6709 63.0208 30.7957 62.933 30.9392C62.8452 31.0827 62.7865 31.2421 62.7603 31.4083H62.7595ZM59.7128 27.8951C59.6904 28.1037 59.7094 28.3147 59.7687 28.5159C59.8281 28.7171 59.9266 28.9047 60.0587 29.0677C60.1908 29.2307 60.3538 29.366 60.5383 29.4659C60.7228 29.5657 60.9252 29.6281 61.134 29.6494C61.3426 29.672 61.5537 29.6531 61.7551 29.5938C61.9565 29.5346 62.1441 29.4361 62.3074 29.3042C62.4706 29.1722 62.6061 29.0093 62.7062 28.8248C62.8063 28.6402 62.8689 28.4378 62.8905 28.229C62.9344 27.8075 62.8091 27.3857 62.5422 27.0565C62.2753 26.7273 61.8886 26.5175 61.4671 26.4732C61.2585 26.4511 61.0476 26.4703 60.8464 26.5298C60.6453 26.5894 60.4578 26.688 60.2949 26.8201C60.1319 26.9522 59.9966 27.1151 59.8967 27.2996C59.7968 27.4841 59.7343 27.6864 59.7128 27.8951ZM57.8215 23.8406C57.8096 24.0716 57.8434 24.3026 57.9209 24.5205C57.9983 24.7385 58.1179 24.939 58.2729 25.1107C58.4279 25.2824 58.6151 25.4219 58.824 25.5212C59.0328 25.6205 59.2592 25.6777 59.4902 25.6895C59.7216 25.7027 59.9533 25.67 60.172 25.5933C60.3907 25.5166 60.592 25.3974 60.7645 25.2426C60.937 25.0878 61.0771 24.9005 61.1769 24.6913C61.2767 24.4821 61.3342 24.2553 61.346 24.0238C61.3703 23.5565 61.2079 23.0986 60.8946 22.7509C60.5813 22.4032 60.1427 22.1943 59.6753 22.17C59.2079 22.1457 58.7501 22.308 58.4024 22.6213C58.0547 22.9346 57.8458 23.3732 57.8215 23.8406ZM80.3661 35.2409C80.2614 35.269 80.1632 35.3174 80.0772 35.3835C79.9912 35.4495 79.919 35.5318 79.8648 35.6258C79.8106 35.7197 79.7754 35.8234 79.7613 35.9309C79.7471 36.0384 79.7543 36.1477 79.7824 36.2524C79.8105 36.3572 79.8589 36.4554 79.925 36.5414C79.991 36.6274 80.0733 36.6996 80.1673 36.7538C80.2612 36.808 80.3649 36.8432 80.4724 36.8573C80.5799 36.8715 80.6892 36.8643 80.7939 36.8362C80.9961 36.7713 81.1656 36.6312 81.2673 36.4447C81.3689 36.2583 81.395 36.0399 81.34 35.8348C81.285 35.6297 81.1532 35.4536 80.9719 35.343C80.7906 35.2325 80.5737 35.1959 80.3661 35.2409ZM71.9217 35.2409C71.817 35.2128 71.7077 35.2056 71.6002 35.2198C71.4927 35.2339 71.389 35.2691 71.2951 35.3233C71.2011 35.3775 71.1188 35.4497 71.0528 35.5357C70.9867 35.6217 70.9383 35.7199 70.9102 35.8247C70.8821 35.9294 70.8749 36.0387 70.8891 36.1462C70.9032 36.2537 70.9384 36.3574 70.9926 36.4513C71.0468 36.5453 71.119 36.6276 71.205 36.6936C71.291 36.7597 71.3892 36.8081 71.4939 36.8362C71.5989 36.8645 71.7084 36.8719 71.8162 36.8578C71.924 36.8438 72.0279 36.8087 72.1222 36.7545C72.2164 36.7003 72.299 36.6281 72.3653 36.5419C72.4316 36.4558 72.4802 36.3574 72.5085 36.2524C72.5364 36.1475 72.5434 36.0381 72.529 35.9304C72.5146 35.8228 72.4792 35.7191 72.4247 35.6251C72.3702 35.5312 72.2977 35.4489 72.2114 35.383C72.1251 35.3171 72.0267 35.2688 71.9217 35.2409ZM81.3815 3.17439C81.4097 3.06948 81.4168 2.96004 81.4025 2.85236C81.3882 2.74468 81.3527 2.64091 81.2981 2.54701C81.2434 2.45312 81.1708 2.37097 81.0842 2.30529C80.9977 2.23962 80.8991 2.19172 80.7939 2.16436C80.5851 2.11527 80.3654 2.14942 80.1813 2.25959C79.9972 2.36975 79.8632 2.54727 79.8078 2.75451C79.7524 2.96176 79.7798 3.18244 79.8843 3.36979C79.9888 3.55714 80.1622 3.69643 80.3677 3.75815C80.5794 3.81511 80.8051 3.78571 80.9952 3.6764C81.1853 3.56709 81.3242 3.38681 81.3815 3.17515V3.17439ZM72.5093 2.7466C72.4811 2.64162 72.4325 2.54324 72.3662 2.45711C72.2999 2.37098 72.2172 2.29879 72.123 2.24468C72.0287 2.19058 71.9247 2.15564 71.8168 2.14185C71.709 2.12807 71.5996 2.13572 71.4947 2.16436C71.054 2.28096 70.7906 2.73222 70.9094 3.17288C70.9718 3.3784 71.1116 3.55166 71.2992 3.65611C71.4869 3.76056 71.7078 3.78804 71.9153 3.73274C72.1229 3.67744 72.3008 3.5437 72.4116 3.35972C72.5224 3.17574 72.5574 2.95591 72.5093 2.7466ZM89.0256 15.5817C88.6605 15.7381 88.2482 15.7434 87.8792 15.5963C87.5102 15.4493 87.2145 15.162 87.057 14.7973C86.979 14.6168 86.9374 14.4227 86.9346 14.226C86.9319 14.0294 86.968 13.8342 87.0408 13.6515C87.1137 13.4689 87.222 13.3025 87.3594 13.1618C87.4967 13.0211 87.6606 12.9089 87.8414 12.8317C88.0218 12.7536 88.2159 12.7119 88.4125 12.7089C88.6091 12.7059 88.8044 12.7417 88.9871 12.8143C89.1698 12.8868 89.3364 12.9948 89.4774 13.1318C89.6183 13.2689 89.7308 13.4325 89.8085 13.6131C89.9656 13.978 89.9714 14.3903 89.8246 14.7595C89.6778 15.1286 89.3904 15.4244 89.0256 15.5817ZM78.5089 6.05835C78.4881 5.95177 78.4464 5.85036 78.3862 5.75997C78.326 5.66958 78.2486 5.59199 78.1583 5.53168C78.068 5.47136 77.9666 5.42951 77.8601 5.40854C77.7535 5.38756 77.6439 5.38788 77.5375 5.40948C77.3775 5.44151 77.2305 5.52026 77.1153 5.63578C77 5.7513 76.9216 5.8984 76.8899 6.05848C76.8582 6.21856 76.8747 6.38444 76.9373 6.53515C76.9998 6.68587 77.1057 6.81465 77.2414 6.90522C77.3772 6.99579 77.5367 7.04408 77.6999 7.04399C77.8631 7.0439 78.0226 6.99543 78.1583 6.90472C78.2939 6.814 78.3996 6.6851 78.462 6.53432C78.5244 6.38354 78.5407 6.21764 78.5089 6.05759V6.05835ZM82.0569 6.82836C82.0244 6.70095 81.9672 6.58119 81.8884 6.47593C81.8097 6.37068 81.7109 6.282 81.5978 6.21497C81.4847 6.14794 81.3595 6.10389 81.2294 6.08532C81.0992 6.06676 80.9667 6.07406 80.8394 6.1068C80.7119 6.13896 80.592 6.19599 80.4866 6.27462C80.3812 6.35326 80.2924 6.45195 80.2253 6.56501C80.1581 6.67808 80.114 6.8033 80.0955 6.93347C80.0769 7.06364 80.0842 7.1962 80.117 7.32353C80.2533 7.85883 80.8 8.18289 81.3353 8.04358C81.5921 7.97809 81.8124 7.81328 81.9477 7.58539C82.083 7.3575 82.1223 7.08519 82.0569 6.82836ZM85.3277 8.40549C85.2792 8.24895 85.2001 8.10355 85.0952 7.97764C84.9903 7.85173 84.8615 7.74779 84.7163 7.67181C84.5711 7.59582 84.4123 7.54928 84.249 7.53486C84.0858 7.52044 83.9213 7.53842 83.765 7.58778C83.6084 7.6362 83.463 7.71503 83.337 7.81976C83.211 7.92449 83.1069 8.05305 83.0306 8.19808C82.9544 8.34311 82.9075 8.50176 82.8927 8.66493C82.8778 8.82811 82.8954 8.99261 82.9442 9.149C83.0438 9.46445 83.2643 9.72759 83.5575 9.88085C83.8507 10.0341 84.1926 10.065 84.5085 9.96672C84.8241 9.86825 85.0877 9.64848 85.2413 9.35571C85.3949 9.06295 85.426 8.72116 85.3277 8.40549ZM87.9361 10.7292C87.8736 10.5597 87.7784 10.4041 87.6558 10.2715C87.5332 10.1388 87.3856 10.0317 87.2215 9.95614C87.0575 9.88061 86.8801 9.83818 86.6996 9.83129C86.5191 9.8244 86.339 9.85318 86.1696 9.91599C85.9997 9.97801 85.8438 10.073 85.7107 10.1955C85.5776 10.3181 85.4701 10.4657 85.3943 10.6299C85.3185 10.7942 85.276 10.9718 85.2691 11.1525C85.2622 11.3333 85.2911 11.5136 85.3542 11.6832C85.4903 12.0123 85.7487 12.2759 86.075 12.4186C86.4013 12.5613 86.7702 12.5721 87.1042 12.4486C87.4383 12.3252 87.7116 12.0771 87.8667 11.7565C88.0218 11.4359 88.0466 11.0677 87.9361 10.7292ZM71.3985 6.98812C71.3675 6.91524 71.3223 6.84923 71.2656 6.7939C71.2089 6.73857 71.1418 6.69501 71.0681 6.66574C70.9945 6.63646 70.9158 6.62204 70.8366 6.62331C70.7574 6.62458 70.6792 6.64152 70.6066 6.67315C70.5338 6.70414 70.4679 6.74924 70.4127 6.80584C70.3575 6.86243 70.314 6.92941 70.2848 7.0029C70.2555 7.07639 70.2412 7.15494 70.2425 7.23401C70.2438 7.31309 70.2607 7.39112 70.2924 7.4636C70.4241 7.76646 70.7792 7.90578 71.0836 7.77555C71.156 7.74461 71.2217 7.69968 71.2767 7.64333C71.3318 7.58699 71.3752 7.52033 71.4044 7.44719C71.4337 7.37404 71.4482 7.29584 71.4472 7.21706C71.4462 7.13829 71.4297 7.06049 71.3985 6.98812ZM86.4036 26.8124C86.3151 26.8752 86.2398 26.9549 86.182 27.0468C86.1243 27.1388 86.0852 27.2412 86.067 27.3482C86.0488 27.4553 86.0519 27.5648 86.0761 27.6707C86.1003 27.7765 86.145 27.8766 86.2079 27.9651C86.2707 28.0537 86.3504 28.129 86.4423 28.1867C86.5343 28.2445 86.6367 28.2836 86.7437 28.3017C86.8508 28.3199 86.9603 28.3168 87.0662 28.2927C87.172 28.2685 87.2721 28.2237 87.3606 28.1609C87.5395 28.034 87.6605 27.8412 87.6972 27.625C87.7339 27.4088 87.6833 27.1869 87.5564 27.0081C87.4294 26.8293 87.2367 26.7082 87.0205 26.6715C86.8043 26.6348 86.5824 26.6855 86.4036 26.8124ZM88.0466 23.5907C87.9355 23.661 87.8393 23.7525 87.7636 23.86C87.6878 23.9675 87.634 24.0888 87.6051 24.2171C87.5762 24.3454 87.5729 24.4781 87.5954 24.6076C87.6178 24.7372 87.6655 24.861 87.7358 24.9722C87.8061 25.0833 87.8976 25.1794 88.0051 25.2552C88.1125 25.331 88.2339 25.3848 88.3621 25.4137C88.4904 25.4425 88.6231 25.4458 88.7527 25.4234C88.8822 25.401 89.0061 25.3533 89.1172 25.283C89.3416 25.1411 89.5005 24.9159 89.5588 24.6569C89.6172 24.3979 89.5703 24.1263 89.4284 23.9019C89.2865 23.6775 89.0613 23.5187 88.8023 23.4603C88.5433 23.402 88.2718 23.4489 88.0474 23.5907H88.0466ZM88.8249 19.9663C88.6821 20.0465 88.5564 20.1541 88.4551 20.2829C88.3538 20.4117 88.2788 20.5592 88.2345 20.717C88.1902 20.8748 88.1775 21.0397 88.1969 21.2025C88.2164 21.3652 88.2677 21.5225 88.3479 21.6653C88.5106 21.9533 88.781 22.1648 89.0995 22.2536C89.4181 22.3423 89.7589 22.3009 90.047 22.1385C90.3254 21.9715 90.5277 21.7025 90.6109 21.3887C90.694 21.0748 90.6515 20.7409 90.4924 20.4579C90.3333 20.1749 90.07 19.9652 89.7586 19.8732C89.4473 19.7813 89.1123 19.8144 88.8249 19.9655V19.9663ZM88.7773 16.3305C88.4512 16.493 88.2027 16.778 88.0862 17.1233C87.9697 17.4685 87.9947 17.8458 88.1556 18.1726C88.2357 18.3348 88.347 18.4796 88.4832 18.5987C88.6194 18.7178 88.7778 18.8088 88.9492 18.8664C89.1207 18.9241 89.3018 18.9474 89.4823 18.9349C89.6627 18.9223 89.839 18.8743 90.0008 18.7935C90.1629 18.7138 90.3076 18.6028 90.4266 18.467C90.5457 18.3312 90.6367 18.1732 90.6945 18.0021C90.7522 17.8309 90.7756 17.6501 90.7632 17.4699C90.7509 17.2897 90.703 17.1137 90.6224 16.9521C90.459 16.6261 90.1734 16.3779 89.8277 16.2616C89.4821 16.1453 89.1045 16.1703 88.7773 16.3313V16.3305ZM81.2073 31.2258C81.0611 31.2888 80.946 31.4074 80.8872 31.5553C80.8284 31.7033 80.8308 31.8685 80.8939 32.0147C80.9569 32.1609 81.0755 32.2761 81.2234 32.3348C81.3714 32.3936 81.5366 32.3912 81.6828 32.3282C81.7568 32.2981 81.8241 32.2535 81.8806 32.197C81.9372 32.1406 81.9819 32.0735 82.0121 31.9995C82.0424 31.9256 82.0576 31.8463 82.0569 31.7665C82.0561 31.6866 82.0394 31.6076 82.0078 31.5343C81.9762 31.4609 81.9302 31.3946 81.8726 31.3392C81.815 31.2839 81.7469 31.2405 81.6724 31.2118C81.5978 31.1831 81.5183 31.1695 81.4385 31.1719C81.3586 31.1743 81.28 31.1926 81.2073 31.2258ZM64.4502 26.1688C64.6347 26.0935 64.8022 25.9822 64.9431 25.8413C65.0839 25.7005 65.1953 25.5329 65.2705 25.3485C65.3458 25.164 65.3835 24.9664 65.3814 24.7672C65.3793 24.568 65.3375 24.3713 65.2584 24.1884C65.1793 24.0056 65.0644 23.8404 64.9207 23.7026C64.7769 23.5647 64.607 23.4569 64.4211 23.3855C64.2351 23.3141 64.0367 23.2805 63.8376 23.2868C63.6385 23.2931 63.4427 23.339 63.2615 23.4219C62.9055 23.5849 62.6275 23.8809 62.4872 24.2465C62.3468 24.6121 62.3553 25.0181 62.5109 25.3774C62.6664 25.7368 62.9565 26.0209 63.3191 26.1689C63.6816 26.3168 64.0877 26.3168 64.4502 26.1688ZM65.8858 12.1867C66.0643 12.0602 66.1853 11.8679 66.222 11.6522C66.2588 11.4365 66.2084 11.2151 66.0819 11.0366C66.0193 10.9482 65.9398 10.873 65.8481 10.8153C65.7564 10.7576 65.6543 10.7185 65.5475 10.7003C65.3318 10.6635 65.1103 10.714 64.9318 10.8405C64.8427 10.9028 64.7668 10.9821 64.7086 11.0739C64.6503 11.1657 64.6108 11.2681 64.5924 11.3753C64.5739 11.4824 64.5769 11.5922 64.6011 11.6982C64.6253 11.8042 64.6703 11.9043 64.7334 11.9928C64.9984 12.3623 65.514 12.4517 65.8858 12.1867ZM64.2428 15.4091C64.3587 15.3412 64.4599 15.2506 64.5401 15.1429C64.6204 15.0351 64.6781 14.9123 64.7099 14.7817C64.7417 14.6511 64.7469 14.5155 64.7252 14.3829C64.7035 14.2503 64.6554 14.1234 64.5836 14.0098C64.5119 13.8962 64.418 13.7982 64.3076 13.7216C64.1972 13.645 64.0725 13.5914 63.9409 13.564C63.8094 13.5366 63.6737 13.5359 63.5419 13.5621C63.4101 13.5882 63.2849 13.6406 63.1737 13.7161C62.9569 13.8614 62.8053 14.0856 62.7513 14.341C62.6973 14.5963 62.7451 14.8627 62.8846 15.0833C63.024 15.304 63.2441 15.4615 63.4979 15.5223C63.7517 15.5831 64.0192 15.5425 64.2435 15.4091H64.2428ZM63.4637 19.0343C63.7518 18.8721 63.9638 18.6021 64.0529 18.2837C64.142 17.9653 64.101 17.6245 63.9388 17.3364C63.7766 17.0482 63.5067 16.8363 63.1883 16.7472C62.8698 16.6581 62.5291 16.6991 62.2409 16.8613C62.0978 16.9408 61.9718 17.048 61.8702 17.1764C61.7687 17.3049 61.6936 17.4523 61.6492 17.6099C61.6049 17.7676 61.5922 17.9325 61.6119 18.0951C61.6315 18.2577 61.6832 18.4147 61.7639 18.5573C61.9261 18.8459 62.1963 19.0583 62.515 19.1477C62.8338 19.2372 63.175 19.1964 63.4637 19.0343ZM63.5106 22.6701C63.6727 22.5901 63.8174 22.479 63.9364 22.3431C64.0555 22.2071 64.1465 22.049 64.2044 21.8779C64.2623 21.7067 64.2858 21.5258 64.2737 21.3455C64.2616 21.1652 64.214 20.9891 64.1338 20.8272C64.0538 20.6647 63.9424 20.5197 63.8062 20.4004C63.6699 20.2811 63.5114 20.19 63.3397 20.1322C63.1681 20.0744 62.9867 20.0512 62.8061 20.0638C62.6254 20.0763 62.4491 20.1245 62.2871 20.2056C61.9603 20.3679 61.7113 20.6534 61.5951 20.9993C61.4788 21.3452 61.5046 21.7231 61.667 22.05C61.8293 22.3768 62.1149 22.6257 62.4608 22.742C62.8067 22.8583 63.1846 22.8324 63.5114 22.6701H63.5106ZM73.779 32.9445C73.7999 33.0512 73.8416 33.1527 73.9018 33.2432C73.962 33.3337 74.0395 33.4114 74.1297 33.472C74.22 33.5325 74.3214 33.5746 74.428 33.5959C74.5346 33.6171 74.6443 33.6172 74.7509 33.5959C74.8575 33.5747 74.9589 33.5327 75.0492 33.4722C75.1396 33.4117 75.2171 33.334 75.2773 33.2435C75.3375 33.153 75.3793 33.0516 75.4002 32.9449C75.4212 32.8382 75.4209 32.7285 75.3993 32.622C75.3559 32.4077 75.2294 32.2193 75.0474 32.0982C74.8654 31.977 74.6428 31.933 74.4284 31.9756C74.214 32.0183 74.0252 32.1443 73.9035 32.3259C73.7818 32.5075 73.737 32.7299 73.779 32.9445ZM70.2348 32.1722C70.3703 32.7098 70.9147 33.03 71.4515 32.8938C71.7086 32.8279 71.9289 32.6626 72.0641 32.4343C72.1993 32.206 72.2382 31.9333 72.1723 31.6763C72.1065 31.4192 71.9412 31.1989 71.7129 31.0637C71.4846 30.9286 71.2119 30.8896 70.9549 30.9555C70.8277 30.9881 70.7081 31.0454 70.6031 31.1242C70.4981 31.2029 70.4096 31.3017 70.3427 31.4147C70.2759 31.5276 70.2319 31.6527 70.2134 31.7827C70.1949 31.9127 70.2022 32.045 70.2348 32.1722ZM66.9609 30.5951C67.0094 30.7517 67.0884 30.8971 67.1933 31.023C67.2982 31.1489 67.427 31.2528 67.5723 31.3287C67.7176 31.4045 67.8764 31.4509 68.0397 31.4651C68.203 31.4793 68.3675 31.461 68.5237 31.4113C68.6804 31.3634 68.8261 31.2849 68.9523 31.1804C69.0785 31.0759 69.1829 30.9475 69.2592 30.8025C69.3356 30.6575 69.3825 30.4988 69.3973 30.3356C69.412 30.1724 69.3943 30.0079 69.3452 29.8516C69.2457 29.5354 69.025 29.2716 68.7313 29.1181C68.4376 28.9645 68.095 28.9337 67.7786 29.0323C67.6223 29.0812 67.4771 29.1603 67.3513 29.2653C67.2256 29.3703 67.1218 29.499 67.0458 29.6442C66.9699 29.7893 66.9233 29.948 66.9087 30.1112C66.8941 30.2743 66.9119 30.4388 66.9609 30.5951ZM64.3518 28.2691C64.4141 28.439 64.5094 28.5948 64.6322 28.7277C64.7549 28.8606 64.9027 28.9679 65.0671 29.0435C65.2315 29.119 65.4091 29.1614 65.5899 29.168C65.7707 29.1747 65.951 29.1456 66.1205 29.0823C66.4529 28.9489 66.7201 28.691 66.8653 28.3636C67.0105 28.0362 67.0222 27.665 66.8979 27.3291C66.7736 26.9932 66.5231 26.719 66.1997 26.565C65.8764 26.4109 65.5057 26.3891 65.1665 26.5042C64.8248 26.6307 64.5471 26.8875 64.3944 27.2183C64.2417 27.5491 64.2264 27.927 64.3518 28.2691ZM84.0421 29.4821C83.9087 29.5886 83.8227 29.7436 83.803 29.9132C83.7833 30.0828 83.8314 30.2533 83.9368 30.3876C83.9895 30.4543 84.0547 30.5099 84.1289 30.5514C84.2031 30.5928 84.2846 30.6193 84.369 30.6292C84.4534 30.6391 84.5389 30.6323 84.6206 30.6092C84.7024 30.586 84.7787 30.547 84.8454 30.4944C84.9121 30.4417 84.9677 30.3765 85.0092 30.3023C85.0506 30.2282 85.077 30.1466 85.087 30.0622C85.0969 29.9778 85.0901 29.8923 85.0669 29.8106C85.0438 29.7289 85.0048 29.6525 84.9522 29.5858C84.8448 29.452 84.6889 29.366 84.5185 29.3466C84.348 29.3271 84.1768 29.3758 84.0421 29.4821ZM77.9887 32.0897C77.8196 32.115 77.6673 32.2061 77.5651 32.3433C77.463 32.4805 77.4193 32.6525 77.4436 32.8218C77.4558 32.9057 77.4845 32.9864 77.528 33.0592C77.5715 33.132 77.6289 33.1955 77.697 33.246C77.7651 33.2965 77.8426 33.3331 77.9248 33.3536C78.0071 33.3741 78.0926 33.3781 78.1765 33.3655C78.3414 33.3358 78.4883 33.2432 78.5862 33.1072C78.684 32.9711 78.7251 32.8024 78.7007 32.6366C78.6763 32.4708 78.5883 32.321 78.4555 32.219C78.3226 32.1169 78.1552 32.0705 77.9887 32.0897ZM74.8466 6.17798C74.8341 6.09407 74.8052 6.01345 74.7615 5.94073C74.7178 5.86801 74.6602 5.80462 74.592 5.7542C74.5238 5.70377 74.4463 5.6673 74.3639 5.64686C74.2816 5.62643 74.196 5.62243 74.1121 5.6351C74.0253 5.64379 73.9412 5.67 73.8648 5.71213C73.7884 5.75427 73.7214 5.81146 73.6677 5.88025C73.6141 5.94903 73.575 6.02799 73.5527 6.11233C73.5304 6.19668 73.5255 6.28466 73.5382 6.37097C73.5509 6.45727 73.581 6.5401 73.6266 6.61445C73.6723 6.68879 73.7325 6.75311 73.8037 6.80351C73.8749 6.85391 73.9556 6.88935 74.0409 6.90767C74.1262 6.926 74.2143 6.92684 74.2999 6.91013C74.652 6.85713 74.8981 6.53156 74.8466 6.17798Z" fill="#9C9C9C"/>
</g>
</g>
<g clip-path="url(#clip2_2_459)">
<g clip-path="url(#clip3_2_459)">
<path fill-rule="evenodd" clip-rule="evenodd" d="M251.155 0.40625H260.009C264.266 0.40625 265.172 3.08546 265.172 4.93106C265.172 6.75048 264.38 7.73629 263.179 8.4691C264.629 9.02452 265.988 10.3147 265.988 12.9677C265.988 16.5833 263.179 18.4531 260.327 18.4531H251.153V0.40625H251.155ZM256.136 7.43386H258.763C259.805 7.43386 260.462 7.10429 260.462 5.9411C260.462 5.0309 259.782 4.70327 258.763 4.70327H256.137V7.43192L256.136 7.43386ZM256.136 14.1561H259.058C260.1 14.1561 261.006 13.8275 261.006 12.4375C261.006 11.3761 260.439 10.7945 259.261 10.7945H256.137V14.1561H256.136Z" fill="#9C9C9C"/>
<path fill-rule="evenodd" clip-rule="evenodd" d="M266.429 0.40625H270.913V18.4531H266.429V0.40625Z" fill="#9C9C9C"/>
<path fill-rule="evenodd" clip-rule="evenodd" d="M278.304 18.7817C273.888 18.7817 271.895 15.5209 271.895 11.881C271.895 8.24122 273.888 5.00562 278.304 5.00562C282.72 5.00562 284.712 8.24122 284.712 11.881C284.712 15.5209 282.72 18.7817 278.304 18.7817ZM278.304 8.6464C276.606 8.6464 276.379 10.491 276.379 11.881C276.379 13.2711 276.606 15.1418 278.304 15.1418C280.002 15.1418 280.229 13.2711 280.229 11.881C280.229 10.491 280.002 8.6464 278.304 8.6464Z" fill="#9C9C9C"/>
<path fill-rule="evenodd" clip-rule="evenodd" d="M292.17 18.7817C287.754 18.7817 285.761 15.5209 285.761 11.881C285.761 8.24122 287.754 5.00562 292.17 5.00562C296.586 5.00562 298.579 8.24122 298.579 11.881C298.579 15.5209 296.586 18.7817 292.17 18.7817ZM292.17 8.6464C290.471 8.6464 290.245 10.491 290.245 11.881C290.245 13.2711 290.471 15.1418 292.17 15.1418C293.868 15.1418 294.095 13.2711 294.095 11.881C294.095 10.491 293.868 8.6464 292.17 8.6464Z" fill="#9C9C9C"/>
<path fill-rule="evenodd" clip-rule="evenodd" d="M300.139 5.33519H304.465V7.079H304.51C305.416 5.56201 306.729 5.00562 308.36 5.00562C309.628 5.00562 310.987 5.73939 311.53 7.0538C311.712 6.90162 312.617 5.00562 315.539 5.00562C318.551 5.00562 319.57 7.332 319.57 9.45482V18.4531H315.086V11.3508C315.086 10.112 314.972 8.99923 313.614 8.99923C312.481 8.99923 312.097 9.98504 312.097 11.3508V18.4531H307.612V11.3508C307.612 10.112 307.5 8.99923 306.141 8.99923C305.008 8.99923 304.623 9.98504 304.623 11.3508V18.4531H300.139V5.33519Z" fill="#9C9C9C"/>
<path fill-rule="evenodd" clip-rule="evenodd" d="M321.22 0.40625H325.704V6.77569H325.748C326.429 5.66387 327.629 5.0057 328.966 5.0057C332.905 5.0057 333.97 8.74729 333.97 11.8307C333.97 15.1167 332.361 18.7808 329.032 18.7808C326.836 18.7808 326.156 17.8463 325.59 17.0118H325.545V18.4531H321.22V0.40625ZM327.515 8.64648C325.907 8.64648 325.545 10.3399 325.545 11.8811C325.545 13.4485 325.907 15.1419 327.515 15.1419C329.124 15.1419 329.486 13.4485 329.486 11.8811C329.486 10.3399 329.124 8.64648 327.515 8.64648Z" fill="#9C9C9C"/>
<path fill-rule="evenodd" clip-rule="evenodd" d="M339.198 13.0181C339.311 14.5098 340.08 15.5713 341.485 15.5713C342.209 15.5713 343.002 15.2679 343.365 14.6359H347.554C346.648 17.4673 344.18 18.7817 341.508 18.7817C337.749 18.7817 334.916 16.305 334.916 11.9324C334.916 8.11521 337.408 5.00562 341.123 5.00562C345.787 5.00562 347.803 7.91262 347.803 13.0181H339.199H339.198ZM343.501 10.4144C343.501 9.20279 342.684 8.21602 341.53 8.21602C340.194 8.21602 339.424 8.99923 339.22 10.4144H343.501Z" fill="#9C9C9C"/>
<path fill-rule="evenodd" clip-rule="evenodd" d="M348.759 5.33518H353.063V7.43183H353.108C353.833 5.86443 354.785 5.00464 356.415 5.00464C356.868 5.00464 357.297 5.08122 357.727 5.2082V9.63026C357.276 9.45384 356.868 9.30263 355.961 9.30263C354.195 9.30263 353.244 10.4648 353.244 13.2701V18.4521H348.759V5.33518Z" fill="#9C9C9C"/>
<path fill-rule="evenodd" clip-rule="evenodd" d="M370.926 16.7597C370.926 19.3633 370.315 23.0273 364.811 23.0273C362.027 23.0273 359.082 22.1937 358.675 18.6557H363.113C363.158 18.7817 363.271 18.9581 363.362 19.1103C363.634 19.5658 364.109 20.0699 364.676 20.0699C366.125 20.0699 366.442 18.1497 366.442 17.0631V15.8495H366.396C365.672 17.0126 364.585 17.6689 363.249 17.6689C359.784 17.6689 358.221 14.788 358.221 11.2742C358.221 7.86222 359.966 5.00562 363.317 5.00562C364.631 5.00562 365.876 5.58721 366.396 6.92779H366.442V5.33519H370.926V16.7597ZM364.721 14.4594C366.375 14.4594 366.556 12.6904 366.556 11.2238C366.556 9.78342 365.922 8.6464 364.608 8.6464C363.34 8.6464 362.706 9.85903 362.706 11.249C362.706 12.7408 363.113 14.4594 364.722 14.4594H364.721Z" fill="#9C9C9C"/>
<path fill-rule="evenodd" clip-rule="evenodd" d="M251.155 19.9265H260.009C264.266 19.9265 265.172 22.6057 265.172 24.4513C265.172 26.2717 264.38 27.2565 263.179 27.9894C264.629 28.5467 265.988 29.835 265.988 32.4899C265.988 36.1036 263.179 37.9744 260.327 37.9744H251.153V19.9265H251.155ZM256.136 26.9541H258.763C259.805 26.9541 260.462 26.6255 260.462 25.4623C260.462 24.5531 259.782 24.2235 258.763 24.2235H256.137V26.9541H256.136ZM256.136 33.6774H259.058C260.1 33.6774 261.006 33.3478 261.006 31.9587C261.006 30.8973 260.439 30.3157 259.261 30.3157H256.137V33.6774H256.136Z" fill="#9C9C9C"/>
<path fill-rule="evenodd" clip-rule="evenodd" d="M278.659 37.9743H274.334V36.3061H274.288C273.45 37.6205 272.25 38.3029 270.46 38.3029C268.354 38.3029 266.429 36.8615 266.429 33.8537V24.8555H270.913V31.7309C270.913 33.2469 271.073 34.3093 272.386 34.3093C273.156 34.3093 274.175 33.8799 274.175 31.7813V24.8555H278.659V37.9753" fill="#9C9C9C"/>
<path fill-rule="evenodd" clip-rule="evenodd" d="M286.676 28.6727C286.667 28.48 286.616 28.2915 286.526 28.121C286.436 27.9505 286.309 27.8022 286.154 27.6869C285.882 27.4396 285.526 27.3042 285.158 27.3079C284.524 27.3079 283.8 27.4591 283.8 28.3189C283.8 28.6969 284.071 28.8743 284.32 29.0013C285.068 29.3551 286.766 29.4569 288.261 30.0113C289.755 30.5435 291.069 31.5293 291.069 33.6773C291.069 37.3171 287.944 38.3029 285.09 38.3029C282.327 38.3029 279.293 37.0641 279.225 33.6773H283.505C283.527 34.1329 283.709 34.5109 284.048 34.8405C284.275 35.0673 284.705 35.2185 285.249 35.2185C285.837 35.2185 286.766 34.9665 286.766 34.2075C286.766 33.4495 286.381 33.2217 284.298 32.8175C280.877 32.1603 279.496 30.9467 279.496 28.6979C279.496 25.3867 282.69 24.5278 285.044 24.5278C287.581 24.5278 290.638 25.311 290.752 28.6727H286.676Z" fill="#9C9C9C"/>
<path fill-rule="evenodd" clip-rule="evenodd" d="M292.17 20.5557H296.654V24.0685H292.17V20.5566V20.5557ZM292.17 24.8556H296.654V37.9754H292.17V24.8556Z" fill="#9C9C9C"/>
<path fill-rule="evenodd" clip-rule="evenodd" d="M297.843 24.8555H302.169V26.5246H302.213C303.052 25.2093 304.252 24.5278 306.041 24.5278C308.147 24.5278 310.072 25.9682 310.072 28.977V37.9743H305.587V31.0999C305.587 29.5819 305.429 28.5215 304.116 28.5215C303.345 28.5215 302.327 28.9509 302.327 31.0485V37.9743H297.843V24.8555Z" fill="#9C9C9C"/>
<path fill-rule="evenodd" clip-rule="evenodd" d="M315.612 32.5403C315.726 34.0301 316.495 35.0925 317.9 35.0925C318.625 35.0925 319.418 34.7891 319.779 34.1571H323.97C323.064 36.9875 320.595 38.3029 317.922 38.3029C314.163 38.3029 311.333 35.8253 311.333 31.4527C311.333 27.6365 313.824 24.5278 317.538 24.5278C322.203 24.5278 324.218 27.4339 324.218 32.5403H315.612ZM319.916 29.9367C319.916 28.7231 319.1 27.7363 317.946 27.7363C316.61 27.7363 315.839 28.5215 315.636 29.9367H319.916Z" fill="#9C9C9C"/>
<path fill-rule="evenodd" clip-rule="evenodd" d="M332.54 28.6727C332.531 28.4801 332.48 28.2918 332.391 28.1214C332.301 27.9509 332.174 27.8025 332.02 27.6869C331.747 27.4395 331.391 27.3042 331.023 27.3079C330.389 27.3079 329.664 27.4591 329.664 28.3189C329.664 28.6969 329.935 28.8743 330.185 29.0013C330.931 29.3551 332.631 29.4569 334.125 30.0113C335.62 30.5435 336.934 31.5293 336.934 33.6773C336.934 37.3171 333.808 38.3029 330.955 38.3029C328.192 38.3029 325.157 37.0641 325.089 33.6773H329.369C329.392 34.1329 329.572 34.5109 329.913 34.8405C330.14 35.0673 330.57 35.2185 331.113 35.2185C331.702 35.2185 332.631 34.9665 332.631 34.2075C332.631 33.4495 332.246 33.2217 330.162 32.8175C326.743 32.1603 325.361 30.9467 325.361 28.6979C325.361 25.3867 328.555 24.5278 330.909 24.5278C333.446 24.5278 336.504 25.311 336.617 28.6727H332.541" fill="#9C9C9C"/>
<path fill-rule="evenodd" clip-rule="evenodd" d="M344.876 28.6727C344.868 28.48 344.817 28.2915 344.726 28.121C344.636 27.9505 344.509 27.8022 344.355 27.6869C344.082 27.4396 343.726 27.3042 343.358 27.3079C342.725 27.3079 342 27.4591 342 28.3189C342 28.6969 342.272 28.8743 342.522 29.0013C343.268 29.3551 344.966 29.4569 346.461 30.0113C347.956 30.5435 349.269 31.5293 349.269 33.6773C349.269 37.3171 346.145 38.3029 343.291 38.3029C340.529 38.3029 337.493 37.0641 337.425 33.6773H341.706C341.729 34.1329 341.909 34.5109 342.248 34.8405C342.475 35.0673 342.906 35.2185 343.449 35.2185C344.039 35.2185 344.966 34.9665 344.966 34.2075C344.966 33.4495 344.582 33.2217 342.498 32.8175C339.079 32.1603 337.697 30.9467 337.697 28.6979C337.697 25.3867 340.89 24.5278 343.246 24.5278C345.783 24.5278 348.839 25.311 348.953 28.6727H344.876Z" fill="#9C9C9C"/>
<path fill-rule="evenodd" clip-rule="evenodd" d="M365.621 37.9743H361.023L359.325 29.9115H359.279L357.535 37.9743H352.939L349.269 24.8555H353.934L355.679 32.9687H355.724L357.218 24.8555H361.408L362.971 32.9687H363.062L364.692 24.8555H369.357L365.621 37.9743Z" fill="#9C9C9C"/>
<path fill-rule="evenodd" clip-rule="evenodd" d="M372.607 32.5403C372.719 34.0301 373.489 35.0925 374.894 35.0925C375.617 35.0925 376.41 34.7891 376.773 34.1571H380.962C380.057 36.9875 377.588 38.3029 374.916 38.3029C371.157 38.3029 368.325 35.8253 368.325 31.4527C368.325 27.6365 370.816 24.5278 374.531 24.5278C379.196 24.5278 381.212 27.4339 381.212 32.5403H372.607ZM376.909 29.9367C376.909 28.7231 376.093 27.7363 374.939 27.7363C373.602 27.7363 372.833 28.5215 372.629 29.9367H376.909Z" fill="#9C9C9C"/>
<path fill-rule="evenodd" clip-rule="evenodd" d="M386.238 32.5403C386.351 34.0301 387.12 35.0925 388.526 35.0925C389.25 35.0925 390.042 34.7891 390.404 34.1571H394.594C393.689 36.9875 391.221 38.3029 388.547 38.3029C384.789 38.3029 381.958 35.8253 381.958 31.4527C381.958 27.6365 384.449 24.5278 388.162 24.5278C392.828 24.5278 394.844 27.4339 394.844 32.5403H386.238ZM390.541 29.9367C390.541 28.7231 389.725 27.7363 388.57 27.7363C387.234 27.7363 386.464 28.5215 386.261 29.9367H390.541Z" fill="#9C9C9C"/>
<path fill-rule="evenodd" clip-rule="evenodd" d="M395.664 19.9265H400.148V28.6475L403.002 24.8555H408.075L403.886 29.8098L408.732 37.9744H403.342L400.941 33.2218L400.148 34.1824V37.9744H395.664V19.9265Z" fill="#9C9C9C"/>
</g>
</g>
<g clip-path="url(#clip4_2_459)">
<g clip-path="url(#clip5_2_459)">
<path fill-rule="evenodd" clip-rule="evenodd" d="M606.787 3.25021C607.137 3.25021 607.483 3.23875 607.483 2.84695C607.483 2.52503 607.212 2.44941 606.931 2.44941H606.408V3.25021H606.787ZM606.408 4.51728H606.124V2.20883H607.012C607.535 2.20883 607.768 2.43338 607.768 2.84695C607.768 3.25479 607.497 3.43809 607.186 3.49079L607.875 4.51728H607.542L606.889 3.49079H606.407V4.51728H606.408ZM605.16 3.36134C605.16 4.31794 605.882 5.0752 606.852 5.0752C607.82 5.0752 608.542 4.31908 608.542 3.36134C608.542 2.40703 607.82 1.64976 606.852 1.64976C605.88 1.64976 605.161 2.40588 605.161 3.36134H605.16ZM608.856 3.36134C608.856 4.48406 607.985 5.36046 606.851 5.36046C606.587 5.36446 606.325 5.31553 606.08 5.21655C605.835 5.11758 605.613 4.97056 605.426 4.7842C605.239 4.59784 605.092 4.37591 604.992 4.13152C604.892 3.88714 604.843 3.62525 604.846 3.36134C604.846 2.24091 605.719 1.3645 606.851 1.3645C607.985 1.3645 608.856 2.24091 608.856 3.36134Z" fill="#9C9C9C"/>
<path fill-rule="evenodd" clip-rule="evenodd" d="M492.716 37.752H529.319V1.29688H492.716V37.752V37.752ZM529.319 37.752H565.92V1.29688H529.319V37.752V37.752ZM565.844 37.752H602.447V1.29688H565.844V37.752V37.752Z" stroke="#9C9C9C" stroke-width="1.53973"/>
<path fill-rule="evenodd" clip-rule="evenodd" d="M514.574 28.8231V18.0667C514.574 16.4789 514.267 15.3207 513.652 14.5886C513.04 13.8611 512.037 13.4945 510.646 13.4945C510.005 13.4945 509.317 13.6744 508.588 14.033C507.858 14.3915 507.287 14.8406 506.877 15.3711V28.8231H502.503V10.1355H505.657L506.462 11.878C507.654 10.5056 509.411 9.81934 511.734 9.81934C513.961 9.81934 515.724 10.4838 517.014 11.8162C518.303 13.1428 518.95 15.001 518.95 17.3782V28.8231H514.574Z" fill="#9C9C9C"/>
<path fill-rule="evenodd" clip-rule="evenodd" d="M547.273 29.192C550.134 29.192 552.39 28.3671 554.045 26.7151C555.697 25.0665 556.522 22.7088 556.522 19.6557C556.522 13.0993 553.534 9.81934 547.554 9.81934C545.952 9.81934 544.603 10.344 543.506 11.3889V10.1355H539.129V36.1207H543.506V28.3705C544.639 28.9159 545.893 29.192 547.272 29.192H547.273ZM546.299 13.5461C548.312 13.5461 549.757 13.9963 550.63 14.8956C551.501 15.7949 551.936 17.345 551.936 19.5503C551.936 21.6125 551.497 23.1247 550.621 24.0824C549.741 25.0368 548.295 25.5168 546.282 25.5168C545.223 25.5168 544.297 25.1983 543.506 24.559V14.7639C544.32 13.9551 545.251 13.5461 546.299 13.5461Z" fill="#9C9C9C"/>
<path fill-rule="evenodd" clip-rule="evenodd" d="M589.064 14.23C588.298 13.7433 587.408 13.4879 586.501 13.4945C585.493 13.4945 584.595 13.9528 583.81 14.8681C583.025 15.7846 582.636 16.9016 582.636 18.2225V28.8231H578.259V10.1355H582.636V11.9204C583.856 10.5193 585.474 9.81934 587.497 9.81934C588.981 9.81934 590.12 10.0473 590.91 10.4998L589.063 14.23" fill="#9C9C9C"/>
</g>
</g>
<g clip-path="url(#clip6_2_459)">
<g clip-path="url(#clip7_2_459)">
<path fill-rule="evenodd" clip-rule="evenodd" d="M768.469 35.4193V32.1409H770.208C771.621 32.2262 772.327 32.8177 772.327 33.9194C772.327 34.4346 772.11 34.8116 771.676 35.0496C771.249 35.2966 770.76 35.4193 770.208 35.4193H768.47M768.47 29.9008V26.8881H769.936C770.339 26.8881 770.678 27.0262 770.954 27.3041C771.262 27.5576 771.427 27.8728 771.451 28.2506C771.451 28.704 771.313 29.0932 771.036 29.4166C770.768 29.7399 770.418 29.9008 769.984 29.9008H768.468M771.45 24.4863H765.439V38.0981H771.45C772.555 38.0136 773.458 37.5781 774.16 36.7933C774.877 36.0003 775.236 35.0586 775.236 33.9649C775.149 32.3481 774.345 31.2325 772.823 30.6174C773.911 29.9471 774.455 28.9112 774.455 27.5121C774.384 26.6882 774.074 25.9992 773.521 25.4451C772.984 24.8982 772.294 24.5789 771.45 24.4863ZM752.661 23.8981V38.0981H755.667V30.9172L764.056 38.5369V24.4863H760.968V31.2057L752.662 23.8981M782.797 23.8981C781.491 23.9421 780.214 24.2942 779.07 24.9259C777.961 25.509 777.019 26.3677 776.337 27.4194C775.651 28.4578 775.284 29.6237 775.237 30.9172C775.237 32.3026 775.572 33.553 776.243 34.6694C776.882 35.7849 777.781 36.6779 778.94 37.3482C780.068 38.0177 781.323 38.4142 782.702 38.5369C782.845 38.5596 783.148 38.5718 783.614 38.5718C784.474 38.5718 785.345 38.4142 786.229 38.0981V34.7961C785.493 35.2253 784.666 35.4708 783.815 35.5119C783.373 35.5119 783.003 35.4811 782.702 35.4193C781.607 35.204 780.715 34.7076 780.029 33.9308C779.319 33.1533 778.964 32.2449 778.964 31.2057C778.964 30.0974 779.343 29.1395 780.1 28.3311C780.888 27.5308 781.851 27.0497 782.987 26.8881C783.507 26.8263 783.827 26.7954 783.945 26.7954C784.569 26.7954 785.329 27.0262 786.229 27.4885V24.4863C785.267 24.0947 784.123 23.8981 782.797 23.8981ZM753.94 13.3802C753.175 13.3802 752.469 13.5996 751.822 14.0384C751.593 14.1765 751.361 14.3617 751.124 14.5925C750.377 15.3595 750.003 16.2784 750 17.3501V17.3761C750.003 18.4405 750.377 19.3529 751.124 20.111C751.48 20.4425 751.842 20.696 752.212 20.8731C752.744 21.155 753.338 21.3018 753.94 21.3005H767.357L756.957 14.4658C756.727 14.3198 756.494 14.1773 756.259 14.0384C756.011 13.8776 755.75 13.7387 755.478 13.6232C755.045 13.4607 754.531 13.3802 753.94 13.3802ZM784.62 13.3802C784.028 13.3802 783.519 13.4615 783.094 13.6232C782.816 13.7335 782.55 13.8727 782.3 14.0384C782.269 14.0546 782.036 14.196 781.603 14.4658L771.203 21.3005H784.62C785.424 21.3005 786.177 21.0543 786.879 20.5611C787.073 20.4215 787.258 20.2712 787.435 20.111L787.542 19.9956C787.967 19.5499 788.276 19.0067 788.442 18.4137C788.504 18.1911 788.539 18.0058 788.547 17.8596C788.564 17.7515 788.572 17.5866 788.572 17.3639C788.572 16.4702 788.323 15.7007 787.826 15.0548C787.709 14.89 787.579 14.7353 787.436 14.5925C787.217 14.3802 786.975 14.1943 786.713 14.0384C786.493 13.8694 786.198 13.715 785.827 13.5769C785.438 13.4481 785.03 13.3817 784.62 13.3802ZM757.499 5.11062C757.203 5.11062 756.897 5.13906 756.578 5.19594C755.924 5.32675 755.371 5.56969 754.921 5.92312C754.717 6.09212 754.539 6.26194 754.389 6.43094C754.283 6.55932 754.181 6.69045 754.082 6.82419C753.822 7.18575 753.637 7.54325 753.526 7.8975C753.336 8.4825 753.305 9.09756 753.431 9.74431C753.558 10.3293 753.746 10.8184 754 11.2109C754.267 11.6334 754.618 11.9844 755.052 12.2614L766.766 20.0777L761.322 7.89831C761.11 7.38237 760.916 6.99644 760.744 6.74294L760.484 6.43094C760.311 6.24363 760.121 6.07356 759.915 5.92312C759.806 5.86341 759.704 5.79378 759.608 5.71513C758.988 5.31212 758.284 5.11062 757.499 5.11062ZM781.05 5.11062C780.265 5.11062 779.565 5.31294 778.953 5.71513C778.81 5.80775 778.708 5.87762 778.644 5.92312C778.446 6.07859 778.261 6.24832 778.088 6.43094C777.995 6.52949 777.908 6.63369 777.828 6.74294C777.592 7.09637 777.339 7.605 777.071 8.26637L771.795 20.0769L783.495 12.2606C783.918 11.9868 784.281 11.6296 784.561 11.2109L784.62 11.1069C784.746 10.907 784.864 10.6413 784.975 10.3106C785.046 10.1107 785.097 9.92225 785.128 9.74431C785.187 9.45171 785.215 9.1538 785.211 8.85544C785.18 8.14775 784.939 7.47013 784.489 6.82419C784.39 6.69045 784.288 6.55932 784.182 6.43094C783.614 5.76956 782.83 5.33177 781.969 5.19594C781.666 5.14055 781.358 5.11201 781.05 5.11062ZM764.905 0H764.881C764.546 0.00203401 764.213 0.0484803 763.89 0.138125C763.661 0.203366 763.436 0.280662 763.215 0.369687C762.191 0.81575 761.489 1.52344 761.11 2.49356L761.051 2.65525C760.696 3.67087 760.723 4.6215 761.134 5.50712L766.86 18.3674L768.765 5.38038C768.883 4.64913 768.931 4.09825 768.907 3.72938C768.899 3.42063 768.824 3.06312 768.682 2.65525C768.633 2.52506 768.585 2.39424 768.54 2.26281C768.115 1.3325 767.349 0.658125 766.245 0.242125C766.132 0.192731 766.012 0.157791 765.89 0.138125C765.57 0.0483653 765.239 0.0019107 764.906 0M773.679 0H773.653C773.321 0.00188557 772.99 0.0483413 772.67 0.138125C772.545 0.160932 772.421 0.195758 772.302 0.242125C771.214 0.658125 770.453 1.33088 770.019 2.26281L769.853 2.65525C769.66 3.19859 769.596 3.77922 769.664 4.35175V4.433H770.753C771.084 4.45656 771.277 4.50612 771.332 4.58331C771.412 4.65969 771.265 4.77994 770.895 4.94081L770.279 5.37956C770.161 5.4795 770.067 5.66069 769.995 5.92231C769.965 6.08983 769.957 6.26055 769.971 6.43013L769.984 6.66169L771.687 18.3674L777.438 5.50631C777.84 4.62231 777.863 3.67169 777.509 2.65444L777.438 2.49356C777.051 1.53156 776.353 0.823875 775.344 0.369687C775.123 0.280564 774.898 0.203267 774.669 0.138125C774.347 0.0486131 774.014 0.0021679 773.679 0" fill="#9C9C9C"/>
</g>
</g>
<defs>
<clipPath id="clip0_2_459">
<rect width="106" height="39" fill="white" transform="translate(57)"/>
</clipPath>
<clipPath id="clip1_2_459">
<rect width="106" height="36.3429" fill="white" transform="translate(57 1.32861)"/>
</clipPath>
<clipPath id="clip2_2_459">
<rect width="158" height="39" fill="white" transform="translate(251)"/>
</clipPath>
<clipPath id="clip3_2_459">
<rect width="158" height="38.773" fill="white" transform="translate(251 0.113525)"/>
</clipPath>
<clipPath id="clip4_2_459">
<rect width="118" height="39" fill="white" transform="translate(491)"/>
</clipPath>
<clipPath id="clip5_2_459">
<rect width="118" height="38.9515" fill="white" transform="translate(491 0.0241699)"/>
</clipPath>
<clipPath id="clip6_2_459">
<rect width="39" height="39" fill="white" transform="translate(750)"/>
</clipPath>
<clipPath id="clip7_2_459">
<rect width="39" height="39" fill="white" transform="translate(750)"/>
</clipPath>
</defs>
</svg>
