<svg width="53" height="53" viewBox="0 0 53 53" fill="none" xmlns="http://www.w3.org/2000/svg">
<path d="M51.8561 40.7168L44.2262 33.087C46.0333 29.5331 46.0552 25.2974 44.2901 21.7278V3.51832C44.2901 1.57821 42.7119 0 40.7718 0H13.2456C11.3054 0 9.72723 1.57821 9.72723 3.51832V6.62298H3.51832C1.57821 6.62298 0 8.20119 0 10.1413V49.4643C0 51.4044 1.57821 52.9826 3.51832 52.9826H34.1492C36.0893 52.9826 37.6676 51.4044 37.6676 49.4643V46.36H40.7718C42.3011 46.36 43.6047 45.3791 44.0888 44.014L46.3236 46.2488C47.0628 46.988 48.045 47.3948 49.0899 47.3948C50.1347 47.3948 51.1173 46.9876 51.8561 46.2488C53.3813 44.7236 53.3813 42.2421 51.8561 40.7168ZM11.7971 3.51832C11.7971 2.71931 12.4469 2.0695 13.2456 2.0695H40.7718C41.5708 2.0695 42.2206 2.71931 42.2206 3.51832V18.7331C42.1155 18.6199 42.0087 18.5079 41.8984 18.3975C40.6521 17.1516 39.2086 16.2208 37.6676 15.6042V10.1413C37.6676 8.20119 36.0893 6.62298 34.1492 6.62298H11.7971V3.51832ZM11.7446 6.62298H11.7304C11.7357 6.60963 11.7401 6.61085 11.7446 6.62298ZM9.79355 6.62298H9.7802C9.78465 6.61166 9.7891 6.61004 9.79355 6.62298ZM35.5976 49.4643C35.5976 50.2633 34.9478 50.9131 34.1492 50.9131H3.51832C2.71931 50.9131 2.0695 50.2633 2.0695 49.4643V10.1413C2.0695 9.34229 2.71931 8.69248 3.51832 8.69248H34.1492C34.9478 8.69248 35.5976 9.34229 35.5976 10.1413V14.9758C31.5444 14.1153 27.147 15.2552 24.0047 18.3975C23.1232 19.279 22.3998 20.2595 21.8333 21.3036H6.62298C6.05122 21.3036 5.58823 21.7666 5.58823 22.3383C5.58823 22.9097 6.05122 23.3731 6.62298 23.3731H20.9401C20.3671 25.1163 20.1819 26.9598 20.3849 28.768H6.62298C6.05122 28.768 5.58823 29.2314 5.58823 29.8028C5.58823 30.3742 6.05122 30.8375 6.62298 30.8375H20.7933C21.3638 32.8359 22.4338 34.7206 24.0047 36.2915C26.4713 38.7581 29.7114 39.9914 32.9515 39.9914C33.8387 39.9914 34.7263 39.898 35.5976 39.7132V49.4643ZM25.4681 34.8278C21.3416 30.7013 21.3416 23.9873 25.4681 19.8608C27.5311 17.7978 30.2415 16.7663 32.9515 16.7663C35.6615 16.7663 38.3719 17.7978 40.435 19.8608C44.5615 23.9873 44.5615 30.7017 40.435 34.8278C36.3085 38.9542 29.5946 38.9542 25.4681 34.8278ZM42.2206 42.8417C42.2206 43.6403 41.5708 44.2901 40.7718 44.2901H37.6676V39.0848C38.0149 38.9457 38.3574 38.7905 38.6938 38.6194L42.2206 42.1458V42.8417ZM50.3927 44.7855C50.0445 45.1336 49.582 45.3253 49.0899 45.3253C48.5978 45.3253 48.1352 45.1336 47.7874 44.7855L40.5005 37.4989C40.9881 37.1358 41.456 36.7339 41.8984 36.2915C42.3407 35.8492 42.7431 35.3813 43.1062 34.8937L50.3927 42.1802C51.1108 42.8983 51.1108 44.0673 50.3927 44.7855Z" fill="#21E4C1"/>
<path d="M36.9361 21.6201C36.5322 21.2162 35.8767 21.2162 35.4728 21.6201L31.8449 25.248L30.4304 23.8336C30.0261 23.4296 29.371 23.4296 28.9671 23.8336L26.1543 26.6459C25.9603 26.84 25.8511 27.1032 25.8511 27.3778C25.8511 27.6523 25.9603 27.9151 26.1543 28.1096L31.1134 33.0683C31.3071 33.2624 31.5703 33.3716 31.8449 33.3716C32.1194 33.3716 32.3827 33.2624 32.5768 33.0683L39.7489 25.8962C39.9429 25.7021 40.0517 25.4389 40.0517 25.1647C40.0517 24.8901 39.9429 24.6269 39.7489 24.4328L36.9361 21.6201ZM31.8449 30.8734L28.3496 27.3778L29.6985 26.0288L31.1134 27.4433C31.5173 27.8472 32.1724 27.8472 32.5768 27.4433L36.2047 23.8154L37.5536 25.1647L31.8449 30.8734Z" fill="#21E4C1"/>
<path d="M6.62289 38.2746H21.1021C21.6739 38.2746 22.1369 37.8112 22.1369 37.2398C22.1369 36.6685 21.6739 36.2051 21.1021 36.2051H6.62289C6.05112 36.2051 5.58813 36.6685 5.58813 37.2398C5.58813 37.8112 6.05112 38.2746 6.62289 38.2746Z" fill="#21E4C1"/>
<path d="M26.505 43.6694C26.2328 43.6694 25.966 43.7802 25.7735 43.9727C25.5798 44.1652 25.4702 44.4321 25.4702 44.7042C25.4702 44.9763 25.5798 45.2432 25.7735 45.4357C25.966 45.6281 26.2316 45.7389 26.505 45.7389C26.7771 45.7389 27.044 45.6281 27.2365 45.4357C27.4289 45.2432 27.5397 44.9763 27.5397 44.7042C27.5397 44.4321 27.4289 44.1652 27.2365 43.9727C27.044 43.7802 26.7771 43.6694 26.505 43.6694Z" fill="#21E4C1"/>
<path d="M22.3455 43.6694H6.62289C6.05112 43.6694 5.58813 44.1328 5.58813 44.7042C5.58813 45.2755 6.05112 45.7389 6.62289 45.7389H22.3455C22.9173 45.7389 23.3807 45.2755 23.3807 44.7042C23.3807 44.1328 22.9173 43.6694 22.3455 43.6694Z" fill="#21E4C1"/>
<path d="M6.62289 15.9362H22.3184C22.8902 15.9362 23.3536 15.4728 23.3536 14.9015C23.3536 14.3301 22.8902 13.8667 22.3184 13.8667H6.62289C6.05112 13.8667 5.58813 14.3301 5.58813 14.9015C5.58813 15.4728 6.05112 15.9362 6.62289 15.9362Z" fill="#21E4C1"/>
</svg>
