<svg width="48" height="48" viewBox="0 0 48 48" fill="none" xmlns="http://www.w3.org/2000/svg">
<path d="M41.6372 32.8915L37.0845 39.4325L33.8717 36.7958C33.5252 36.5094 33.0118 36.5615 32.7271 36.908C32.4415 37.2554 32.4919 37.7688 32.8401 38.0527L36.7338 41.2492C36.8803 41.3696 37.0625 41.4347 37.2496 41.4347C37.2862 41.4347 37.3237 41.4322 37.3611 41.4266C37.5856 41.3956 37.7874 41.272 37.9176 41.0857L42.973 33.8214C43.2293 33.4529 43.139 32.946 42.7696 32.6889C42.3995 32.4294 41.8934 32.5221 41.6372 32.8915Z" fill="#21E4C1"/>
<path d="M42.3051 28.0507V12.2034V4.0678C42.3051 3.6179 41.9406 3.25424 41.4915 3.25424H37.4237V0.813559C37.4237 0.363661 37.0593 0 36.6102 0H30.9153C30.4662 0 30.1017 0.363661 30.1017 0.813559V3.25424H12.2034V0.813559C12.2034 0.363661 11.8389 0 11.3898 0H5.69491C5.24583 0 4.88136 0.363661 4.88136 0.813559V3.25424H0.813559C0.364475 3.25424 0 3.6179 0 4.0678V12.2034V45.5593C0 46.0092 0.364475 46.3729 0.813559 46.3729H31.8134C33.4422 47.398 35.3622 48 37.4237 48C43.2553 48 48 43.2553 48 37.4237C48 33.3535 45.6846 29.8178 42.3051 28.0507ZM31.7288 1.62712H35.7966V4.0678V6.50847H31.7288V4.0678V1.62712ZM6.50847 1.62712H10.5763V4.0678V6.50847H6.50847V4.0678V1.62712ZM1.62712 4.88136H4.88136V7.32203C4.88136 7.77193 5.24583 8.13559 5.69491 8.13559H11.3898C11.8389 8.13559 12.2034 7.77193 12.2034 7.32203V4.88136H30.1017V7.32203C30.1017 7.77193 30.4662 8.13559 30.9153 8.13559H36.6102C37.0593 8.13559 37.4237 7.77193 37.4237 7.32203V4.88136H40.678V11.3898H1.62712V4.88136ZM1.62712 44.7458V13.0169H40.678V27.3649C40.5185 27.3136 40.3558 27.2721 40.1931 27.2274C40.0426 27.1859 39.8921 27.1452 39.7399 27.1102C39.6024 27.0793 39.4633 27.0525 39.3242 27.0273C39.1257 26.9906 38.9264 26.9605 38.7262 26.9353C38.6148 26.9215 38.5041 26.906 38.3919 26.8955C38.0713 26.867 37.7483 26.8475 37.4237 26.8475C37.1487 26.8475 36.8795 26.8678 36.6102 26.8889V26.0339V24.4068V17.0847H29.2881H27.661H21.9661H20.339H14.6441H13.0169H5.69491V24.4068V26.0339V31.7288V33.3559V40.678H13.0169H14.6441H20.339H21.9661H27.3649C27.3885 40.7496 27.4178 40.8187 27.4422 40.8895C27.5105 41.0872 27.578 41.2857 27.6586 41.4785C27.7033 41.5867 27.7562 41.69 27.805 41.7958C27.8986 42.0024 27.9938 42.2083 28.1003 42.4084C28.1475 42.4955 28.2004 42.5793 28.25 42.6655C28.3704 42.8762 28.4925 43.0845 28.6275 43.2862C28.6772 43.3603 28.7317 43.4302 28.7829 43.5035C28.9261 43.7068 29.0725 43.9086 29.2312 44.1022C29.2898 44.1738 29.3532 44.2405 29.4134 44.3105C29.5395 44.4569 29.6599 44.6066 29.7942 44.7466H1.62712V44.7458ZM32.797 27.9279C32.7092 27.9702 32.6197 28.01 32.5334 28.0548C32.3805 28.1345 32.2324 28.2224 32.0843 28.3094C31.955 28.3851 31.8256 28.4624 31.6995 28.5429C31.5718 28.6259 31.4473 28.7105 31.3237 28.7984C31.1829 28.8976 31.0462 29.0018 30.9104 29.1075C30.8014 29.1929 30.6923 29.2776 30.5874 29.3679C30.445 29.4883 30.3092 29.616 30.1733 29.7437C30.0797 29.8324 29.9829 29.9178 29.8926 30.0089C29.7454 30.1586 29.6062 30.3173 29.4679 30.4759C29.4094 30.5435 29.3451 30.6053 29.2873 30.6744V26.0339H34.9822V27.142C34.9684 27.1452 34.9554 27.1501 34.9424 27.1534C34.1931 27.3348 33.4755 27.5959 32.797 27.9279ZM27.3112 34.3314C27.2827 34.4249 27.264 34.5209 27.238 34.6153C27.1729 34.8513 27.1062 35.0872 27.0574 35.3304C27.0191 35.5184 26.998 35.7104 26.9703 35.9007C26.9483 36.0545 26.9174 36.2058 26.9012 36.362C26.8662 36.7127 26.8475 37.0674 26.8475 37.4237C26.8475 37.7174 26.8637 38.0144 26.8906 38.3121C26.8955 38.3666 26.8955 38.422 26.9012 38.4765C26.9142 38.6083 26.9402 38.736 26.9581 38.8662V38.867C26.9671 38.9288 26.9703 38.9898 26.9801 39.0508H21.9661V33.3559H27.661V33.3616C27.6529 33.3812 27.648 33.4015 27.6399 33.421C27.5178 33.718 27.4064 34.0214 27.3112 34.3314ZM7.32203 33.3559H13.0169V39.0508H7.32203V33.3559ZM7.32203 26.0339H13.0169V31.7288H7.32203V26.0339ZM34.9831 24.4068H29.2881V18.7119H34.9831V24.4068ZM27.661 24.4068H21.9661V18.7119H27.661V24.4068ZM27.661 31.7288H21.9661V26.0339H27.661V31.7288ZM14.6441 26.0339H20.339V31.7288H14.6441V26.0339ZM20.339 24.4068H14.6441V18.7119H20.339V24.4068ZM13.0169 24.4068H7.32203V18.7119H13.0169V24.4068ZM14.6441 33.3559H20.339V39.0508H14.6441V33.3559ZM37.4237 46.3729C35.5867 46.3729 33.8774 45.8148 32.4553 44.8613C32.1779 44.6758 31.9159 44.474 31.6645 44.2625C31.5767 44.1877 31.4937 44.1079 31.4091 44.0298C31.2488 43.8842 31.0934 43.7345 30.9454 43.5791C30.8502 43.479 30.7582 43.3774 30.6679 43.274C30.5345 43.1203 30.4092 42.9616 30.2872 42.7997C30.2091 42.6964 30.1285 42.5963 30.0545 42.4898C29.8747 42.2286 29.7055 41.9601 29.5542 41.6819C29.5192 41.6168 29.4915 41.5485 29.4582 41.4826C29.3394 41.2499 29.2287 41.014 29.1303 40.7715C29.088 40.6658 29.0514 40.5576 29.0123 40.4502C28.9359 40.237 28.8659 40.0206 28.8049 39.8018C28.791 39.7513 28.7788 39.7009 28.7658 39.6504C28.6739 39.2925 28.6064 38.9369 28.5584 38.583C28.5551 38.5578 28.5502 38.5326 28.547 38.5066C28.4998 38.1413 28.4746 37.7793 28.4746 37.4237C28.4746 37.1154 28.49 36.8095 28.5218 36.506C28.5242 36.4808 28.5307 36.4564 28.5331 36.4312C28.5641 36.1538 28.6047 35.8772 28.6617 35.6046C28.6674 35.5786 28.6763 35.5534 28.682 35.5273C28.7406 35.2572 28.8098 34.9887 28.8936 34.7235C28.9033 34.6926 28.9172 34.6625 28.9269 34.6316C29.0107 34.3778 29.1035 34.1256 29.2108 33.8782C29.3117 33.6456 29.4207 33.4169 29.5403 33.1948L29.6209 33.0557C29.6534 32.9972 29.6917 32.9418 29.7258 32.8841C29.8674 32.6457 30.0187 32.4146 30.179 32.1917C30.2188 32.1364 30.2603 32.0819 30.3018 32.0274C30.4483 31.8338 30.6028 31.6475 30.7639 31.4677C30.8201 31.405 30.8762 31.3416 30.934 31.2805C31.0934 31.1113 31.261 30.951 31.4327 30.7957C31.4937 30.7403 31.5531 30.6834 31.6157 30.6297C31.8175 30.4572 32.0266 30.2953 32.2422 30.1416C32.2763 30.1172 32.3089 30.0903 32.3431 30.0659C33.4047 29.3321 34.6243 28.8293 35.9325 28.6096L35.9496 28.6072C36.4296 28.5266 36.9201 28.4746 37.4237 28.4746C37.7402 28.4746 38.055 28.4917 38.3675 28.5258C38.4163 28.5307 38.4635 28.5421 38.5123 28.5478C38.7791 28.5812 39.0452 28.621 39.3079 28.678C39.3405 28.6853 39.3714 28.695 39.4031 28.7024C39.683 28.7666 39.9604 28.8415 40.2346 28.9334C40.2533 28.9399 40.2712 28.9473 40.2899 28.9538C40.5706 29.0498 40.8472 29.1596 41.1214 29.2841C44.2145 30.6948 46.3729 33.8091 46.3729 37.4237C46.3729 42.358 42.358 46.3729 37.4237 46.3729Z" fill="#21E4C1"/>
</svg>
