<svg width="48" height="53" viewBox="0 0 48 53" fill="none" xmlns="http://www.w3.org/2000/svg">
<path d="M39.7499 38.8668C39.7499 39.8424 38.9589 40.6334 37.9832 40.6334C37.0076 40.6334 36.2166 39.8424 36.2166 38.8668C36.2166 37.8911 37.0076 37.1001 37.9832 37.1001C38.9589 37.1001 39.7499 37.8911 39.7499 38.8668Z" fill="#21E4C1"/>
<path d="M45.05 30.0332H44.1667V25.6166C44.1649 24.1535 42.9797 22.9683 41.5167 22.9666H2.65C1.18698 22.9683 0.00172526 24.1535 0 25.6166V50.3499C0.00172526 51.8129 1.18698 52.9982 2.65 52.9999H41.5167C42.9797 52.9982 44.1649 51.8129 44.1667 50.3499V44.1666H45.05C46.513 44.1648 47.6983 42.9796 47.7 41.5166V32.6832C47.6983 31.2202 46.513 30.0349 45.05 30.0332ZM42.4 50.3499C42.3996 50.8373 42.0041 51.2328 41.5167 51.2332H2.65C2.16261 51.2328 1.7671 50.8373 1.76667 50.3499V25.6166C1.7671 25.1292 2.16261 24.7337 2.65 24.7332H41.5167C42.0041 24.7337 42.3996 25.1292 42.4 25.6166V33.5666H35.3333C33.8703 33.5683 32.6851 34.7535 32.6833 36.2166V41.5166C32.6851 42.9796 33.8703 44.1648 35.3333 44.1666H42.4V50.3499ZM45.9333 41.5166C45.9329 42.0039 45.5374 42.3995 45.05 42.3999H35.3333C34.8459 42.3995 34.4504 42.0039 34.45 41.5166V36.2166C34.4504 35.7292 34.8459 35.3337 35.3333 35.3332H45.9333V41.5166ZM44.1667 33.5666V31.7999H45.05C45.5374 31.8003 45.9329 32.1958 45.9333 32.6832V33.5666H44.1667Z" fill="#21E4C1"/>
<path d="M25.6168 6.99636C28.3246 6.60128 30.4514 4.47446 30.8465 1.76667H34.5204C34.9155 4.47446 37.0423 6.60128 39.7501 6.99636V21.2H41.5168V2.65C41.515 1.18698 40.3298 0.00172526 38.8668 0H26.5001C25.0371 0.00172526 23.8518 1.18698 23.8501 2.65V21.2H25.6168V6.99636ZM38.8668 1.76667C39.3542 1.7671 39.7497 2.16261 39.7501 2.65V5.21115C38.0171 4.85402 36.6627 3.49969 36.3056 1.76667H38.8668ZM25.6168 2.65C25.6172 2.16261 26.0127 1.7671 26.5001 1.76667H29.0612C28.7041 3.49969 27.3498 4.85402 25.6168 5.21115V2.65Z" fill="#21E4C1"/>
<path d="M27.3833 14.1333C27.3833 17.0602 29.7564 19.4333 32.6833 19.4333C35.6102 19.4333 37.9833 17.0602 37.9833 14.1333C37.9833 11.2063 35.6102 8.83325 32.6833 8.83325C29.7577 8.83627 27.3863 11.2076 27.3833 14.1333ZM36.2166 14.1333C36.2166 16.0845 34.6346 17.6666 32.6833 17.6666C30.732 17.6666 29.15 16.0845 29.15 14.1333C29.15 12.182 30.732 10.5999 32.6833 10.5999C34.6337 10.6021 36.2145 12.1828 36.2166 14.1333Z" fill="#21E4C1"/>
<path d="M15.0167 12.2964C17.7245 11.9013 19.8513 9.77451 20.2464 7.06672H22.0833V5.30005H15.9C14.437 5.30177 13.2517 6.48703 13.25 7.95005V21.2H15.0167V12.2964ZM15.0167 7.95005C15.0171 7.46266 15.4126 7.06715 15.9 7.06672H18.4611C18.104 8.79974 16.7497 10.1541 15.0167 10.5112V7.95005Z" fill="#21E4C1"/>
<path d="M4.41657 17.5965C7.12437 17.2014 9.25118 15.0746 9.64627 12.3668H11.4832V10.6001H5.2999C3.83688 10.6018 2.65163 11.7871 2.6499 13.2501V21.2001H4.41657V17.5965ZM4.41657 13.2501C4.417 12.7627 4.81252 12.3672 5.2999 12.3668H7.86105C7.50392 14.0998 6.14959 15.4541 4.41657 15.8112V13.2501Z" fill="#21E4C1"/>
<path d="M16.7834 21.1999H18.5501C18.5523 19.2495 20.133 17.6687 22.0834 17.6666V15.8999C19.1578 15.9029 16.7865 18.2743 16.7834 21.1999Z" fill="#21E4C1"/>
</svg>
