<svg width="50" height="53" viewBox="0 0 50 53" fill="none" xmlns="http://www.w3.org/2000/svg">
<path d="M26.3595 33.5568C27.2791 33.4853 28.1173 33.0162 28.6615 32.268L36.9321 20.8342C37.1856 20.4835 37.1477 19.9994 36.8403 19.692C36.5329 19.3855 36.0488 19.3475 35.6981 19.6002L24.2625 27.8735C23.5169 28.4158 23.0479 29.2541 22.9763 30.1737C22.9048 31.0932 23.2378 31.9933 23.8888 32.6444C24.4815 33.238 25.281 33.5665 26.1122 33.5665C26.1943 33.5665 26.2765 33.563 26.3595 33.5568ZM24.7377 30.3115C24.7686 29.9078 24.9753 29.5394 25.3004 29.3027L32.2761 24.2562L27.2314 31.2301C26.9929 31.5578 26.6245 31.7637 26.2208 31.7955C25.8189 31.822 25.4241 31.6824 25.137 31.3953C24.8525 31.11 24.7059 30.7143 24.7377 30.3115Z" fill="#21E4C1"/>
<path d="M46.1461 17.2815C46.1373 17.263 46.1373 17.2435 46.1276 17.225C46.117 17.2073 46.1002 17.1976 46.0887 17.1808C45.1956 15.6491 44.1392 14.2243 42.9396 12.9329L44.837 11.0364L46.086 12.2854L49.8331 8.53742L46.086 4.79032L42.3381 8.53742L43.588 9.78733L41.6906 11.6839C40.3991 10.4843 38.9752 9.42693 37.4426 8.53388C37.4258 8.5224 37.4161 8.50562 37.3985 8.49502C37.3799 8.48442 37.3605 8.4853 37.3419 8.47558C34.6098 6.90148 31.5402 5.85297 28.2674 5.46872V4.41667H29.5924C30.8106 4.41667 31.8008 3.42645 31.8008 2.20833C31.8008 0.990217 30.8097 0 29.5916 0H21.6416C20.4234 0 19.4332 0.990217 19.4332 2.20833C19.4332 3.42645 20.4234 4.41667 21.6416 4.41667H22.9666V5.4378C22.0126 5.53938 21.0603 5.69485 20.1187 5.91038C19.6435 6.01903 19.3458 6.49338 19.4553 6.96862C19.564 7.44385 20.0383 7.74242 20.5135 7.632C21.3262 7.44562 22.1468 7.30517 22.9692 7.21065L23.917 7.13733C24.2068 7.11525 24.4735 7.09935 24.7332 7.08698V8.83333C24.7332 9.32182 25.1281 9.71667 25.6166 9.71667C26.105 9.71667 26.4999 9.32182 26.4999 8.83333V7.09317C29.8221 7.24598 32.9526 8.13815 35.736 9.60625L34.8651 11.1141C34.6213 11.5372 34.7661 12.0769 35.1884 12.3207C35.327 12.4011 35.479 12.4391 35.6291 12.4391C35.9348 12.4391 36.2316 12.281 36.395 11.9974L37.2633 10.4931C40.0273 12.2465 42.3752 14.5944 44.1286 17.3584L42.6243 18.2267C42.2029 18.4705 42.058 19.0102 42.3027 19.4333C42.467 19.7169 42.7629 19.875 43.0686 19.875C43.2187 19.875 43.3707 19.837 43.5094 19.7566L45.0172 18.8857C46.5056 21.7088 47.4004 24.8906 47.5338 28.2658H45.7892C45.3008 28.2658 44.9059 28.6606 44.9059 29.1491C44.9059 29.6376 45.3008 30.0324 45.7892 30.0324H47.5338C47.4004 33.4077 46.5056 36.5894 45.0172 39.4126L43.5094 38.5416C43.0871 38.2978 42.5465 38.4409 42.3027 38.8649C42.0589 39.288 42.2038 39.8277 42.626 40.0715L44.1303 40.9398C42.3769 43.7038 40.029 46.0517 37.2651 47.8051L36.3968 46.3008C36.1521 45.8768 35.6106 45.7328 35.1901 45.9775C34.767 46.2213 34.6221 46.7619 34.8668 47.1841L35.7378 48.692C32.9544 50.1601 29.8239 51.0522 26.5017 51.2051V49.4667C26.5017 48.9782 26.1068 48.5833 25.6183 48.5833C25.1298 48.5833 24.735 48.9782 24.735 49.4667V51.2121C23.3243 51.1636 21.9092 50.9869 20.5162 50.6671C20.041 50.5532 19.5666 50.8553 19.458 51.3305C19.3484 51.8057 19.6461 52.2801 20.1213 52.3887C21.8845 52.7951 23.6856 53 25.4726 53C25.5159 53 25.5574 52.9973 25.6007 52.9965C25.6068 52.9965 25.6113 53 25.6166 53C25.6236 53 25.6298 52.9956 25.6369 52.9956C29.8831 52.9664 33.8669 51.8199 37.3137 49.8394C37.341 49.8271 37.3702 49.8209 37.3967 49.805C37.4144 49.7944 37.4241 49.7776 37.4409 49.7661C41.0086 47.6867 43.9899 44.709 46.0737 41.1439C46.0905 41.12 46.1117 41.1015 46.1267 41.075C46.1373 41.0564 46.1364 41.037 46.1452 41.0185C48.1628 37.5205 49.3226 33.4695 49.3226 29.15C49.3226 24.8305 48.1628 20.7795 46.1461 17.2815ZM46.0852 7.28838L47.3342 8.53742L46.0852 9.78733L44.8352 8.53742L46.0852 7.28838ZM24.7332 5.31855V2.65H21.6416C21.3986 2.65 21.1999 2.45125 21.1999 2.20833C21.1999 1.96542 21.3986 1.76667 21.6416 1.76667H29.5916C29.8345 1.76667 30.0332 1.96542 30.0332 2.20833C30.0332 2.45125 29.8345 2.65 29.5916 2.65H26.4999V5.31855C26.1925 5.30618 25.8992 5.3 25.6166 5.3C25.5918 5.3 25.5636 5.30177 25.5388 5.30177C25.5167 5.30177 25.4947 5.3 25.4726 5.3C25.3277 5.3 25.1828 5.30972 25.038 5.31237C24.9355 5.31502 24.8392 5.31413 24.7332 5.31855Z" fill="#21E4C1"/>
<path d="M17.6667 12.3667H13.25C12.7615 12.3667 12.3667 12.7615 12.3667 13.25C12.3667 13.7385 12.7615 14.1334 13.25 14.1334H17.6667C18.1552 14.1334 18.55 13.7385 18.55 13.25C18.55 12.7615 18.1552 12.3667 17.6667 12.3667Z" fill="#21E4C1"/>
<path d="M17.6669 18.55H8.83353C8.34505 18.55 7.9502 18.9449 7.9502 19.4334C7.9502 19.9219 8.34505 20.3167 8.83353 20.3167H17.6669C18.1553 20.3167 18.5502 19.9219 18.5502 19.4334C18.5502 18.9449 18.1553 18.55 17.6669 18.55Z" fill="#21E4C1"/>
<path d="M17.6665 24.7334H4.41654C3.92805 24.7334 3.5332 25.1282 3.5332 25.6167C3.5332 26.1052 3.92805 26.5001 4.41654 26.5001H17.6665C18.155 26.5001 18.5499 26.1052 18.5499 25.6167C18.5499 25.1282 18.155 24.7334 17.6665 24.7334Z" fill="#21E4C1"/>
<path d="M17.6667 30.9167H0.883333C0.39485 30.9167 0 31.3116 0 31.8001C0 32.2886 0.39485 32.6834 0.883333 32.6834H17.6667C18.1552 32.6834 18.55 32.2886 18.55 31.8001C18.55 31.3116 18.1552 30.9167 17.6667 30.9167Z" fill="#21E4C1"/>
<path d="M17.6665 37.1001H6.18314C5.69465 37.1001 5.2998 37.4949 5.2998 37.9834C5.2998 38.4719 5.69465 38.8668 6.18314 38.8668H17.6665C18.155 38.8668 18.5498 38.4719 18.5498 37.9834C18.5498 37.4949 18.155 37.1001 17.6665 37.1001Z" fill="#21E4C1"/>
<path d="M17.6668 43.2834H11.4834C10.9949 43.2834 10.6001 43.6783 10.6001 44.1668C10.6001 44.6553 10.9949 45.0501 11.4834 45.0501H17.6668C18.1552 45.0501 18.5501 44.6553 18.5501 44.1668C18.5501 43.6783 18.1552 43.2834 17.6668 43.2834Z" fill="#21E4C1"/>
</svg>
