<svg width="43" height="43" viewBox="0 0 43 43" fill="none" xmlns="http://www.w3.org/2000/svg">
<path d="M0 0V43H43V0H0ZM41.5667 41.5667H1.43333V1.43333H41.5667V41.5667Z" fill="#21E4C1"/>
<path d="M34.9066 9.10663L9.10663 34.9066L8.09326 33.8933L33.8933 8.09326L34.9066 9.10663Z" fill="#21E4C1"/>
<path d="M12.1833 16.4833C14.5548 16.4833 16.4833 14.5548 16.4833 12.1833C16.4833 9.81185 14.5548 7.8833 12.1833 7.8833C9.81185 7.8833 7.8833 9.81185 7.8833 12.1833C7.8833 14.5548 9.81185 16.4833 12.1833 16.4833ZM12.1833 9.31663C13.7643 9.31663 15.05 10.6023 15.05 12.1833C15.05 13.7643 13.7643 15.05 12.1833 15.05C10.6023 15.05 9.31663 13.7643 9.31663 12.1833C9.31663 10.6023 10.6023 9.31663 12.1833 9.31663Z" fill="#21E4C1"/>
<path d="M30.8166 26.5166C28.4452 26.5166 26.5166 28.4452 26.5166 30.8166C26.5166 33.1881 28.4452 35.1166 30.8166 35.1166C33.1881 35.1166 35.1166 33.1881 35.1166 30.8166C35.1166 28.4452 33.1881 26.5166 30.8166 26.5166ZM30.8166 33.6833C29.2356 33.6833 27.9499 32.3976 27.9499 30.8166C27.9499 29.2356 29.2356 27.9499 30.8166 27.9499C32.3976 27.9499 33.6833 29.2356 33.6833 30.8166C33.6833 32.3976 32.3976 33.6833 30.8166 33.6833Z" fill="#21E4C1"/>
</svg>
