<svg width="880" height="39" viewBox="0 0 880 39" fill="none" xmlns="http://www.w3.org/2000/svg">
<g clip-path="url(#clip0_1_27)">
<g clip-path="url(#clip1_1_27)">
<path fill-rule="evenodd" clip-rule="evenodd" d="M111.007 24.2851H109.447C109.308 24.2851 109.256 24.1564 109.193 24.0307L107.353 20.9363H107.071C106.737 20.9363 105.705 20.8999 105.411 20.8863V24.0307C105.411 24.17 105.308 24.2859 105.169 24.2859H103.889C103.822 24.2851 103.758 24.2579 103.71 24.2101C103.663 24.1624 103.636 24.0979 103.636 24.0307V15.6681C103.636 15.4122 103.788 15.3221 104.045 15.2872C104.709 15.1843 106.137 15.1207 107.071 15.1207C109.037 15.1207 110.853 15.8233 110.853 18.0054V18.1197C110.853 19.4697 110.177 20.2102 109.129 20.616L111.133 24.0307C111.16 24.0686 111.16 24.1049 111.16 24.1337C111.16 24.2193 111.108 24.2851 111.007 24.2851ZM109.091 18.0046C109.091 17.0476 108.348 16.6395 107.07 16.6395C106.802 16.6395 105.64 16.6652 105.412 16.6902V19.4553C105.615 19.4689 106.85 19.4939 107.07 19.4939C108.385 19.4939 109.091 19.2426 109.091 18.1197V18.0046ZM114.566 21.7722C114.566 22.842 114.606 22.87 115.572 22.87H118.805C118.946 22.87 119.061 22.9836 119.061 23.1244V23.9399C119.061 24.1193 118.996 24.1829 118.806 24.2079C118.397 24.2723 117.564 24.3866 116.045 24.3866C113.925 24.3866 112.802 24.4002 112.802 21.7722V17.7358C112.802 15.107 113.925 15.1214 116.045 15.1214C117.565 15.1214 118.397 15.2373 118.806 15.2994C118.995 15.3228 119.061 15.3887 119.061 15.5689V16.3836C119.061 16.4515 119.034 16.5166 118.986 16.5648C118.938 16.613 118.873 16.6404 118.806 16.641H115.572C114.606 16.641 114.565 16.6683 114.565 17.7358V18.9041H118.653C118.72 18.9047 118.785 18.9318 118.832 18.9795C118.88 19.0272 118.907 19.0918 118.908 19.1593V20.0807C118.908 20.1483 118.881 20.2131 118.833 20.2609C118.785 20.3087 118.72 20.3357 118.653 20.3359H114.566V21.7714V21.7722ZM124.795 24.3866C122.74 24.3866 120.971 23.4932 120.971 20.775V15.4644C120.971 15.3213 121.088 15.2221 121.227 15.2221H122.489C122.631 15.2221 122.745 15.3213 122.745 15.4644V20.7735C122.745 22.2287 123.419 22.9192 124.795 22.9192C126.176 22.9192 126.848 22.2287 126.848 20.7735V15.4644C126.848 15.3213 126.963 15.2221 127.102 15.2221H128.367C128.508 15.2221 128.624 15.3213 128.624 15.4644V20.7735C128.624 23.4916 126.852 24.3851 124.795 24.3851V24.3866ZM137.022 16.7008H134.473V24.03C134.472 24.0979 134.445 24.1627 134.397 24.2106C134.349 24.2584 134.284 24.2855 134.216 24.2859H132.952C132.884 24.2855 132.82 24.2585 132.772 24.2108C132.724 24.163 132.697 24.0983 132.696 24.0307V16.7008H130.146C130.007 16.7008 129.893 16.6122 129.893 16.4729V15.4644C129.893 15.3213 130.007 15.2221 130.146 15.2221H137.022C137.159 15.2221 137.274 15.3213 137.274 15.4644V16.4714C137.274 16.6115 137.16 16.7001 137.022 16.7001V16.7008ZM154.365 24.2859H152.805C152.666 24.2859 152.616 24.1572 152.551 24.0307L150.712 20.9363H150.427C150.097 20.9363 149.063 20.8999 148.767 20.8863V24.0307C148.767 24.17 148.667 24.2859 148.526 24.2859H147.251C147.184 24.2855 147.119 24.2585 147.071 24.2108C147.023 24.163 146.996 24.0983 146.996 24.0307V15.6681C146.996 15.4122 147.147 15.3221 147.403 15.2872C148.066 15.1843 149.497 15.1207 150.428 15.1207C152.395 15.1207 154.21 15.8233 154.21 18.0054V18.1197C154.21 19.4697 153.533 20.2102 152.486 20.616L154.493 24.0307C154.518 24.0686 154.518 24.1049 154.518 24.1337C154.518 24.2193 154.467 24.2851 154.366 24.2851L154.365 24.2859ZM152.449 18.0046C152.449 17.0476 151.705 16.6395 150.427 16.6395C150.16 16.6395 148.997 16.6652 148.767 16.6902V19.4553C148.974 19.4689 150.213 19.4939 150.427 19.4939C151.744 19.4939 152.45 19.2426 152.45 18.1197V18.0046H152.449ZM159.238 24.3942C158.11 24.3942 156.966 24.1988 156.352 24.0572C156.226 24.0322 156.11 23.9437 156.11 23.8036V22.8844C156.11 22.7443 156.226 22.6406 156.352 22.6406H156.378C156.889 22.705 158.085 22.87 159.265 22.87C160.401 22.87 160.749 22.465 160.749 21.7245C160.749 20.7682 158.462 20.239 157.346 19.7801C156.236 19.3205 155.841 18.44 155.841 17.5496C155.841 16.1451 156.972 15.1237 159.348 15.1237C160.565 15.1237 161.679 15.3546 162.113 15.4591C162.242 15.4849 162.343 15.575 162.343 15.7006V16.6448C162.343 16.772 162.255 16.8757 162.125 16.8757H162.1C161.258 16.7985 160.383 16.644 159.273 16.644C158.327 16.644 157.618 16.9742 157.618 17.5496C157.618 17.969 158.099 18.3552 158.667 18.5785C159.232 18.8034 159.977 19.0934 160.824 19.4334C161.902 19.868 162.599 20.5009 162.599 21.7245C162.599 23.0131 161.795 24.3934 159.238 24.3934V24.3942ZM140.354 21.7714C140.354 22.8413 140.392 22.8693 141.361 22.8693H144.595C144.732 22.8693 144.849 22.9828 144.849 23.1237V23.9391C144.849 24.1186 144.784 24.1822 144.595 24.2071C144.184 24.2715 143.354 24.3858 141.834 24.3858C139.711 24.3858 138.589 24.3995 138.589 21.7714V17.7358C138.589 15.107 139.711 15.1214 141.834 15.1214C143.354 15.1214 144.184 15.2373 144.595 15.2994C144.784 15.3228 144.849 15.3887 144.849 15.5689V16.3836C144.849 16.5229 144.732 16.641 144.595 16.641H141.361C140.392 16.641 140.354 16.6683 140.354 17.7358V18.9041H144.439C144.582 18.9041 144.694 19.0215 144.694 19.1593V20.0807C144.694 20.1142 144.688 20.1474 144.675 20.1784C144.662 20.2094 144.643 20.2376 144.62 20.2613C144.596 20.285 144.568 20.3038 144.537 20.3166C144.506 20.3294 144.473 20.336 144.439 20.3359H140.354V21.7714Z" fill="#9C9C9C"/>
<path fill-rule="evenodd" clip-rule="evenodd" d="M84.005 12.9658C83.7795 13.2032 83.4691 13.3415 83.1417 13.3503C82.8144 13.3591 82.497 13.2377 82.259 13.0128C82.1406 12.9019 82.0453 12.7687 81.9786 12.6208C81.912 12.473 81.8753 12.3133 81.8707 12.1512C81.8662 11.989 81.8938 11.8276 81.952 11.6762C82.0102 11.5248 82.0978 11.3864 82.2098 11.2691C82.3206 11.1505 82.4537 11.055 82.6015 10.988C82.7493 10.921 82.9089 10.884 83.0711 10.8789C83.2333 10.8738 83.3949 10.9009 83.5466 10.9585C83.6983 11.0161 83.8371 11.1031 83.955 11.2146C84.4517 11.684 84.4744 12.4623 84.005 12.9666V12.9658ZM71.6855 10.1568C71.5668 10.0474 71.4098 9.9889 71.2484 9.994C71.087 9.9991 70.934 10.0674 70.8224 10.1841C70.7122 10.3015 70.653 10.4578 70.6575 10.6187C70.662 10.7797 70.73 10.9324 70.8466 11.0434C70.9043 11.1011 70.9729 11.1467 71.0484 11.1774C71.124 11.2081 71.2049 11.2234 71.2865 11.2223C71.368 11.2212 71.4485 11.2038 71.5232 11.171C71.5979 11.1383 71.6653 11.0909 71.7214 11.0317C71.7775 10.9725 71.8211 10.9026 71.8498 10.8263C71.8784 10.7499 71.8914 10.6686 71.8881 10.5871C71.8847 10.5056 71.8651 10.4256 71.8303 10.3518C71.7955 10.2781 71.7463 10.212 71.6855 10.1576V10.1568ZM74.7739 8.98477C74.6284 8.84792 74.4345 8.77446 74.2349 8.78057C74.0353 8.78667 73.8462 8.87184 73.7094 9.01732C73.5725 9.16281 73.4991 9.3567 73.5052 9.55634C73.5113 9.75598 73.5965 9.94501 73.7419 10.0819C73.8875 10.2187 74.0815 10.2921 74.2812 10.2859C74.4809 10.2798 74.67 10.1945 74.8069 10.0489C74.9437 9.90334 75.0171 9.70936 75.0109 9.50965C75.0048 9.30994 74.9195 9.12086 74.7739 8.98401V8.98477ZM78.0864 8.74324C77.9016 8.57027 77.656 8.47735 77.4029 8.48473C77.1499 8.4921 76.9101 8.59917 76.7357 8.78261C76.6499 8.87418 76.5829 8.98175 76.5387 9.09919C76.4944 9.21664 76.4738 9.34164 76.4778 9.46708C76.4819 9.59251 76.5107 9.71591 76.5624 9.83023C76.6142 9.94455 76.688 10.0476 76.7796 10.1334C76.8706 10.2204 76.978 10.2885 77.0955 10.3338C77.213 10.3791 77.3384 10.4007 77.4642 10.3973C77.5901 10.3939 77.7141 10.3657 77.829 10.3142C77.944 10.2626 78.0475 10.1889 78.1338 10.0971C78.2201 10.0053 78.2873 9.8974 78.3316 9.77953C78.376 9.66165 78.3965 9.53616 78.3921 9.4103C78.3877 9.28443 78.3584 9.16069 78.306 9.0462C78.2535 8.93171 78.1789 8.82874 78.0864 8.74324ZM81.2217 9.54429C81.1193 9.44705 80.9986 9.37103 80.8666 9.32058C80.7347 9.27014 80.594 9.24627 80.4528 9.25035C80.3116 9.25443 80.1726 9.28638 80.0438 9.34436C79.915 9.40234 79.7989 9.48521 79.7022 9.58821C79.6054 9.69087 79.5297 9.81159 79.4796 9.94348C79.4295 10.0754 79.4058 10.2158 79.4099 10.3569C79.4141 10.4979 79.446 10.6367 79.5038 10.7655C79.5616 10.8942 79.6442 11.0102 79.7468 11.107C79.8495 11.2038 79.9702 11.2795 80.1021 11.3296C80.234 11.3797 80.3745 11.4034 80.5155 11.3993C80.6565 11.3951 80.7954 11.3632 80.9241 11.3054C81.0528 11.2476 81.1689 11.165 81.2657 11.0624C81.4608 10.8551 81.5658 10.5788 81.5576 10.2942C81.5494 10.0097 81.4286 9.73995 81.2217 9.54429ZM69.0673 12.2147C68.9793 12.1322 68.8622 12.0879 68.7416 12.0914C68.6211 12.095 68.5068 12.1461 68.4238 12.2337C68.3825 12.2767 68.3503 12.3275 68.3288 12.3831C68.3073 12.4387 68.2971 12.498 68.2987 12.5576C68.3003 12.6172 68.3138 12.6758 68.3382 12.7302C68.3627 12.7845 68.3977 12.8335 68.4412 12.8742C68.5298 12.95 68.644 12.9889 68.7604 12.9828C68.8768 12.9768 68.9865 12.9264 69.0668 12.8419C69.1471 12.7574 69.1919 12.6454 69.192 12.5288C69.1921 12.4123 69.1475 12.3001 69.0673 12.2155V12.2147ZM84.8856 23.4152C84.8263 23.4726 84.7792 23.5415 84.7473 23.6177C84.7154 23.6938 84.6993 23.7757 84.6999 23.8583C84.7006 23.9409 84.718 24.0224 84.7511 24.0981C84.7842 24.1737 84.8323 24.2419 84.8925 24.2984C84.9527 24.3549 85.0238 24.3986 85.1014 24.4269C85.179 24.4552 85.2615 24.4674 85.344 24.4628C85.4264 24.4582 85.5071 24.437 85.5811 24.4003C85.6551 24.3636 85.7209 24.3124 85.7745 24.2495C85.8851 24.1318 85.9446 23.9749 85.9397 23.8134C85.9349 23.6519 85.8662 23.4988 85.7487 23.3879C85.6303 23.2777 85.4732 23.2187 85.3115 23.2238C85.1499 23.229 84.9968 23.2977 84.8856 23.4152ZM85.6669 20.2707C85.5653 20.3792 85.4981 20.5153 85.4737 20.662C85.4494 20.8086 85.4691 20.9591 85.5303 21.0946C85.5916 21.23 85.6915 21.3443 85.8177 21.4229C85.9438 21.5016 86.0904 21.5411 86.239 21.5364C86.3876 21.5318 86.5314 21.4832 86.6524 21.3968C86.7733 21.3104 86.866 21.1901 86.9186 21.0511C86.9712 20.9121 86.9815 20.7606 86.948 20.6158C86.9146 20.471 86.839 20.3393 86.7307 20.2374C86.585 20.1013 86.3913 20.0285 86.192 20.0347C85.9926 20.0409 85.8039 20.1258 85.6669 20.2707ZM85.4262 16.9575C85.3372 17.0483 85.2673 17.156 85.2205 17.2742C85.1737 17.3924 85.151 17.5188 85.1537 17.6458C85.1563 17.7729 85.1843 17.8982 85.236 18.0144C85.2877 18.1305 85.362 18.2352 85.4547 18.3222C85.5473 18.4093 85.6564 18.477 85.7755 18.5214C85.8946 18.5657 86.0214 18.5859 86.1485 18.5806C86.2755 18.5754 86.4002 18.5448 86.5152 18.4908C86.6303 18.4367 86.7334 18.3602 86.8186 18.2658C86.9047 18.1747 86.972 18.0675 87.0166 17.9503C87.0612 17.8331 87.0821 17.7083 87.0783 17.5829C87.0744 17.4576 87.0458 17.3343 86.9941 17.22C86.9423 17.1058 86.8685 17.0029 86.7769 16.9174C86.5922 16.7441 86.3464 16.6511 86.0933 16.6586C85.8401 16.6661 85.6003 16.7736 85.4262 16.9575ZM84.2693 13.8888C84.1725 13.9915 84.097 14.1123 84.0469 14.2443C83.9968 14.3763 83.9733 14.5168 83.9775 14.6579C83.9818 14.7989 84.0138 14.9378 84.0717 15.0665C84.1296 15.1952 84.2123 15.3112 84.3151 15.408C84.4178 15.5047 84.5386 15.5803 84.6706 15.6303C84.8026 15.6804 84.9431 15.704 85.0842 15.6997C85.2252 15.6955 85.3641 15.6635 85.4928 15.6056C85.6215 15.5476 85.7375 15.4649 85.8343 15.3622C86.0157 15.1524 86.1091 14.8807 86.0949 14.6037C86.0807 14.3268 85.9601 14.066 85.7582 13.8759C85.5562 13.6858 85.2887 13.5811 85.0113 13.5836C84.734 13.5862 84.4684 13.6958 84.27 13.8895L84.2693 13.8888ZM83.2062 26.1431C83.1654 26.1866 83.1336 26.2376 83.1126 26.2934C83.0915 26.3491 83.0817 26.4085 83.0836 26.468C83.0855 26.5276 83.0991 26.5862 83.1236 26.6405C83.1482 26.6948 83.1832 26.7437 83.2267 26.7844C83.4107 26.954 83.6961 26.9487 83.8665 26.7625C83.9078 26.7197 83.9402 26.6692 83.9618 26.6137C83.9833 26.5583 83.9936 26.4991 83.992 26.4397C83.9903 26.3802 83.9769 26.3217 83.9523 26.2675C83.9278 26.2134 83.8927 26.1646 83.849 26.1242C83.8058 26.0829 83.7547 26.0506 83.6989 26.0292C83.643 26.0078 83.5835 25.9976 83.5237 25.9994C83.4639 26.0012 83.405 26.0148 83.3505 26.0395C83.296 26.0641 83.247 26.0994 83.2062 26.1431ZM70.0849 27.7309C70.1963 27.6128 70.2833 27.4739 70.341 27.3222C70.3987 27.1705 70.426 27.009 70.4212 26.8467C70.4165 26.6845 70.3798 26.5248 70.3134 26.3767C70.2469 26.2286 70.1519 26.0951 70.0338 25.9838C69.9158 25.8724 69.7769 25.7854 69.6252 25.7277C69.4735 25.67 69.3119 25.6427 69.1497 25.6475C68.9875 25.6522 68.8277 25.6889 68.6797 25.7553C68.5316 25.8218 68.3981 25.9168 68.2867 26.0349C68.0618 26.2733 67.9409 26.5914 67.9504 26.919C67.96 27.2467 68.0994 27.5571 68.3378 27.782C68.5763 28.0069 68.8943 28.1278 69.222 28.1183C69.5496 28.1087 69.86 27.9693 70.0849 27.7309ZM67.4084 15.5833C67.4633 15.525 67.5062 15.4564 67.5346 15.3815C67.563 15.3066 67.5763 15.2269 67.5739 15.1469C67.5715 15.0668 67.5533 14.988 67.5204 14.915C67.4876 14.842 67.4406 14.7761 67.3823 14.7213C67.324 14.6664 67.2554 14.6235 67.1806 14.5951C67.1057 14.5667 67.0259 14.5534 66.9459 14.5558C66.8659 14.5582 66.7871 14.5764 66.714 14.6093C66.641 14.6421 66.5752 14.6891 66.5203 14.7474C66.465 14.8053 66.4218 14.8737 66.3932 14.9485C66.3646 15.0233 66.3511 15.1031 66.3537 15.1831C66.3562 15.2632 66.3747 15.342 66.408 15.4148C66.4412 15.4877 66.4887 15.5532 66.5476 15.6075C66.6653 15.7177 66.8218 15.7771 66.983 15.7725C67.1442 15.768 67.2971 15.7 67.4084 15.5833ZM66.624 18.73C66.6917 18.658 66.7445 18.5734 66.7795 18.481C66.8144 18.3886 66.8309 18.2902 66.8278 18.1914C66.8247 18.0927 66.8023 17.9955 66.7617 17.9054C66.721 17.8154 66.6631 17.7342 66.5911 17.6665C66.5191 17.5989 66.4345 17.5461 66.3421 17.5111C66.2497 17.4761 66.1513 17.4597 66.0526 17.4628C65.9538 17.4658 65.8567 17.4883 65.7666 17.5289C65.6765 17.5695 65.5954 17.6275 65.5277 17.6995C65.4601 17.7711 65.4073 17.8553 65.3723 17.9474C65.3372 18.0394 65.3207 18.1375 65.3236 18.2359C65.3264 18.3344 65.3487 18.4313 65.3891 18.5211C65.4294 18.6109 65.4871 18.6919 65.5587 18.7595C65.7044 18.896 65.898 18.9694 66.0975 18.9639C66.297 18.9583 66.4862 18.8743 66.624 18.73ZM66.8656 22.0409C66.9519 21.9495 67.0194 21.8418 67.0641 21.7243C67.1088 21.6067 67.1299 21.4815 67.1261 21.3557C67.1224 21.23 67.0939 21.1062 67.0423 20.9915C66.9907 20.8768 66.917 20.7734 66.8254 20.6872C66.6877 20.5574 66.5146 20.4714 66.328 20.44C66.1414 20.4085 65.9497 20.4332 65.7771 20.5107C65.6044 20.5882 65.4587 20.7152 65.3582 20.8755C65.2577 21.0359 65.207 21.2224 65.2125 21.4115C65.218 21.6007 65.2795 21.784 65.3891 21.9382C65.4987 22.0924 65.6516 22.2107 65.8285 22.278C66.0053 22.3454 66.1981 22.3588 66.3826 22.3166C66.567 22.2744 66.7349 22.1785 66.8648 22.0409H66.8656ZM68.0202 25.1112C68.2155 24.9041 68.3205 24.628 68.3122 24.3435C68.3039 24.059 68.1829 23.7895 67.9759 23.5942C67.7689 23.3989 67.4928 23.2939 67.2083 23.3022C66.9238 23.3105 66.6543 23.4315 66.459 23.6385C66.3618 23.7408 66.2857 23.8613 66.2351 23.9931C66.1845 24.1249 66.1604 24.2653 66.1642 24.4064C66.168 24.5475 66.1996 24.6865 66.2572 24.8153C66.3148 24.9442 66.3973 25.0604 66.4999 25.1573C66.7084 25.3512 66.9849 25.4551 67.2695 25.4465C67.5541 25.4378 67.8239 25.3174 68.0202 25.1112ZM80.6077 28.8408C80.7267 28.9422 80.8801 28.994 81.0362 28.9854C81.1923 28.9769 81.3392 28.9087 81.4464 28.7949C81.5536 28.6812 81.6131 28.5306 81.6124 28.3742C81.6117 28.2179 81.551 28.0678 81.4428 27.955C81.3847 27.9001 81.3163 27.8573 81.2416 27.8289C81.1668 27.8005 81.0872 27.7871 81.0073 27.7894C80.9274 27.7918 80.8488 27.8099 80.7759 27.8426C80.7029 27.8754 80.6372 27.9222 80.5823 27.9803C80.5275 28.0385 80.4847 28.1069 80.4563 28.1816C80.4279 28.2564 80.4145 28.3359 80.4168 28.4158C80.4192 28.4958 80.4372 28.5744 80.47 28.6473C80.5027 28.7202 80.5495 28.786 80.6077 28.8408ZM77.5178 30.0121C77.6634 30.1482 77.857 30.221 78.0562 30.2148C78.2554 30.2085 78.444 30.1237 78.5808 29.9788C78.6488 29.9074 78.702 29.8233 78.7373 29.7313C78.7726 29.6393 78.7894 29.5412 78.7867 29.4427C78.7839 29.3442 78.7617 29.2471 78.7213 29.1572C78.6809 29.0673 78.6231 28.9863 78.5513 28.9188C78.4053 28.7822 78.2112 28.7088 78.0113 28.7148C77.8115 28.7207 77.6221 28.8055 77.4845 28.9506C77.3487 29.0961 77.276 29.2894 77.2823 29.4883C77.2885 29.6871 77.3732 29.8755 77.5178 30.0121ZM74.2023 30.2522C74.2933 30.3386 74.4005 30.4062 74.5177 30.4511C74.6349 30.4961 74.7599 30.5174 74.8854 30.514C75.0108 30.5105 75.1344 30.4823 75.249 30.431C75.3635 30.3798 75.4669 30.3064 75.553 30.2151C75.9165 29.8312 75.9013 29.2255 75.5152 28.8658C75.3301 28.6921 75.0838 28.5985 74.8301 28.6056C74.5763 28.6127 74.3357 28.7199 74.1606 28.9037C73.9873 29.088 73.8944 29.3337 73.9022 29.5865C73.91 29.8394 74.0179 30.0789 74.2023 30.2522ZM71.0745 29.4549C71.2292 29.6005 71.4237 29.6969 71.6332 29.732C71.8427 29.767 72.058 29.7391 72.2516 29.6518C72.4453 29.5645 72.6087 29.4217 72.7212 29.2414C72.8337 29.0612 72.8901 28.8517 72.8835 28.6393C72.8768 28.427 72.8072 28.2214 72.6837 28.0486C72.5601 27.8757 72.388 27.7435 72.1892 27.6685C71.9904 27.5935 71.7739 27.5792 71.567 27.6274C71.36 27.6756 71.1721 27.784 71.0268 27.9391C70.9301 28.0416 70.8546 28.1622 70.8047 28.2939C70.7547 28.4257 70.7313 28.566 70.7357 28.7069C70.7401 28.8477 70.7723 28.9863 70.8305 29.1147C70.8886 29.2431 70.9716 29.3587 71.0745 29.4549ZM79.2161 12.4775C79.1802 12.5982 79.1208 12.7107 79.0413 12.8084C78.9619 12.9062 78.864 12.9873 78.7531 13.0472C78.6423 13.107 78.5207 13.1444 78.3954 13.1572C78.2701 13.17 78.1435 13.158 78.0228 13.1218C77.9013 13.087 77.7878 13.0285 77.6891 12.9495C77.5904 12.8705 77.5084 12.7727 77.4478 12.6618C77.3872 12.5508 77.3493 12.4289 77.3362 12.3032C77.3231 12.1774 77.3352 12.0503 77.3717 11.9293C77.4053 11.8055 77.4634 11.6898 77.5425 11.5888C77.6215 11.4878 77.72 11.4036 77.832 11.3412C77.9441 11.2788 78.0675 11.2394 78.195 11.2254C78.3225 11.2114 78.4515 11.2229 78.5744 11.2595C78.6974 11.296 78.8118 11.3568 78.9109 11.4382C79.01 11.5195 79.0919 11.6199 79.1517 11.7334C79.2114 11.8469 79.2479 11.9711 79.259 12.0989C79.2701 12.2267 79.2555 12.3554 79.2161 12.4775ZM69.9903 14.7459C69.869 14.7121 69.7394 14.7272 69.6291 14.7877C69.5187 14.8482 69.4364 14.9495 69.3997 15.0699C69.3255 15.3198 69.4717 15.5848 69.7238 15.656C69.7835 15.6735 69.8462 15.6791 69.9081 15.6725C69.97 15.6658 70.03 15.647 70.0847 15.6172C70.1393 15.5873 70.1876 15.547 70.2267 15.4985C70.2658 15.45 70.2949 15.3943 70.3125 15.3345C70.33 15.2748 70.3356 15.2122 70.329 15.1502C70.3223 15.0883 70.3035 15.0283 70.2737 14.9736C70.2438 14.919 70.2035 14.8707 70.155 14.8316C70.1065 14.7926 70.0508 14.7634 69.9911 14.7459H69.9903ZM71.6598 12.9121C71.586 12.8905 71.5086 12.8837 71.4322 12.892C71.3557 12.9004 71.2816 12.9237 71.2142 12.9607C71.1468 12.9977 71.0873 13.0476 71.0391 13.1076C70.991 13.1676 70.9552 13.2365 70.9337 13.3103C70.912 13.3842 70.9051 13.4617 70.9134 13.5383C70.9216 13.6149 70.9449 13.6891 70.9819 13.7567C71.0188 13.8243 71.0687 13.884 71.1287 13.9323C71.1887 13.9806 71.2576 14.0166 71.3316 14.0383C71.4055 14.06 71.483 14.0669 71.5596 14.0586C71.6362 14.0504 71.7104 14.0271 71.778 13.9901C71.8456 13.9532 71.9052 13.9033 71.9535 13.8433C72.0019 13.7833 72.0379 13.7144 72.0596 13.6404C72.1025 13.4908 72.0846 13.3303 72.0097 13.1939C71.9348 13.0575 71.809 12.9562 71.6598 12.9121ZM73.7987 11.6196C73.6092 11.5645 73.4055 11.5864 73.232 11.6805C73.0585 11.7746 72.9291 11.9334 72.872 12.1224C72.8446 12.2163 72.836 12.3148 72.8467 12.412C72.8574 12.5093 72.8872 12.6035 72.9343 12.6893C72.9814 12.7751 73.0449 12.8508 73.1213 12.912C73.1976 12.9732 73.2853 13.0188 73.3793 13.0461C73.473 13.0741 73.5713 13.0832 73.6686 13.0731C73.7658 13.0629 73.8601 13.0337 73.946 12.9869C74.032 12.9402 74.1078 12.877 74.1692 12.8008C74.2306 12.7247 74.2763 12.6372 74.3037 12.5433C74.3572 12.3539 74.3343 12.1511 74.2399 11.9783C74.1455 11.8056 73.9871 11.6768 73.7987 11.6196ZM76.1671 11.0896C76.0614 11.0583 75.9506 11.0481 75.8411 11.0597C75.7315 11.0713 75.6253 11.1045 75.5285 11.1572C75.4318 11.21 75.3465 11.2814 75.2774 11.3672C75.2083 11.4531 75.1568 11.5517 75.126 11.6575C74.9935 12.1019 75.2471 12.5638 75.6923 12.697C75.9052 12.7587 76.1338 12.7341 76.3285 12.6283C76.5233 12.5226 76.6685 12.3443 76.7327 12.1322C76.7644 12.0266 76.7749 11.9158 76.7636 11.8061C76.7523 11.6965 76.7194 11.5901 76.6668 11.4932C76.6142 11.3963 76.543 11.3108 76.4573 11.2415C76.3715 11.1722 76.2729 11.1206 76.1671 11.0896ZM68.9364 17.0165C68.8466 16.9904 68.7502 17.0008 68.668 17.0455C68.5859 17.0902 68.5248 17.1655 68.498 17.255C68.4711 17.3456 68.481 17.4431 68.5257 17.5264C68.5704 17.6096 68.6461 17.6718 68.7365 17.6995C68.8264 17.724 68.9224 17.7123 69.0038 17.6668C69.0852 17.6213 69.1455 17.5456 69.1716 17.4561C69.1978 17.3666 69.1879 17.2704 69.1439 17.1882C69.0999 17.106 69.0253 17.0444 68.9364 17.0165ZM83.3069 19.1509C83.2312 19.4 83.3751 19.6665 83.6287 19.7392C83.6885 19.7569 83.7511 19.7626 83.8131 19.756C83.875 19.7495 83.9351 19.7307 83.9898 19.701C84.0446 19.6712 84.0929 19.6309 84.1321 19.5825C84.1712 19.534 84.2005 19.4783 84.2181 19.4186C84.2358 19.3588 84.2415 19.2962 84.2349 19.2342C84.2284 19.1722 84.2097 19.1122 84.1799 19.0574C84.1501 19.0027 84.1099 18.9544 84.0614 18.9152C84.0129 18.876 83.9573 18.8468 83.8975 18.8291C83.7765 18.7939 83.6465 18.8079 83.5358 18.8682C83.4252 18.9285 83.3429 19.0302 83.3069 19.1509ZM82.758 16.7773C82.7355 16.8514 82.7281 16.9293 82.736 17.0064C82.744 17.0835 82.7672 17.1582 82.8044 17.2262C82.8415 17.2942 82.8918 17.3542 82.9524 17.4025C83.0129 17.4509 83.0825 17.4867 83.157 17.5079C83.2309 17.5298 83.3084 17.5369 83.385 17.5287C83.4616 17.5205 83.5358 17.4972 83.6034 17.4602C83.6709 17.4232 83.7305 17.3731 83.7787 17.313C83.8268 17.2528 83.8626 17.1837 83.8839 17.1097C83.9057 17.036 83.9127 16.9587 83.9045 16.8823C83.8964 16.8059 83.8732 16.7319 83.8363 16.6645C83.7994 16.5971 83.7496 16.5376 83.6897 16.4896C83.6298 16.4415 83.5609 16.4057 83.4871 16.3843C83.4134 16.3622 83.336 16.3549 83.2595 16.3627C83.1829 16.3705 83.1086 16.3934 83.0409 16.4299C82.9732 16.4665 82.9133 16.5161 82.8648 16.5758C82.8162 16.6355 82.7799 16.7043 82.758 16.778V16.7773ZM81.464 14.6421C81.4361 14.736 81.4269 14.8345 81.4371 14.9319C81.4472 15.0293 81.4766 15.1237 81.5234 15.2098C81.5701 15.2958 81.6335 15.3718 81.7097 15.4333C81.7859 15.4948 81.8735 15.5406 81.9675 15.5681C82.1573 15.6235 82.3613 15.6013 82.5347 15.5065C82.7082 15.4117 82.8369 15.252 82.8928 15.0624C82.9209 14.9688 82.93 14.8706 82.9198 14.7734C82.9095 14.6763 82.88 14.5822 82.833 14.4966C82.786 14.4109 82.7224 14.3355 82.646 14.2747C82.5695 14.2139 82.4818 14.1689 82.3878 14.1424C82.199 14.0873 81.9961 14.1088 81.8232 14.2024C81.6502 14.296 81.5212 14.454 81.464 14.6421ZM79.6439 12.984C79.613 13.0896 79.6033 13.2002 79.6152 13.3096C79.6272 13.4189 79.6605 13.5249 79.7134 13.6213C79.7663 13.7178 79.8376 13.8029 79.9234 13.8718C80.0092 13.9407 80.1076 13.992 80.2132 14.0228C80.3188 14.0536 80.4295 14.0633 80.5388 14.0514C80.6482 14.0395 80.7541 14.0061 80.8506 13.9533C80.947 13.9004 81.0321 13.829 81.101 13.7433C81.1699 13.6575 81.2212 13.559 81.252 13.4534C81.2836 13.3481 81.294 13.2376 81.2827 13.1283C81.2713 13.019 81.2385 12.913 81.186 12.8164C81.1334 12.7198 81.0623 12.6346 80.9767 12.5657C80.8911 12.4967 80.7927 12.4454 80.6872 12.4146C80.4734 12.3526 80.2437 12.3776 80.0482 12.4843C79.8528 12.591 79.7074 12.7706 79.6439 12.984ZM83.1146 21.5458C83.0886 21.6357 83.0989 21.7323 83.1434 21.8147C83.1879 21.8971 83.2629 21.9588 83.3524 21.9864C83.3971 21.9999 83.4442 22.0044 83.4907 21.9996C83.5372 21.9947 83.5823 21.9806 83.6234 21.9581C83.6644 21.9356 83.7005 21.9052 83.7296 21.8686C83.7588 21.832 83.7803 21.7899 83.793 21.7449C83.8065 21.7003 83.811 21.6534 83.8062 21.607C83.8014 21.5606 83.7875 21.5156 83.7653 21.4747C83.743 21.4337 83.7129 21.3975 83.6766 21.3683C83.6403 21.339 83.5985 21.3173 83.5538 21.3042C83.4634 21.2791 83.3668 21.2904 83.2847 21.3357C83.2026 21.381 83.1415 21.4567 83.1146 21.5465V21.5458ZM74.9231 27.0752C74.9593 26.9537 74.9711 26.8262 74.9579 26.7001C74.9446 26.5741 74.9066 26.4518 74.8459 26.3405C74.7853 26.2292 74.7032 26.131 74.6044 26.0515C74.5056 25.972 74.3921 25.9128 74.2704 25.8774C74.1491 25.8419 74.0219 25.8306 73.8962 25.8443C73.7705 25.8579 73.6487 25.8962 73.5378 25.9569C73.4269 26.0176 73.329 26.0996 73.2498 26.1981C73.1706 26.2966 73.1115 26.4098 73.076 26.5312C73.0405 26.6525 73.0293 26.7797 73.0429 26.9054C73.0566 27.0311 73.0948 27.1529 73.1556 27.2638C73.2163 27.3747 73.2982 27.4725 73.3968 27.5518C73.4953 27.631 73.6085 27.6901 73.7298 27.7256C73.9744 27.7961 74.2369 27.7673 74.4603 27.6454C74.6838 27.5234 74.8501 27.3183 74.9231 27.0744V27.0752ZM68.9856 19.8483C69.0211 19.7278 69.0074 19.5981 68.9475 19.4877C68.8876 19.3773 68.7864 19.2951 68.6661 19.2592C68.5447 19.2248 68.4147 19.2394 68.3039 19.2998C68.1932 19.3603 68.1106 19.4618 68.074 19.5825C67.9983 19.8323 68.1459 20.0936 68.3973 20.1685C68.6471 20.2442 68.9106 20.1019 68.9856 19.8483ZM69.5368 22.2211C69.5588 22.1477 69.5659 22.0706 69.5579 21.9943C69.5498 21.918 69.5267 21.8441 69.4899 21.7768C69.4531 21.7096 69.4032 21.6503 69.3433 21.6024C69.2834 21.5546 69.2145 21.5191 69.1408 21.4981C69.0672 21.4749 68.9898 21.4668 68.913 21.4742C68.8363 21.4815 68.7618 21.5043 68.694 21.541C68.6262 21.5777 68.5664 21.6277 68.5183 21.6879C68.4702 21.7482 68.4347 21.8175 68.4139 21.8918C68.39 21.9662 68.3812 22.0446 68.3881 22.1224C68.3949 22.2002 68.4173 22.2759 68.4539 22.345C68.4905 22.414 68.5405 22.475 68.601 22.5244C68.6616 22.5738 68.7314 22.6106 68.8063 22.6326C68.8813 22.6546 68.9599 22.6614 69.0376 22.6525C69.1152 22.6436 69.1903 22.6193 69.2583 22.5809C69.3264 22.5426 69.3861 22.491 69.4339 22.4292C69.4818 22.3674 69.5167 22.2967 69.5368 22.2211ZM70.8315 24.3586C70.8862 24.168 70.8634 23.9636 70.7681 23.7897C70.6728 23.6159 70.5127 23.4867 70.3227 23.4303C70.2287 23.4029 70.1303 23.3943 70.033 23.405C69.9357 23.4157 69.8415 23.4455 69.7557 23.4926C69.6699 23.5397 69.5943 23.6032 69.5331 23.6796C69.4719 23.7559 69.4263 23.8436 69.399 23.9376C69.3708 24.0313 69.3616 24.1297 69.3717 24.2271C69.3819 24.3245 69.4113 24.4188 69.4582 24.5048C69.5051 24.5907 69.5686 24.6664 69.645 24.7276C69.7214 24.7888 69.8091 24.8343 69.9032 24.8613C70.093 24.9177 70.2974 24.8964 70.4715 24.8021C70.6455 24.7079 70.775 24.5483 70.8315 24.3586ZM72.6509 26.019C72.7132 25.8054 72.6882 25.5758 72.5813 25.3807C72.4743 25.1857 72.2943 25.041 72.0808 24.9787C71.9752 24.9475 71.8646 24.9376 71.7552 24.9494C71.6458 24.9613 71.5398 24.9947 71.4434 25.0477C71.3469 25.1007 71.262 25.1722 71.1933 25.2582C71.1247 25.3442 71.0738 25.443 71.0435 25.5488C71.0123 25.6541 71.0022 25.7645 71.0139 25.8737C71.0256 25.9829 71.0587 26.0887 71.1114 26.185C71.1641 26.2814 71.2353 26.3663 71.321 26.435C71.4067 26.5037 71.5051 26.5548 71.6106 26.5853C71.8236 26.6468 72.0523 26.6218 72.247 26.5157C72.4418 26.4097 72.5869 26.2312 72.6509 26.019ZM82.2999 24.2518C82.4212 24.2876 82.5517 24.2739 82.663 24.2137C82.7742 24.1536 82.8571 24.0518 82.8935 23.9308C82.9282 23.8096 82.9139 23.6797 82.8537 23.5689C82.7935 23.4582 82.6923 23.3755 82.5717 23.3387C82.4506 23.3039 82.3206 23.3184 82.21 23.3789C82.0994 23.4394 82.0172 23.5412 81.9812 23.662C81.9454 23.7826 81.9588 23.9124 82.0186 24.0231C82.0783 24.1338 82.1795 24.2163 82.2999 24.2526V24.2518ZM80.6342 26.0879C80.7834 26.1319 80.944 26.1149 81.0807 26.0406C81.2173 25.9663 81.3189 25.8407 81.363 25.6915C81.407 25.5423 81.39 25.3817 81.3157 25.245C81.2414 25.1084 81.1158 25.0068 80.9666 24.9628C80.8167 24.9194 80.6558 24.9368 80.5186 25.0112C80.3814 25.0856 80.2791 25.211 80.2337 25.3603C80.1918 25.5098 80.2103 25.6699 80.2852 25.8059C80.3601 25.942 80.4854 26.0432 80.6342 26.0879ZM78.496 27.3826C78.5898 27.4103 78.6882 27.4192 78.7855 27.4089C78.8827 27.3986 78.977 27.3692 79.0629 27.3225C79.1488 27.2757 79.2247 27.2125 79.2862 27.1364C79.3477 27.0603 79.3936 26.9729 79.4213 26.8791C79.449 26.7853 79.4579 26.6869 79.4476 26.5897C79.4373 26.4924 79.4079 26.3981 79.3611 26.3122C79.3144 26.2263 79.2512 26.1504 79.1751 26.0889C79.099 26.0274 79.0116 25.9815 78.9178 25.9539C78.8224 25.9204 78.7211 25.9066 78.6203 25.9135C78.5194 25.9203 78.421 25.9476 78.331 25.9937C78.241 26.0398 78.1613 26.1037 78.0967 26.1815C78.0322 26.2593 77.9842 26.3495 77.9555 26.4464C77.9269 26.5434 77.9183 26.6452 77.9302 26.7456C77.9422 26.846 77.9744 26.9429 78.0249 27.0305C78.0755 27.118 78.1433 27.1944 78.2243 27.2549C78.3053 27.3155 78.3977 27.3589 78.496 27.3826ZM76.1285 27.9096C76.2337 27.9414 76.3442 27.9521 76.4536 27.941C76.563 27.9298 76.6691 27.8971 76.7657 27.8446C76.8624 27.7921 76.9476 27.721 77.0165 27.6353C77.0855 27.5496 77.1367 27.4511 77.1672 27.3455C77.2297 27.1323 77.2049 26.9031 77.0984 26.7082C76.9918 26.5133 76.8122 26.3688 76.599 26.3063C76.3859 26.2439 76.1566 26.2686 75.9617 26.3752C75.7669 26.4818 75.6223 26.6614 75.5598 26.8745C75.4984 27.0872 75.5238 27.3155 75.6304 27.5095C75.7369 27.7035 75.916 27.8473 76.1285 27.9096ZM74.1674 14.2605C74.2611 14.4348 74.282 14.639 74.2257 14.8286C74.1694 15.0182 74.0404 15.1779 73.8669 15.2728C73.6913 15.3663 73.486 15.3866 73.2956 15.3291C73.1052 15.2717 72.9453 15.1412 72.8508 14.9662C72.7597 14.7917 72.7412 14.5884 72.7992 14.4003C72.8571 14.2122 72.987 14.0546 73.1604 13.9617C73.3339 13.8688 73.5371 13.848 73.7257 13.904C73.9144 13.9599 74.0734 14.0881 74.1682 14.2605H74.1674ZM70.4711 20.1057C70.369 20.1623 70.2934 20.2568 70.2605 20.3687C70.2276 20.4807 70.2402 20.6011 70.2954 20.7038C70.3227 20.7549 70.3599 20.8 70.4048 20.8365C70.4498 20.873 70.5016 20.9002 70.5572 20.9163C70.6128 20.9325 70.6711 20.9373 70.7286 20.9306C70.7861 20.9239 70.8417 20.9057 70.892 20.8772C70.9434 20.8507 70.9889 20.814 71.0259 20.7696C71.0628 20.7251 71.0904 20.6736 71.1071 20.6182C71.1238 20.5629 71.1291 20.5047 71.1229 20.4472C71.1166 20.3898 71.0989 20.3341 71.0707 20.2836C71.0138 20.1815 70.9192 20.1057 70.8071 20.0726C70.695 20.0395 70.5743 20.0516 70.4711 20.1064V20.1057ZM70.3969 18.3097C70.2786 18.3746 70.1907 18.4835 70.1522 18.6128C70.1138 18.7421 70.128 18.8813 70.1917 19.0003C70.2563 19.1203 70.366 19.2099 70.4966 19.2492C70.6272 19.2885 70.7681 19.2744 70.8883 19.21C71.0074 19.1443 71.0959 19.0346 71.1349 18.9043C71.1738 18.774 71.16 18.6336 71.0965 18.5134C71.064 18.454 71.0202 18.4016 70.9674 18.3591C70.9146 18.3167 70.854 18.2852 70.789 18.2662C70.724 18.2473 70.6559 18.2414 70.5886 18.2489C70.5213 18.2563 70.4562 18.277 70.3969 18.3097ZM70.864 16.5812C70.7276 16.655 70.6258 16.7796 70.5807 16.9281C70.5357 17.0765 70.5509 17.2367 70.6233 17.3739C70.698 17.51 70.8234 17.6111 70.9721 17.6555C71.1209 17.6998 71.2812 17.6838 71.4183 17.6109C71.4864 17.5746 71.5467 17.5253 71.5957 17.4656C71.6447 17.406 71.6814 17.3372 71.7037 17.2633C71.726 17.1894 71.7335 17.1119 71.7257 17.0351C71.7179 16.9583 71.695 16.8838 71.6583 16.8159C71.5834 16.6799 71.4579 16.579 71.309 16.535C71.1602 16.4911 71 16.5077 70.8633 16.5812H70.864ZM71.8165 15.0843C71.7394 15.1249 71.6712 15.1805 71.6158 15.2478C71.5604 15.315 71.519 15.3927 71.494 15.4761C71.469 15.5596 71.4608 15.6472 71.4701 15.7339C71.4793 15.8205 71.5057 15.9044 71.5477 15.9808C71.7211 16.2988 72.1156 16.4192 72.4351 16.2465C72.512 16.2063 72.5801 16.1512 72.6356 16.0844C72.691 16.0177 72.7326 15.9406 72.7579 15.8576C72.7833 15.7746 72.7919 15.6874 72.7833 15.601C72.7747 15.5147 72.749 15.4309 72.7077 15.3546C72.667 15.2782 72.6117 15.2106 72.5449 15.1557C72.4781 15.1007 72.401 15.0595 72.3182 15.0344C72.2354 15.0093 72.1485 15.0007 72.0624 15.0093C71.9763 15.0179 71.8927 15.0434 71.8165 15.0843ZM71.0866 21.8085C71.0439 21.8314 71.0062 21.8626 70.9756 21.9002C70.945 21.9377 70.9222 21.981 70.9084 22.0275C70.8946 22.0739 70.8901 22.1226 70.8952 22.1708C70.9004 22.219 70.915 22.2657 70.9382 22.3082C71.0352 22.4846 71.2547 22.5505 71.438 22.4574C71.5227 22.4097 71.5855 22.3307 71.6128 22.2373C71.6401 22.1439 71.6298 22.0435 71.5841 21.9577C71.5375 21.8724 71.4591 21.8089 71.366 21.7809C71.2729 21.753 71.1725 21.7629 71.0866 21.8085ZM79.5916 15.6893C79.6486 15.7917 79.7433 15.8679 79.8557 15.9014C79.968 15.9349 80.089 15.9232 80.1928 15.8687C80.2949 15.8118 80.3707 15.7172 80.4038 15.605C80.4369 15.4929 80.4248 15.3723 80.37 15.2691C80.3425 15.2183 80.3053 15.1734 80.2605 15.137C80.2157 15.1006 80.1641 15.0733 80.1088 15.0569C80.0534 15.0404 79.9954 15.035 79.9379 15.0411C79.8805 15.0471 79.8248 15.0643 79.7741 15.0919C79.7228 15.119 79.6774 15.156 79.6404 15.2008C79.6034 15.2455 79.5757 15.2971 79.5587 15.3527C79.5418 15.4082 79.5359 15.4665 79.5416 15.5242C79.5472 15.582 79.5642 15.6381 79.5916 15.6893ZM78.0978 14.7383C78.2325 14.9882 78.549 15.079 78.7913 14.9427C78.8511 14.9115 78.9041 14.8686 78.9471 14.8166C78.9901 14.7646 79.0223 14.7046 79.0419 14.64C79.0614 14.5754 79.0678 14.5076 79.0608 14.4405C79.0538 14.3734 79.0335 14.3083 79.0011 14.2492C78.9364 14.1301 78.8274 14.0413 78.6977 14.002C78.568 13.9628 78.4281 13.9762 78.3083 14.0395C78.1883 14.1048 78.099 14.2149 78.0596 14.3457C78.0202 14.4765 78.0339 14.6175 78.0978 14.7383ZM76.37 14.2772C76.5214 14.5596 76.8765 14.6664 77.1597 14.5112C77.2278 14.4752 77.2881 14.4261 77.3372 14.3667C77.3863 14.3073 77.4231 14.2388 77.4456 14.1652C77.4682 14.0915 77.4759 14.0141 77.4684 13.9374C77.4609 13.8608 77.4383 13.7863 77.402 13.7184C77.3658 13.6502 77.3164 13.5899 77.2566 13.5411C77.1968 13.4922 77.1278 13.4558 77.0537 13.434C76.9797 13.4123 76.902 13.4055 76.8253 13.4141C76.7485 13.4228 76.6743 13.4467 76.607 13.4845C76.5392 13.5208 76.4793 13.5702 76.4307 13.6298C76.3821 13.6894 76.3458 13.7579 76.3238 13.8316C76.3018 13.9053 76.2945 13.9825 76.3024 14.059C76.3104 14.1355 76.3333 14.2096 76.37 14.2772ZM74.568 14.3476C74.6508 14.5023 74.7917 14.6178 74.9596 14.6688C75.1275 14.7197 75.3088 14.702 75.4637 14.6194C75.54 14.5781 75.6075 14.5221 75.6622 14.4546C75.7169 14.3872 75.7579 14.3096 75.7826 14.2264C75.8073 14.1431 75.8155 14.0558 75.8065 13.9695C75.7975 13.8831 75.7716 13.7993 75.7302 13.723C75.6888 13.6466 75.6328 13.5791 75.5654 13.5244C75.498 13.4697 75.4204 13.4288 75.3372 13.404C75.2539 13.3793 75.1666 13.3712 75.0802 13.3802C74.9939 13.3892 74.9101 13.4151 74.8337 13.4565C74.6807 13.5397 74.5669 13.6803 74.5172 13.8473C74.4675 14.0143 74.4861 14.1942 74.5687 14.3476H74.568ZM80.7137 17.034C80.8083 17.2119 81.0317 17.277 81.2058 17.1808C81.2486 17.159 81.2865 17.1287 81.3172 17.0918C81.3479 17.055 81.3709 17.0122 81.3847 16.9663C81.3985 16.9203 81.4028 16.872 81.3975 16.8243C81.3921 16.7766 81.3771 16.7305 81.3535 16.6887C81.3079 16.6024 81.2301 16.5375 81.137 16.5082C81.0438 16.4788 80.9429 16.4874 80.856 16.532C80.7723 16.5813 80.7108 16.661 80.6843 16.7544C80.6578 16.8479 80.6683 16.948 80.7137 17.034ZM79.444 24.0247C79.3976 23.9375 79.3344 23.8604 79.258 23.7979C79.1816 23.7354 79.0936 23.6886 78.999 23.6604C78.9044 23.6322 78.8051 23.623 78.707 23.6334C78.6088 23.6438 78.5137 23.6736 78.4271 23.721C78.3405 23.7672 78.2639 23.8302 78.2018 23.9062C78.1398 23.9823 78.0935 24.07 78.0656 24.1641C78.0378 24.2583 78.029 24.357 78.0397 24.4546C78.0504 24.5522 78.0805 24.6467 78.1281 24.7326C78.2239 24.9058 78.3838 25.0345 78.5734 25.0913C78.7631 25.148 78.9674 25.1283 79.1426 25.0362C79.3158 24.9411 79.4445 24.7816 79.5009 24.5923C79.5573 24.4029 79.5369 24.199 79.444 24.0247ZM72.7009 23.3001C72.6443 23.199 72.5505 23.1241 72.4394 23.0913C72.3284 23.0584 72.2089 23.0703 72.1065 23.1244C72.0557 23.1514 72.0108 23.1881 71.9742 23.2325C71.9377 23.2769 71.9104 23.3282 71.8938 23.3832C71.8771 23.4383 71.8716 23.4961 71.8774 23.5533C71.8833 23.6105 71.9004 23.6659 71.9278 23.7165C72.0399 23.933 72.3071 24.0118 72.5222 23.8914C72.5728 23.8644 72.6176 23.8278 72.6539 23.7835C72.6903 23.7392 72.7176 23.6881 72.7342 23.6332C72.7508 23.5784 72.7564 23.5207 72.7507 23.4637C72.745 23.4067 72.728 23.3513 72.7009 23.3008V23.3001ZM74.1962 24.251C74.1476 24.1622 74.0738 24.0897 73.984 24.0428C73.8943 23.9958 73.7927 23.9764 73.692 23.987C73.5913 23.9977 73.4959 24.0379 73.418 24.1026C73.3401 24.1673 73.2831 24.2536 73.2541 24.3506C73.2251 24.4477 73.2255 24.5511 73.2551 24.6479C73.2848 24.7448 73.3424 24.8307 73.4208 24.8948C73.4992 24.959 73.5948 24.9985 73.6956 25.0084C73.7964 25.0183 73.8979 24.9982 73.9873 24.9506C74.2371 24.8113 74.3302 24.4964 74.1962 24.251ZM75.9263 24.7129C75.7764 24.4297 75.4167 24.329 75.1283 24.4759C74.9979 24.5536 74.9027 24.6786 74.8624 24.8249C74.8221 24.9712 74.8398 25.1274 74.9119 25.2609C74.9841 25.3943 75.105 25.4948 75.2494 25.5413C75.3938 25.5877 75.5506 25.5766 75.687 25.5102C75.7557 25.4742 75.8165 25.4248 75.8658 25.365C75.9152 25.3052 75.9521 25.2361 75.9744 25.1619C75.9966 25.0876 76.0039 25.0096 75.9956 24.9325C75.9874 24.8554 75.9638 24.7808 75.9263 24.7129ZM77.726 24.641C77.6422 24.487 77.501 24.3724 77.3331 24.3221C77.1652 24.2718 76.9842 24.2898 76.8296 24.3722C76.7533 24.4135 76.6861 24.4695 76.6318 24.5371C76.5774 24.6046 76.537 24.6823 76.513 24.7656C76.489 24.8489 76.4818 24.9361 76.4918 25.0222C76.5018 25.1083 76.5289 25.1916 76.5714 25.2671C76.6118 25.3434 76.667 25.4109 76.7338 25.4656C76.8005 25.5204 76.8775 25.5613 76.9603 25.5859C77.043 25.6106 77.1298 25.6185 77.2157 25.6093C77.3015 25.6001 77.3847 25.5738 77.4603 25.5321C77.5365 25.4913 77.6039 25.4358 77.6585 25.3689C77.7132 25.3019 77.7541 25.2247 77.7788 25.1419C77.8035 25.0591 77.8115 24.9721 77.8025 24.8862C77.7934 24.8002 77.7674 24.7169 77.726 24.641ZM81.8161 18.889C81.9188 18.832 81.9955 18.7376 82.0301 18.6254C82.0647 18.5131 82.0545 18.3919 82.0016 18.287C81.946 18.1848 81.8522 18.1087 81.7407 18.0754C81.6292 18.042 81.5091 18.0542 81.4065 18.1091C81.355 18.136 81.3094 18.173 81.2724 18.2178C81.2354 18.2626 81.2078 18.3144 81.191 18.37C81.1743 18.4257 81.1689 18.4841 81.1751 18.5419C81.1813 18.5997 81.1989 18.6556 81.227 18.7065C81.2818 18.8079 81.3743 18.8838 81.4844 18.9178C81.5946 18.9518 81.7137 18.9411 81.8161 18.8882V18.889ZM81.8994 20.6834C81.9584 20.6512 82.0106 20.6076 82.0527 20.5552C82.0949 20.5028 82.1263 20.4426 82.1452 20.378C82.164 20.3134 82.1699 20.2457 82.1626 20.1789C82.1552 20.112 82.1347 20.0473 82.1023 19.9883C82.0706 19.929 82.0275 19.8766 81.9755 19.834C81.9235 19.7915 81.8636 19.7596 81.7992 19.7403C81.7348 19.7209 81.6672 19.7145 81.6004 19.7213C81.5335 19.7281 81.4686 19.7481 81.4095 19.7801C81.2901 19.8462 81.2013 19.9564 81.1621 20.0872C81.1229 20.2179 81.1364 20.3588 81.1998 20.4797C81.2672 20.5978 81.3779 20.685 81.5085 20.7229C81.6391 20.7608 81.7793 20.7463 81.8994 20.6826V20.6834ZM81.43 22.4119C81.5676 22.3383 81.6705 22.2132 81.7162 22.064C81.7619 21.9147 81.7466 21.7535 81.6738 21.6154C81.5965 21.4835 81.471 21.3866 81.3238 21.3454C81.1765 21.3042 81.019 21.3218 80.8844 21.3944C80.7499 21.4671 80.6488 21.5892 80.6026 21.735C80.5563 21.8807 80.5685 22.0387 80.6365 22.1757C80.7114 22.3111 80.8363 22.4116 80.9846 22.4558C81.1328 22.5 81.2925 22.4842 81.4292 22.4119H81.43ZM80.4828 23.902C80.5589 23.861 80.6263 23.8054 80.6809 23.7384C80.7355 23.6714 80.7764 23.5942 80.8012 23.5114C80.8259 23.4285 80.8341 23.3416 80.8252 23.2555C80.8163 23.1695 80.7905 23.0861 80.7493 23.0101C80.6876 22.8953 80.5931 22.8013 80.478 22.7402C80.3629 22.6791 80.2322 22.6535 80.1025 22.6667C79.9728 22.6799 79.8499 22.7312 79.7494 22.8143C79.6489 22.8974 79.5754 23.0084 79.538 23.1333C79.5007 23.2582 79.5012 23.3913 79.5396 23.5159C79.578 23.6405 79.6525 23.7509 79.7536 23.8331C79.8548 23.9154 79.9781 23.9657 80.1079 23.9779C80.2377 23.99 80.3681 23.9633 80.4828 23.9012V23.902ZM93.2823 21.4155C93.0305 21.4153 92.7813 21.3656 92.5488 21.269C92.3162 21.1725 92.105 21.0311 91.9271 20.853C91.7493 20.6748 91.6082 20.4634 91.5121 20.2307C91.4159 19.998 91.3665 19.7487 91.3667 19.4969C91.3664 19.2451 91.4159 18.9957 91.5123 18.763C91.6087 18.5303 91.7502 18.319 91.9286 18.1412C92.1069 17.9634 92.3187 17.8226 92.5517 17.7269C92.7846 17.6312 93.0342 17.5825 93.2861 17.5836C93.5379 17.5831 93.7873 17.6324 94.0201 17.7285C94.2529 17.8246 94.4644 17.9657 94.6425 18.1438C94.8206 18.3218 94.9618 18.5332 95.058 18.766C95.1542 18.9987 95.2036 19.2481 95.2032 19.5C95.2021 20.0086 94.9993 20.4961 94.6391 20.8552C94.2789 21.2144 93.7909 21.4159 93.2823 21.4155ZM85.7517 4.88711C85.7809 4.75131 85.783 4.61108 85.7578 4.47449C85.7326 4.3379 85.6806 4.20763 85.6049 4.09118C85.5292 3.97473 85.4312 3.8744 85.3166 3.79594C85.202 3.71749 85.073 3.66247 84.937 3.63404C84.666 3.58334 84.3858 3.64061 84.1564 3.79361C83.9269 3.94662 83.7663 4.18324 83.7089 4.45298C83.6515 4.72272 83.7018 5.00422 83.8491 5.23739C83.9964 5.47057 84.2289 5.63695 84.4972 5.70104C84.7713 5.75942 85.0575 5.70657 85.2927 5.55409C85.528 5.40162 85.6931 5.16199 85.7517 4.88787V4.88711ZM89.5314 7.59011C89.5577 7.424 89.551 7.25433 89.5117 7.0908C89.4724 6.92728 89.4012 6.77311 89.3023 6.63711C89.2034 6.50111 89.0786 6.38594 88.9351 6.29821C88.7916 6.21047 88.6322 6.15188 88.4661 6.12579C88.2998 6.09903 88.1299 6.10536 87.9661 6.14442C87.8022 6.18348 87.6477 6.2545 87.5114 6.3534C87.3751 6.4523 87.2596 6.57714 87.1716 6.72076C87.0837 6.86438 87.0249 7.02396 86.9988 7.19034C86.972 7.35673 86.9784 7.52676 87.0175 7.69068C87.0567 7.8546 87.1278 8.00917 87.2269 8.14551C87.326 8.28185 87.451 8.39728 87.5948 8.48518C87.7386 8.57307 87.8983 8.63169 88.0648 8.65768C88.4008 8.71041 88.744 8.62759 89.019 8.42741C89.294 8.22723 89.4783 7.92608 89.5314 7.59011ZM92.5766 11.104C92.5991 10.8952 92.5801 10.6841 92.5207 10.4827C92.4613 10.2812 92.3627 10.0935 92.2306 9.93032C92.0985 9.76711 91.9354 9.6316 91.7508 9.53157C91.5662 9.43154 91.3636 9.36897 91.1547 9.34744C90.7329 9.30335 90.3108 9.42849 89.9811 9.69538C89.6515 9.96227 89.4413 10.3491 89.3966 10.7709C89.3747 10.9797 89.3942 11.1907 89.4539 11.392C89.5136 11.5933 89.6124 11.7808 89.7445 11.944C89.8767 12.1071 90.0397 12.2425 90.2243 12.3427C90.4088 12.4428 90.6112 12.5056 90.82 12.5274C91.0289 12.5493 91.2399 12.5298 91.4412 12.4701C91.6425 12.4105 91.83 12.3117 91.9931 12.1795C92.1562 12.0473 92.2917 11.8843 92.3918 11.6998C92.492 11.5153 92.5547 11.3128 92.5766 11.104ZM94.4657 15.157C94.4781 14.9261 94.4449 14.6949 94.3678 14.4769C94.2907 14.2589 94.1713 14.0582 94.0165 13.8864C93.8616 13.7146 93.6744 13.5751 93.4655 13.4759C93.2566 13.3766 93.0302 13.3196 92.7992 13.3081C92.568 13.2951 92.3365 13.3279 92.1181 13.4047C91.8996 13.4814 91.6984 13.6005 91.5261 13.7552C91.3539 13.91 91.2138 14.0972 91.1141 14.3062C91.0144 14.5151 90.9569 14.7418 90.945 14.973C90.9264 15.2078 90.9551 15.4439 91.0293 15.6675C91.1035 15.891 91.2217 16.0974 91.377 16.2745C91.5323 16.4516 91.7215 16.5958 91.9334 16.6986C92.1453 16.8013 92.3757 16.8606 92.6109 16.8729C92.8461 16.8852 93.0813 16.8503 93.3028 16.7701C93.5243 16.69 93.7275 16.5663 93.9004 16.4064C94.0733 16.2464 94.2124 16.0535 94.3095 15.8389C94.4066 15.6243 94.4597 15.3924 94.4657 15.157ZM76.9159 2.37718C76.9159 1.95015 76.5706 1.60944 76.1444 1.60944C75.9406 1.60944 75.7453 1.69036 75.6012 1.83441C75.4572 1.97846 75.3762 2.17384 75.3762 2.37756C75.3762 2.58128 75.4572 2.77665 75.6012 2.9207C75.7453 3.06475 75.9406 3.14568 76.1444 3.14568C76.5706 3.14568 76.9166 2.80269 76.9166 2.37642L76.9159 2.37718ZM84.4972 33.2974C84.3572 33.322 84.2236 33.3746 84.1043 33.4519C83.9851 33.5293 83.8827 33.6298 83.8031 33.7476C83.7235 33.8654 83.6685 33.9979 83.6412 34.1374C83.6139 34.2769 83.615 34.4205 83.6444 34.5595C83.6738 34.6986 83.7309 34.8303 83.8122 34.9469C83.8935 35.0634 83.9975 35.1624 84.1179 35.2379C84.2383 35.3134 84.3727 35.364 84.513 35.3865C84.6534 35.409 84.7968 35.403 84.9348 35.3689C85.2015 35.3031 85.4321 35.1362 85.5781 34.9034C85.7241 34.6707 85.7739 34.3904 85.7171 34.1216C85.6604 33.8529 85.5014 33.6167 85.2738 33.4629C85.0462 33.3091 84.7677 33.2498 84.4972 33.2974ZM88.0648 30.3423C87.8984 30.3682 87.7388 30.4268 87.5952 30.5146C87.4515 30.6024 87.3265 30.7177 87.2275 30.8539C87.1285 30.9901 87.0573 31.1444 87.018 31.3082C86.9788 31.4719 86.9722 31.6418 86.9988 31.8081C87.0248 31.9744 87.0835 32.134 87.1714 32.2776C87.2593 32.4212 87.3747 32.5461 87.5109 32.645C87.6472 32.7439 87.8016 32.8149 87.9654 32.854C88.1292 32.893 88.2991 32.8994 88.4653 32.8726C88.6331 32.848 88.7942 32.7904 88.9395 32.7031C89.0848 32.6158 89.2113 32.5005 89.3117 32.364C89.4121 32.2274 89.4845 32.0723 89.5245 31.9076C89.5645 31.7428 89.5714 31.5718 89.5449 31.4044C89.5183 31.237 89.4588 31.0765 89.3698 30.9323C89.2808 30.788 89.164 30.6629 89.0263 30.5641C88.8885 30.4653 88.7326 30.3948 88.5674 30.3567C88.4022 30.3187 88.2311 30.3137 88.0641 30.3423H88.0648ZM90.8193 26.4733C90.6107 26.4952 90.4086 26.558 90.2243 26.658C90.04 26.7581 89.8772 26.8935 89.7452 27.0564C89.6133 27.2194 89.5147 27.4068 89.4551 27.6079C89.3956 27.8089 89.3762 28.0198 89.3981 28.2283C89.4201 28.4369 89.4828 28.6391 89.5829 28.8233C89.683 29.0076 89.8184 29.1704 89.9813 29.3024C90.1443 29.4343 90.3317 29.5329 90.5327 29.5925C90.7338 29.652 90.9446 29.6714 91.1532 29.6495C91.5649 29.5937 91.9386 29.3798 92.1952 29.053C92.4518 28.7263 92.571 28.3125 92.5276 27.8993C92.4842 27.4862 92.2815 27.1062 91.9626 26.8399C91.6437 26.5737 91.2336 26.4422 90.8193 26.4733ZM92.6107 22.1727C92.1445 22.1977 91.7073 22.4067 91.395 22.7538C91.0827 23.1008 90.9208 23.5576 90.945 24.0239C90.9566 24.2553 91.0139 24.4821 91.1135 24.6912C91.2131 24.9004 91.3531 25.0878 91.5255 25.2426C91.6978 25.3974 91.8991 25.5166 92.1177 25.5934C92.3363 25.6701 92.5679 25.7028 92.7992 25.6896C93.0302 25.678 93.2566 25.6209 93.4655 25.5215C93.6743 25.4222 93.8615 25.2826 94.0163 25.1107C94.171 24.9389 94.2903 24.7381 94.3673 24.5201C94.4443 24.302 94.4775 24.0708 94.4649 23.8399C94.4397 23.373 94.2302 22.9351 93.8824 22.6225C93.5346 22.3099 93.0769 22.1481 92.6099 22.1727H92.6107ZM76.1444 35.8543C76.0405 35.8496 75.9367 35.8661 75.8394 35.9027C75.742 35.9393 75.6531 35.9952 75.5779 36.0671C75.5028 36.139 75.443 36.2253 75.4021 36.321C75.3613 36.4166 75.3402 36.5195 75.3402 36.6235C75.3402 36.7275 75.3613 36.8304 75.4021 36.9261C75.443 37.0217 75.5028 37.108 75.5779 37.1799C75.6531 37.2518 75.742 37.3077 75.8394 37.3443C75.9367 37.3809 76.0405 37.3974 76.1444 37.3928C76.2482 37.3974 76.352 37.3809 76.4493 37.3443C76.5467 37.3077 76.6356 37.2518 76.7108 37.1799C76.7859 37.108 76.8457 37.0217 76.8866 36.9261C76.9274 36.8304 76.9485 36.7275 76.9485 36.6235C76.9485 36.5195 76.9274 36.4166 76.8866 36.321C76.8457 36.2253 76.7859 36.139 76.7108 36.0671C76.6356 35.9952 76.5467 35.9393 76.4493 35.9027C76.352 35.8661 76.2482 35.8496 76.1444 35.8543ZM59.0064 21.4155C59.5145 21.4145 60.0015 21.2119 60.3604 20.8522C60.7192 20.4925 60.9207 20.0051 60.9205 19.4969C60.9207 19.2456 60.8713 18.9967 60.7752 18.7645C60.679 18.5322 60.538 18.3212 60.3602 18.1436C60.1824 17.9659 59.9713 17.8251 59.739 17.7291C59.5067 17.6332 59.2578 17.584 59.0064 17.5844C58.4984 17.5844 58.0111 17.7862 57.6519 18.1455C57.2927 18.5047 57.0909 18.9919 57.0909 19.5C57.0909 20.008 57.2927 20.4952 57.6519 20.8545C58.0111 21.2137 58.4984 21.4155 59.0064 21.4155ZM67.7923 5.70104C67.9283 5.67243 68.0574 5.61724 68.172 5.53864C68.2866 5.46003 68.3846 5.35956 68.4603 5.24299C68.536 5.12642 68.5879 4.99605 68.6131 4.85935C68.6383 4.72266 68.6362 4.58234 68.607 4.44645C68.5782 4.31059 68.5229 4.18175 68.4442 4.06732C68.3655 3.95289 68.265 3.85513 68.1484 3.77965C68.0319 3.70416 67.9016 3.65244 67.765 3.62746C67.6283 3.60247 67.4881 3.6047 67.3524 3.63404C67.2135 3.65956 67.0811 3.71268 66.963 3.79024C66.8449 3.86781 66.7436 3.96826 66.665 4.08565C66.5865 4.20304 66.5322 4.33499 66.5055 4.47371C66.4788 4.61242 66.4801 4.75509 66.5095 4.89327C66.5388 5.03145 66.5956 5.16234 66.6764 5.27821C66.7572 5.39408 66.8604 5.49258 66.9799 5.56789C67.0995 5.64319 67.2329 5.69377 67.3723 5.71664C67.5117 5.73951 67.6542 5.7342 67.7916 5.70104H67.7923ZM64.2262 8.65768C64.3925 8.63133 64.5519 8.57249 64.6955 8.4845C64.839 8.39652 64.9639 8.28113 65.0628 8.14491C65.1618 8.00869 65.2329 7.85431 65.2722 7.69059C65.3115 7.52687 65.3182 7.35701 65.2918 7.19071C65.2655 7.02442 65.2066 6.86494 65.1187 6.72139C65.0307 6.57783 64.9153 6.45301 64.7791 6.35406C64.6429 6.2551 64.4885 6.18394 64.3248 6.14465C64.161 6.10535 63.9912 6.09869 63.8249 6.12504C63.489 6.17825 63.1881 6.3627 62.9882 6.63781C62.7884 6.91292 62.706 7.25615 62.7592 7.592C62.8124 7.92785 62.9969 8.2288 63.272 8.42866C63.5471 8.62851 63.8903 8.71089 64.2262 8.65768ZM61.4671 12.5267C61.6759 12.5048 61.8783 12.4419 62.0627 12.3418C62.2472 12.2416 62.4102 12.1062 62.5423 11.943C62.6744 11.7799 62.7731 11.5924 62.8327 11.3911C62.8923 11.1899 62.9117 10.9789 62.8898 10.7701C62.8679 10.5614 62.8051 10.359 62.7049 10.1745C62.6048 9.99002 62.4693 9.82708 62.3062 9.69497C62.1431 9.56287 61.9555 9.46418 61.7543 9.40455C61.553 9.34492 61.342 9.32551 61.1332 9.34744C60.9242 9.36877 60.7214 9.43124 60.5366 9.53125C60.3518 9.63125 60.1886 9.76682 60.0563 9.93015C59.9241 10.0935 59.8255 10.2813 59.7661 10.4829C59.7068 10.6845 59.6879 10.8958 59.7106 11.1048C59.7324 11.3136 59.7951 11.516 59.8953 11.7005C59.9954 11.885 60.1309 12.048 60.294 12.1802C60.4571 12.3123 60.6447 12.411 60.846 12.4705C61.0473 12.5301 61.2584 12.5495 61.4671 12.5274V12.5267ZM59.678 16.8273C60.1446 16.8022 60.5822 16.5931 60.8948 16.2457C61.2074 15.8984 61.3694 15.4412 61.3452 14.9745C61.3336 14.7431 61.2763 14.5162 61.1767 14.307C61.077 14.0978 60.9369 13.9104 60.7645 13.7555C60.5921 13.6007 60.3907 13.4815 60.172 13.4048C59.9533 13.3282 59.7216 13.2955 59.4902 13.3088C59.2591 13.3204 59.0326 13.3775 58.8236 13.4768C58.6146 13.5761 58.4272 13.7157 58.2722 13.8875C58.1172 14.0593 57.9976 14.26 57.9202 14.4781C57.8429 14.6962 57.8094 14.9274 57.8215 15.1585C57.8471 15.6257 58.0569 16.0637 58.4049 16.3765C58.7529 16.6893 59.2107 16.8514 59.678 16.8273ZM66.5377 34.1113C66.4788 34.3858 66.5313 34.6725 66.6837 34.9083C66.8362 35.144 67.076 35.3096 67.3505 35.3685C67.625 35.4275 67.9117 35.375 68.1475 35.2225C68.3832 35.0701 68.5488 34.8303 68.6078 34.5558C68.6369 34.4198 68.6391 34.2795 68.614 34.1428C68.589 34.006 68.5372 33.8755 68.4617 33.7588C68.3863 33.6421 68.2885 33.5413 68.1741 33.4623C68.0597 33.3834 67.9309 33.3277 67.795 33.2985C67.659 33.2693 67.5187 33.2672 67.382 33.2923C67.2452 33.3173 67.1147 33.3691 66.998 33.4445C66.8813 33.52 66.7805 33.6177 66.7015 33.7321C66.6226 33.8465 66.5669 33.9754 66.5377 34.1113ZM62.7596 31.4083C62.7328 31.5745 62.7392 31.7443 62.7783 31.9079C62.8174 32.0716 62.8884 32.226 62.9873 32.3621C63.0862 32.4983 63.2111 32.6135 63.3547 32.7013C63.4983 32.789 63.6578 32.8475 63.8241 32.8734C64.1597 32.9266 64.5026 32.8443 64.7775 32.6447C65.0524 32.4451 65.2367 32.1444 65.29 31.8088C65.3432 31.4733 65.2609 31.1303 65.0613 30.8554C64.8616 30.5806 64.561 30.3962 64.2254 30.343C64.0593 30.3167 63.8895 30.3234 63.726 30.3627C63.5624 30.402 63.4082 30.4731 63.2721 30.5721C63.136 30.671 63.0208 30.7958 62.933 30.9393C62.8452 31.0827 62.7865 31.2421 62.7603 31.4083H62.7596ZM59.7128 27.8952C59.6904 28.1038 59.7094 28.3147 59.7688 28.516C59.8281 28.7172 59.9267 28.9047 60.0587 29.0677C60.1908 29.2308 60.3538 29.3661 60.5383 29.4659C60.7228 29.5657 60.9253 29.6281 61.134 29.6495C61.3427 29.672 61.5538 29.6531 61.7551 29.5939C61.9565 29.5346 62.1442 29.4362 62.3074 29.3042C62.4706 29.1722 62.6061 29.0093 62.7062 28.8248C62.8063 28.6403 62.8689 28.4379 62.8906 28.2291C62.9344 27.8075 62.8091 27.3858 62.5422 27.0566C62.2753 26.7273 61.8886 26.5175 61.4671 26.4733C61.2585 26.4511 61.0476 26.4704 60.8465 26.5299C60.6453 26.5894 60.4579 26.6881 60.2949 26.8202C60.1319 26.9523 59.9966 27.1152 59.8968 27.2997C59.7969 27.4841 59.7344 27.6865 59.7128 27.8952ZM57.8215 23.8407C57.8097 24.0716 57.8434 24.3027 57.9209 24.5206C57.9983 24.7385 58.118 24.9391 58.2729 25.1108C58.4279 25.2824 58.6151 25.4219 58.824 25.5213C59.0329 25.6206 59.2593 25.6778 59.4902 25.6896C59.7216 25.7028 59.9533 25.6701 60.172 25.5934C60.3907 25.5167 60.5921 25.3975 60.7645 25.2427C60.937 25.0879 61.0772 24.9005 61.177 24.6914C61.2767 24.4822 61.3342 24.2553 61.346 24.0239C61.3703 23.5565 61.2079 23.0986 60.8946 22.751C60.5813 22.4033 60.1427 22.1943 59.6754 22.17C59.208 22.1457 58.7501 22.3081 58.4024 22.6214C58.0548 22.9347 57.8458 23.3733 57.8215 23.8407ZM80.3662 35.241C80.2614 35.2691 80.1632 35.3175 80.0772 35.3835C79.9912 35.4496 79.919 35.5319 79.8648 35.6258C79.8106 35.7198 79.7754 35.8235 79.7613 35.931C79.7472 36.0385 79.7543 36.1478 79.7824 36.2525C79.8105 36.3573 79.859 36.4554 79.925 36.5415C79.991 36.6275 80.0734 36.6997 80.1673 36.7539C80.2612 36.8081 80.3649 36.8433 80.4724 36.8574C80.58 36.8715 80.6892 36.8644 80.794 36.8363C80.9962 36.7714 81.1657 36.6312 81.2673 36.4448C81.369 36.2584 81.395 36.0399 81.34 35.8348C81.285 35.6297 81.1532 35.4537 80.9719 35.3431C80.7906 35.2325 80.5737 35.196 80.3662 35.241ZM71.9218 35.241C71.817 35.2129 71.7078 35.2057 71.6002 35.2198C71.4927 35.234 71.389 35.2691 71.2951 35.3233C71.2012 35.3776 71.1188 35.4497 71.0528 35.5358C70.9868 35.6218 70.9383 35.72 70.9102 35.8247C70.8821 35.9295 70.875 36.0387 70.8891 36.1463C70.9032 36.2538 70.9384 36.3575 70.9926 36.4514C71.0468 36.5453 71.119 36.6277 71.205 36.6937C71.291 36.7597 71.3892 36.8082 71.494 36.8363C71.5989 36.8646 71.7084 36.8719 71.8162 36.8579C71.924 36.8439 72.028 36.8088 72.1222 36.7546C72.2164 36.7004 72.299 36.6281 72.3653 36.542C72.4316 36.4558 72.4803 36.3575 72.5085 36.2525C72.5365 36.1476 72.5434 36.0381 72.529 35.9305C72.5146 35.8229 72.4792 35.7191 72.4247 35.6252C72.3702 35.5313 72.2977 35.449 72.2114 35.3831C72.1252 35.3171 72.0267 35.2688 71.9218 35.241ZM81.3815 3.17445C81.4097 3.06955 81.4168 2.9601 81.4025 2.85242C81.3882 2.74475 81.3527 2.64097 81.2981 2.54707C81.2435 2.45318 81.1708 2.37103 81.0843 2.30535C80.9978 2.23968 80.8991 2.19178 80.794 2.16442C80.5851 2.11533 80.3654 2.14948 80.1813 2.25965C79.9972 2.36981 79.8633 2.54733 79.8078 2.75457C79.7524 2.96182 79.7799 3.1825 79.8844 3.36985C79.9889 3.5572 80.1622 3.69649 80.3677 3.75821C80.5794 3.81517 80.8051 3.78577 80.9952 3.67646C81.1853 3.56715 81.3242 3.38687 81.3815 3.17521V3.17445ZM72.5093 2.74666C72.4811 2.64169 72.4325 2.5433 72.3662 2.45717C72.2999 2.37104 72.2173 2.29885 72.123 2.24475C72.0287 2.19064 71.9247 2.1557 71.8169 2.14191C71.7091 2.12813 71.5996 2.13578 71.4947 2.16442C71.0541 2.28102 70.7906 2.73228 70.9095 3.17294C70.9718 3.37846 71.1116 3.55172 71.2993 3.65617C71.4869 3.76062 71.7078 3.7881 71.9153 3.7328C72.1229 3.6775 72.3008 3.54376 72.4116 3.35978C72.5225 3.1758 72.5575 2.95597 72.5093 2.74666ZM89.0256 15.5818C88.6605 15.7382 88.2482 15.7434 87.8792 15.5964C87.5102 15.4494 87.2146 15.162 87.0571 14.7974C86.979 14.6168 86.9375 14.4227 86.9347 14.2261C86.9319 14.0295 86.968 13.8342 87.0409 13.6516C87.1138 13.469 87.222 13.3025 87.3594 13.1619C87.4968 13.0212 87.6606 12.909 87.8415 12.8318C88.0219 12.7537 88.2159 12.7119 88.4125 12.7089C88.6091 12.7059 88.8044 12.7417 88.9871 12.8143C89.1698 12.8869 89.3365 12.9948 89.4774 13.1319C89.6184 13.269 89.7309 13.4325 89.8085 13.6132C89.9656 13.9781 89.9714 14.3904 89.8246 14.7596C89.6778 15.1287 89.3904 15.4244 89.0256 15.5818ZM78.5089 6.05841C78.4881 5.95183 78.4464 5.85042 78.3862 5.76003C78.3261 5.66964 78.2486 5.59205 78.1583 5.53174C78.068 5.47142 77.9666 5.42957 77.8601 5.4086C77.7536 5.38762 77.6439 5.38794 77.5375 5.40954C77.3775 5.44157 77.2306 5.52032 77.1153 5.63584C77 5.75136 76.9216 5.89846 76.8899 6.05854C76.8582 6.21862 76.8747 6.3845 76.9373 6.53522C76.9999 6.68593 77.1057 6.81471 77.2415 6.90528C77.3772 6.99585 77.5368 7.04414 77.7 7.04405C77.8631 7.04396 78.0226 6.99549 78.1583 6.90478C78.2939 6.81406 78.3996 6.68516 78.4621 6.53438C78.5245 6.3836 78.5408 6.2177 78.5089 6.05765V6.05841ZM82.0569 6.82842C82.0245 6.70101 81.9672 6.58125 81.8885 6.476C81.8097 6.37074 81.7109 6.28206 81.5979 6.21503C81.4848 6.148 81.3595 6.10395 81.2294 6.08539C81.0992 6.06683 80.9667 6.07412 80.8394 6.10686C80.7119 6.13902 80.592 6.19605 80.4866 6.27468C80.3812 6.35332 80.2924 6.45201 80.2253 6.56507C80.1582 6.67814 80.1141 6.80336 80.0955 6.93353C80.0769 7.06371 80.0843 7.19627 80.1171 7.32359C80.2534 7.85889 80.8 8.18295 81.3353 8.04364C81.5921 7.97815 81.8124 7.81334 81.9478 7.58545C82.0831 7.35756 82.1223 7.08525 82.0569 6.82842ZM85.3277 8.40555C85.2792 8.24901 85.2002 8.10361 85.0952 7.9777C84.9903 7.85179 84.8615 7.74785 84.7163 7.67187C84.5711 7.59588 84.4123 7.54934 84.2491 7.53492C84.0858 7.5205 83.9213 7.53848 83.765 7.58784C83.6085 7.63626 83.463 7.7151 83.337 7.81982C83.211 7.92455 83.1069 8.05311 83.0307 8.19814C82.9544 8.34317 82.9075 8.50182 82.8927 8.66499C82.8779 8.82817 82.8954 8.99267 82.9443 9.14907C83.0439 9.46451 83.2644 9.72766 83.5575 9.88091C83.8507 10.0342 84.1926 10.065 84.5085 9.96678C84.8241 9.86831 85.0877 9.64854 85.2414 9.35577C85.395 9.06301 85.426 8.72122 85.3277 8.40555ZM87.9361 10.7292C87.8737 10.5597 87.7784 10.4042 87.6558 10.2715C87.5332 10.1389 87.3857 10.0317 87.2216 9.9562C87.0575 9.88067 86.8801 9.83824 86.6996 9.83135C86.5191 9.82446 86.339 9.85324 86.1697 9.91605C85.9998 9.97807 85.8438 10.0731 85.7107 10.1956C85.5777 10.3181 85.4701 10.4658 85.3944 10.63C85.3186 10.7943 85.276 10.9719 85.2691 11.1526C85.2622 11.3334 85.2912 11.5137 85.3542 11.6832C85.4904 12.0123 85.7487 12.2759 86.075 12.4186C86.4013 12.5614 86.7702 12.5721 87.1043 12.4487C87.4383 12.3253 87.7116 12.0772 87.8667 11.7566C88.0218 11.436 88.0467 11.0678 87.9361 10.7292ZM71.3986 6.98818C71.3675 6.9153 71.3223 6.8493 71.2656 6.79397C71.2089 6.73864 71.1418 6.69508 71.0682 6.6658C70.9946 6.63652 70.9159 6.6221 70.8366 6.62337C70.7574 6.62464 70.6792 6.64158 70.6066 6.67321C70.5339 6.7042 70.468 6.7493 70.4127 6.8059C70.3575 6.8625 70.314 6.92947 70.2848 7.00296C70.2556 7.07645 70.2412 7.155 70.2425 7.23407C70.2438 7.31315 70.2608 7.39118 70.2924 7.46367C70.4241 7.76652 70.7792 7.90584 71.0836 7.77561C71.1561 7.74467 71.2217 7.69974 71.2768 7.6434C71.3318 7.58705 71.3752 7.52039 71.4045 7.44725C71.4337 7.3741 71.4483 7.2959 71.4473 7.21713C71.4463 7.13835 71.4297 7.06055 71.3986 6.98818ZM86.4036 26.8125C86.3151 26.8753 86.2398 26.955 86.182 27.0469C86.1243 27.1388 86.0852 27.2412 86.067 27.3483C86.0489 27.4553 86.0519 27.5649 86.0761 27.6708C86.1003 27.7766 86.1451 27.8767 86.2079 27.9652C86.2708 28.0537 86.3504 28.129 86.4424 28.1868C86.5343 28.2446 86.6367 28.2836 86.7438 28.3018C86.8508 28.32 86.9604 28.3169 87.0662 28.2927C87.1721 28.2685 87.2721 28.2238 87.3607 28.1609C87.5395 28.034 87.6606 27.8413 87.6973 27.6251C87.734 27.4089 87.6833 27.187 87.5564 27.0082C87.4295 26.8294 87.2367 26.7083 87.0205 26.6716C86.8044 26.6349 86.5825 26.6855 86.4036 26.8125ZM88.0466 23.5908C87.9355 23.6611 87.8393 23.7526 87.7636 23.8601C87.6878 23.9675 87.634 24.0889 87.6051 24.2171C87.5763 24.3454 87.573 24.4781 87.5954 24.6077C87.6178 24.7372 87.6655 24.8611 87.7358 24.9722C87.8061 25.0833 87.8976 25.1795 88.0051 25.2553C88.1126 25.331 88.2339 25.3849 88.3622 25.4137C88.4904 25.4426 88.6231 25.4459 88.7527 25.4235C88.8823 25.401 89.0061 25.3533 89.1172 25.283C89.3416 25.1412 89.5005 24.916 89.5588 24.657C89.6172 24.398 89.5703 24.1264 89.4284 23.902C89.2866 23.6776 89.0613 23.5187 88.8024 23.4604C88.5434 23.402 88.2718 23.4489 88.0474 23.5908H88.0466ZM88.825 19.9664C88.6821 20.0466 88.5564 20.1542 88.4551 20.283C88.3538 20.4118 88.2789 20.5593 88.2346 20.7171C88.1903 20.8749 88.1775 21.0398 88.197 21.2025C88.2164 21.3652 88.2677 21.5225 88.348 21.6654C88.5107 21.9533 88.781 22.1649 89.0996 22.2536C89.4181 22.3424 89.7589 22.301 90.047 22.1386C90.3254 21.9716 90.5277 21.7026 90.6109 21.3887C90.6941 21.0749 90.6516 20.741 90.4924 20.458C90.3333 20.175 90.07 19.9652 89.7587 19.8733C89.4473 19.7813 89.1123 19.8145 88.825 19.9656V19.9664ZM88.7773 16.3306C88.4512 16.4931 88.2027 16.7781 88.0862 17.1233C87.9697 17.4685 87.9947 17.8458 88.1557 18.1727C88.2357 18.3349 88.3471 18.4797 88.4832 18.5988C88.6194 18.7178 88.7778 18.8088 88.9492 18.8665C89.1207 18.9242 89.3018 18.9474 89.4823 18.9349C89.6628 18.9224 89.839 18.8744 90.0008 18.7936C90.1629 18.7138 90.3076 18.6029 90.4267 18.4671C90.5457 18.3312 90.6367 18.1732 90.6945 18.0021C90.7523 17.831 90.7756 17.6501 90.7633 17.47C90.7509 17.2898 90.703 17.1138 90.6224 16.9522C90.459 16.6261 90.1734 16.3779 89.8278 16.2616C89.4821 16.1453 89.1045 16.1704 88.7773 16.3313V16.3306ZM81.2074 31.2258C81.0612 31.2889 80.946 31.4074 80.8872 31.5554C80.8285 31.7033 80.8309 31.8686 80.8939 32.0148C80.957 32.161 81.0755 32.2761 81.2235 32.3349C81.3714 32.3937 81.5367 32.3913 81.6828 32.3282C81.7568 32.2981 81.8241 32.2535 81.8806 32.1971C81.9372 32.1407 81.9819 32.0735 82.0122 31.9996C82.0424 31.9256 82.0576 31.8464 82.0569 31.7665C82.0562 31.6866 82.0395 31.6077 82.0078 31.5343C81.9762 31.461 81.9302 31.3947 81.8726 31.3393C81.815 31.2839 81.747 31.2406 81.6724 31.2119C81.5979 31.1831 81.5183 31.1696 81.4385 31.172C81.3586 31.1744 81.2801 31.1927 81.2074 31.2258ZM64.4503 26.1689C64.6347 26.0936 64.8023 25.9823 64.9431 25.8414C65.084 25.7005 65.1953 25.533 65.2706 25.3485C65.3458 25.1641 65.3835 24.9665 65.3814 24.7673C65.3793 24.5681 65.3375 24.3713 65.2584 24.1885C65.1793 24.0057 65.0645 23.8405 64.9207 23.7026C64.7769 23.5647 64.6071 23.4569 64.4211 23.3856C64.2351 23.3142 64.0368 23.2806 63.8377 23.2869C63.6385 23.2931 63.4427 23.339 63.2616 23.422C62.9055 23.585 62.6275 23.881 62.4872 24.2465C62.3469 24.6121 62.3554 25.0181 62.5109 25.3775C62.6664 25.7369 62.9565 26.021 63.3191 26.1689C63.6816 26.3169 64.0877 26.3168 64.4503 26.1689ZM65.8858 12.1867C66.0643 12.0602 66.1853 11.868 66.2221 11.6523C66.2588 11.4366 66.2084 11.2151 66.0819 11.0366C66.0193 10.9482 65.9398 10.873 65.8481 10.8153C65.7564 10.7577 65.6543 10.7186 65.5475 10.7004C65.3318 10.6636 65.1103 10.714 64.9318 10.8405C64.8427 10.9028 64.7669 10.9822 64.7086 11.074C64.6503 11.1658 64.6108 11.2682 64.5924 11.3754C64.574 11.4825 64.5769 11.5922 64.6011 11.6982C64.6253 11.8042 64.6703 11.9044 64.7335 11.9929C64.9985 12.3624 65.5141 12.4517 65.8858 12.1867ZM64.2428 15.4091C64.3588 15.3412 64.4599 15.2507 64.5401 15.1429C64.6204 15.0351 64.6781 14.9123 64.7099 14.7818C64.7417 14.6512 64.7469 14.5156 64.7252 14.383C64.7035 14.2504 64.6554 14.1235 64.5836 14.0099C64.5119 13.8962 64.418 13.7982 64.3076 13.7216C64.1972 13.645 64.0725 13.5915 63.941 13.564C63.8094 13.5366 63.6737 13.536 63.5419 13.5621C63.4101 13.5883 63.2849 13.6406 63.1737 13.7162C62.9569 13.8615 62.8054 14.0857 62.7514 14.341C62.6974 14.5964 62.7452 14.8627 62.8846 15.0834C63.024 15.304 63.2441 15.4615 63.4979 15.5224C63.7517 15.5832 64.0193 15.5426 64.2436 15.4091H64.2428ZM63.4637 19.0343C63.7519 18.8722 63.9638 18.6022 64.0529 18.2838C64.142 17.9654 64.101 17.6246 63.9388 17.3364C63.7767 17.0483 63.5067 16.8363 63.1883 16.7472C62.8699 16.6581 62.5291 16.6992 62.2409 16.8613C62.0978 16.9409 61.9718 17.048 61.8703 17.1765C61.7687 17.305 61.6936 17.4523 61.6492 17.61C61.6049 17.7676 61.5922 17.9325 61.6119 18.0951C61.6316 18.2577 61.6833 18.4148 61.7639 18.5573C61.9261 18.8459 62.1963 19.0583 62.5151 19.1478C62.8338 19.2372 63.1751 19.1964 63.4637 19.0343ZM63.5107 22.6701C63.6727 22.5902 63.8174 22.479 63.9364 22.3431C64.0555 22.2072 64.1466 22.0491 64.2044 21.8779C64.2623 21.7067 64.2859 21.5258 64.2738 21.3455C64.2616 21.1653 64.2141 20.9891 64.1338 20.8272C64.0538 20.6648 63.9425 20.5197 63.8062 20.4005C63.6699 20.2812 63.5114 20.19 63.3398 20.1323C63.1681 20.0745 62.9868 20.0512 62.8061 20.0638C62.6255 20.0764 62.4491 20.1246 62.2871 20.2056C61.9603 20.368 61.7114 20.6535 61.5951 20.9994C61.4788 21.3453 61.5047 21.7232 61.667 22.05C61.8294 22.3768 62.1149 22.6258 62.4608 22.7421C62.8067 22.8584 63.1846 22.8325 63.5114 22.6701H63.5107ZM73.779 32.9446C73.7999 33.0512 73.8417 33.1527 73.9018 33.2432C73.962 33.3338 74.0395 33.4115 74.1298 33.472C74.2201 33.5325 74.3214 33.5746 74.428 33.5959C74.5346 33.6172 74.6444 33.6172 74.751 33.596C74.8576 33.5748 74.9589 33.5327 75.0493 33.4723C75.1396 33.4118 75.2171 33.3341 75.2773 33.2436C75.3375 33.1531 75.3793 33.0516 75.4003 32.945C75.4212 32.8383 75.4209 32.7285 75.3993 32.622C75.356 32.4077 75.2294 32.2194 75.0474 32.0982C74.8654 31.9771 74.6428 31.933 74.4284 31.9757C74.214 32.0184 74.0252 32.1443 73.9035 32.3259C73.7818 32.5075 73.737 32.73 73.779 32.9446ZM70.2348 32.1723C70.3704 32.7098 70.9148 33.0301 71.4516 32.8938C71.7086 32.828 71.929 32.6627 72.0641 32.4344C72.1993 32.206 72.2382 31.9334 72.1724 31.6763C72.1065 31.4193 71.9412 31.199 71.7129 31.0638C71.4846 30.9286 71.2119 30.8897 70.9549 30.9555C70.8277 30.9881 70.7082 31.0454 70.6031 31.1242C70.4981 31.203 70.4096 31.3017 70.3428 31.4147C70.2759 31.5277 70.232 31.6528 70.2134 31.7828C70.1949 31.9127 70.2022 32.0451 70.2348 32.1723ZM66.961 30.5951C67.0094 30.7517 67.0884 30.8971 67.1933 31.0231C67.2982 31.149 67.4271 31.2528 67.5723 31.3287C67.7176 31.4046 67.8765 31.451 68.0398 31.4651C68.203 31.4793 68.3675 31.461 68.5237 31.4113C68.6804 31.3634 68.8261 31.285 68.9523 31.1805C69.0786 31.076 69.1829 30.9475 69.2593 30.8026C69.3356 30.6576 69.3825 30.4989 69.3973 30.3357C69.412 30.1725 69.3943 30.008 69.3452 29.8516C69.2458 29.5355 69.025 29.2717 68.7313 29.1181C68.4376 28.9646 68.0951 28.9337 67.7787 29.0324C67.6223 29.0812 67.4771 29.1604 67.3513 29.2654C67.2256 29.3703 67.1218 29.4991 67.0458 29.6442C66.9699 29.7894 66.9233 29.9481 66.9087 30.1112C66.8942 30.2744 66.9119 30.4388 66.961 30.5951ZM64.3519 28.2692C64.4142 28.439 64.5094 28.5949 64.6322 28.7278C64.7549 28.8606 64.9028 28.968 65.0671 29.0435C65.2315 29.1191 65.4092 29.1614 65.59 29.1681C65.7707 29.1748 65.9511 29.1456 66.1205 29.0824C66.4529 28.949 66.7202 28.6911 66.8653 28.3637C67.0105 28.0362 67.0222 27.6651 66.8979 27.3292C66.7736 26.9932 66.5231 26.7191 66.1998 26.565C65.8764 26.411 65.5057 26.3892 65.1665 26.5043C64.8248 26.6307 64.5471 26.8875 64.3944 27.2184C64.2417 27.5492 64.2264 27.9271 64.3519 28.2692ZM84.0421 29.4821C83.9087 29.5887 83.8228 29.7436 83.8031 29.9132C83.7833 30.0828 83.8314 30.2534 83.9369 30.3877C83.9895 30.4543 84.0548 30.51 84.1289 30.5514C84.2031 30.5929 84.2847 30.6193 84.369 30.6292C84.4534 30.6391 84.5389 30.6323 84.6206 30.6092C84.7024 30.5861 84.7788 30.5471 84.8454 30.4944C84.9121 30.4418 84.9677 30.3765 85.0092 30.3024C85.0506 30.2282 85.0771 30.1466 85.087 30.0623C85.0969 29.9779 85.0901 29.8924 85.067 29.8107C85.0438 29.7289 85.0048 29.6525 84.9522 29.5859C84.8448 29.452 84.689 29.366 84.5185 29.3466C84.348 29.3272 84.1768 29.3759 84.0421 29.4821ZM77.9888 32.0897C77.8196 32.115 77.6673 32.2062 77.5652 32.3434C77.463 32.4806 77.4193 32.6526 77.4436 32.8219C77.4558 32.9058 77.4845 32.9865 77.528 33.0593C77.5715 33.1321 77.629 33.1955 77.6971 33.2461C77.7652 33.2966 77.8426 33.3331 77.9249 33.3536C78.0072 33.3741 78.0927 33.3782 78.1765 33.3655C78.3414 33.3359 78.4884 33.2433 78.5862 33.1072C78.6841 32.9712 78.7251 32.8024 78.7007 32.6367C78.6763 32.4709 78.5884 32.3211 78.4555 32.219C78.3226 32.1169 78.1552 32.0706 77.9888 32.0897ZM74.8466 6.17804C74.8341 6.09413 74.8052 6.01351 74.7615 5.94079C74.7178 5.86807 74.6602 5.80469 74.592 5.75426C74.5238 5.70383 74.4463 5.66736 74.364 5.64692C74.2816 5.62649 74.1961 5.62249 74.1122 5.63517C74.0254 5.64386 73.9412 5.67006 73.8649 5.7122C73.7885 5.75433 73.7214 5.81152 73.6678 5.88031C73.6141 5.94909 73.575 6.02805 73.5527 6.11239C73.5305 6.19674 73.5255 6.28473 73.5382 6.37103C73.5509 6.45733 73.581 6.54016 73.6267 6.61451C73.6723 6.68885 73.7325 6.75317 73.8037 6.80357C73.8749 6.85397 73.9556 6.88941 74.0409 6.90773C74.1262 6.92606 74.2143 6.9269 74.2999 6.91019C74.652 6.85719 74.8981 6.53162 74.8466 6.17804Z" fill="#9C9C9C"/>
</g>
</g>
<g clip-path="url(#clip2_1_27)">
<g clip-path="url(#clip3_1_27)">
<path fill-rule="evenodd" clip-rule="evenodd" d="M251.155 0.40625H260.009C264.266 0.40625 265.173 3.08546 265.173 4.93106C265.173 6.75048 264.38 7.73629 263.18 8.4691C264.629 9.02452 265.988 10.3147 265.988 12.9677C265.988 16.5833 263.18 18.4531 260.327 18.4531H251.153V0.40625H251.155ZM256.136 7.43386H258.763C259.805 7.43386 260.463 7.10429 260.463 5.9411C260.463 5.0309 259.782 4.70327 258.763 4.70327H256.137V7.43192L256.136 7.43386ZM256.136 14.1561H259.058C260.1 14.1561 261.006 13.8275 261.006 12.4375C261.006 11.3761 260.439 10.7945 259.262 10.7945H256.137V14.1561H256.136Z" fill="#9C9C9C"/>
<path fill-rule="evenodd" clip-rule="evenodd" d="M266.429 0.40625H270.913V18.4531H266.429V0.40625Z" fill="#9C9C9C"/>
<path fill-rule="evenodd" clip-rule="evenodd" d="M278.304 18.7817C273.888 18.7817 271.895 15.5209 271.895 11.8811C271.895 8.24128 273.888 5.00568 278.304 5.00568C282.72 5.00568 284.712 8.24128 284.712 11.8811C284.712 15.5209 282.72 18.7817 278.304 18.7817ZM278.304 8.64646C276.606 8.64646 276.379 10.4911 276.379 11.8811C276.379 13.2711 276.606 15.1419 278.304 15.1419C280.002 15.1419 280.229 13.2711 280.229 11.8811C280.229 10.4911 280.002 8.64646 278.304 8.64646Z" fill="#9C9C9C"/>
<path fill-rule="evenodd" clip-rule="evenodd" d="M292.17 18.7817C287.754 18.7817 285.761 15.5209 285.761 11.8811C285.761 8.24128 287.754 5.00568 292.17 5.00568C296.586 5.00568 298.579 8.24128 298.579 11.8811C298.579 15.5209 296.586 18.7817 292.17 18.7817ZM292.17 8.64646C290.471 8.64646 290.245 10.4911 290.245 11.8811C290.245 13.2711 290.471 15.1419 292.17 15.1419C293.868 15.1419 294.095 13.2711 294.095 11.8811C294.095 10.4911 293.868 8.64646 292.17 8.64646Z" fill="#9C9C9C"/>
<path fill-rule="evenodd" clip-rule="evenodd" d="M300.139 5.33525H304.465V7.07906H304.51C305.416 5.56207 306.729 5.00568 308.36 5.00568C309.628 5.00568 310.987 5.73946 311.53 7.05386C311.712 6.90168 312.617 5.00568 315.539 5.00568C318.551 5.00568 319.57 7.33206 319.57 9.45488V18.4531H315.086V11.3509C315.086 10.1121 314.973 8.9993 313.614 8.9993C312.481 8.9993 312.097 9.9851 312.097 11.3509V18.4531H307.612V11.3509C307.612 10.1121 307.5 8.9993 306.141 8.9993C305.008 8.9993 304.623 9.9851 304.623 11.3509V18.4531H300.139V5.33525Z" fill="#9C9C9C"/>
<path fill-rule="evenodd" clip-rule="evenodd" d="M321.22 0.40625H325.704V6.77569H325.749C326.429 5.66387 327.629 5.0057 328.966 5.0057C332.905 5.0057 333.97 8.74729 333.97 11.8307C333.97 15.1167 332.361 18.7808 329.033 18.7808C326.836 18.7808 326.157 17.8463 325.591 17.0118H325.545V18.4531H321.22V0.40625ZM327.516 8.64648C325.908 8.64648 325.545 10.3399 325.545 11.8811C325.545 13.4485 325.908 15.1419 327.516 15.1419C329.124 15.1419 329.486 13.4485 329.486 11.8811C329.486 10.3399 329.124 8.64648 327.516 8.64648Z" fill="#9C9C9C"/>
<path fill-rule="evenodd" clip-rule="evenodd" d="M339.198 13.0181C339.311 14.5099 340.08 15.5713 341.486 15.5713C342.21 15.5713 343.003 15.2679 343.365 14.6359H347.554C346.648 17.4673 344.18 18.7817 341.508 18.7817C337.749 18.7817 334.916 16.3051 334.916 11.9325C334.916 8.11527 337.409 5.00568 341.123 5.00568C345.787 5.00568 347.804 7.91268 347.804 13.0181H339.199H339.198ZM343.501 10.4145C343.501 9.20285 342.685 8.21608 341.53 8.21608C340.194 8.21608 339.424 8.9993 339.22 10.4145H343.501Z" fill="#9C9C9C"/>
<path fill-rule="evenodd" clip-rule="evenodd" d="M348.759 5.33524H353.063V7.43189H353.108C353.833 5.86449 354.785 5.0047 356.415 5.0047C356.868 5.0047 357.297 5.08128 357.728 5.20826V9.63032C357.276 9.4539 356.868 9.30269 355.961 9.30269C354.195 9.30269 353.244 10.4649 353.244 13.2701V18.4521H348.759V5.33524Z" fill="#9C9C9C"/>
<path fill-rule="evenodd" clip-rule="evenodd" d="M370.926 16.7597C370.926 19.3633 370.315 23.0274 364.811 23.0274C362.027 23.0274 359.082 22.1937 358.675 18.6557H363.113C363.158 18.7817 363.271 18.9581 363.362 19.1103C363.634 19.5659 364.109 20.07 364.676 20.07C366.125 20.07 366.442 18.1497 366.442 17.0631V15.8495H366.396C365.672 17.0127 364.585 17.6689 363.249 17.6689C359.784 17.6689 358.221 14.7881 358.221 11.2743C358.221 7.86228 359.966 5.00568 363.317 5.00568C364.631 5.00568 365.876 5.58727 366.396 6.92785H366.442V5.33525H370.926V16.7597ZM364.721 14.4595C366.375 14.4595 366.556 12.6905 366.556 11.2239C366.556 9.78348 365.922 8.64646 364.608 8.64646C363.34 8.64646 362.706 9.85909 362.706 11.2491C362.706 12.7409 363.113 14.4595 364.722 14.4595H364.721Z" fill="#9C9C9C"/>
<path fill-rule="evenodd" clip-rule="evenodd" d="M251.155 19.9265H260.009C264.266 19.9265 265.173 22.6057 265.173 24.4513C265.173 26.2717 264.38 27.2565 263.18 27.9894C264.629 28.5467 265.988 29.835 265.988 32.4899C265.988 36.1036 263.18 37.9744 260.327 37.9744H251.153V19.9265H251.155ZM256.136 26.9541H258.763C259.805 26.9541 260.463 26.6255 260.463 25.4623C260.463 24.5531 259.782 24.2235 258.763 24.2235H256.137V26.9541H256.136ZM256.136 33.6774H259.058C260.1 33.6774 261.006 33.3478 261.006 31.9587C261.006 30.8973 260.439 30.3157 259.262 30.3157H256.137V33.6774H256.136Z" fill="#9C9C9C"/>
<path fill-rule="evenodd" clip-rule="evenodd" d="M278.659 37.9744H274.334V36.3062H274.288C273.45 37.6206 272.25 38.303 270.46 38.303C268.354 38.303 266.429 36.8616 266.429 33.8538V24.8555H270.913V31.731C270.913 33.247 271.073 34.3094 272.386 34.3094C273.156 34.3094 274.175 33.8799 274.175 31.7814V24.8555H278.659V37.9753" fill="#9C9C9C"/>
<path fill-rule="evenodd" clip-rule="evenodd" d="M286.676 28.6727C286.668 28.48 286.616 28.2916 286.526 28.1211C286.436 27.9506 286.309 27.8023 286.155 27.6869C285.882 27.4396 285.526 27.3043 285.158 27.3079C284.524 27.3079 283.8 27.4591 283.8 28.3189C283.8 28.697 284.071 28.8743 284.321 29.0013C285.068 29.3551 286.766 29.4569 288.261 30.0114C289.756 30.5435 291.069 31.5293 291.069 33.6774C291.069 37.3172 287.944 38.303 285.09 38.303C282.328 38.303 279.294 37.0642 279.225 33.6774H283.505C283.528 34.1329 283.709 34.511 284.048 34.8405C284.275 35.0674 284.705 35.2186 285.249 35.2186C285.838 35.2186 286.766 34.9666 286.766 34.2076C286.766 33.4496 286.381 33.2218 284.298 32.8176C280.878 32.1604 279.496 30.9468 279.496 28.6979C279.496 25.3867 282.69 24.5279 285.045 24.5279C287.581 24.5279 290.639 25.3111 290.752 28.6727H286.676Z" fill="#9C9C9C"/>
<path fill-rule="evenodd" clip-rule="evenodd" d="M292.17 20.5556H296.654V24.0684H292.17V20.5566V20.5556ZM292.17 24.8555H296.654V37.9753H292.17V24.8555Z" fill="#9C9C9C"/>
<path fill-rule="evenodd" clip-rule="evenodd" d="M297.843 24.8555H302.169V26.5247H302.213C303.052 25.2093 304.252 24.5279 306.041 24.5279C308.148 24.5279 310.072 25.9683 310.072 28.9771V37.9744H305.588V31.0999C305.588 29.582 305.43 28.5215 304.116 28.5215C303.345 28.5215 302.327 28.9509 302.327 31.0485V37.9744H297.843V24.8555Z" fill="#9C9C9C"/>
<path fill-rule="evenodd" clip-rule="evenodd" d="M315.612 32.5403C315.726 34.0302 316.495 35.0926 317.9 35.0926C318.625 35.0926 319.418 34.7892 319.779 34.1572H323.97C323.064 36.9876 320.595 38.303 317.922 38.303C314.163 38.303 311.333 35.8254 311.333 31.4528C311.333 27.6365 313.824 24.5279 317.538 24.5279C322.203 24.5279 324.218 27.4339 324.218 32.5403H315.612ZM319.916 29.9367C319.916 28.7231 319.1 27.7364 317.945 27.7364C316.61 27.7364 315.839 28.5215 315.636 29.9367H319.916Z" fill="#9C9C9C"/>
<path fill-rule="evenodd" clip-rule="evenodd" d="M332.54 28.6727C332.531 28.4802 332.481 28.2919 332.391 28.1214C332.301 27.9509 332.174 27.8025 332.02 27.6869C331.747 27.4396 331.391 27.3042 331.023 27.3079C330.389 27.3079 329.664 27.4591 329.664 28.3189C329.664 28.697 329.935 28.8743 330.185 29.0013C330.932 29.3551 332.631 29.4569 334.125 30.0114C335.62 30.5435 336.934 31.5293 336.934 33.6774C336.934 37.3172 333.808 38.303 330.955 38.303C328.192 38.303 325.157 37.0642 325.089 33.6774H329.369C329.392 34.1329 329.573 34.511 329.913 34.8405C330.14 35.0674 330.57 35.2186 331.113 35.2186C331.702 35.2186 332.631 34.9666 332.631 34.2076C332.631 33.4496 332.246 33.2218 330.162 32.8176C326.743 32.1604 325.361 30.9468 325.361 28.6979C325.361 25.3867 328.555 24.5279 330.909 24.5279C333.446 24.5279 336.504 25.3111 336.617 28.6727H332.541" fill="#9C9C9C"/>
<path fill-rule="evenodd" clip-rule="evenodd" d="M344.876 28.6727C344.868 28.48 344.817 28.2916 344.726 28.1211C344.636 27.9506 344.509 27.8023 344.355 27.6869C344.082 27.4396 343.726 27.3043 343.358 27.3079C342.725 27.3079 342 27.4591 342 28.3189C342 28.697 342.272 28.8743 342.522 29.0013C343.268 29.3551 344.966 29.4569 346.461 30.0114C347.956 30.5435 349.269 31.5293 349.269 33.6774C349.269 37.3172 346.145 38.303 343.291 38.303C340.529 38.303 337.493 37.0642 337.425 33.6774H341.706C341.729 34.1329 341.909 34.511 342.248 34.8405C342.475 35.0674 342.906 35.2186 343.449 35.2186C344.039 35.2186 344.966 34.9666 344.966 34.2076C344.966 33.4496 344.582 33.2218 342.498 32.8176C339.079 32.1604 337.697 30.9468 337.697 28.6979C337.697 25.3867 340.89 24.5279 343.246 24.5279C345.783 24.5279 348.839 25.3111 348.953 28.6727H344.876Z" fill="#9C9C9C"/>
<path fill-rule="evenodd" clip-rule="evenodd" d="M365.621 37.9744H361.023L359.325 29.9115H359.279L357.536 37.9744H352.939L349.269 24.8555H353.935L355.679 32.9688H355.724L357.219 24.8555H361.408L362.972 32.9688H363.062L364.692 24.8555H369.358L365.621 37.9744Z" fill="#9C9C9C"/>
<path fill-rule="evenodd" clip-rule="evenodd" d="M372.607 32.5403C372.719 34.0302 373.489 35.0926 374.894 35.0926C375.617 35.0926 376.41 34.7892 376.773 34.1572H380.962C380.057 36.9876 377.588 38.303 374.916 38.303C371.157 38.303 368.325 35.8254 368.325 31.4528C368.325 27.6365 370.816 24.5279 374.531 24.5279C379.196 24.5279 381.212 27.4339 381.212 32.5403H372.607ZM376.909 29.9367C376.909 28.7231 376.093 27.7364 374.939 27.7364C373.602 27.7364 372.833 28.5215 372.629 29.9367H376.909Z" fill="#9C9C9C"/>
<path fill-rule="evenodd" clip-rule="evenodd" d="M386.238 32.5403C386.351 34.0302 387.12 35.0926 388.526 35.0926C389.25 35.0926 390.042 34.7892 390.404 34.1572H394.594C393.689 36.9876 391.221 38.303 388.547 38.303C384.789 38.303 381.958 35.8254 381.958 31.4528C381.958 27.6365 384.449 24.5279 388.162 24.5279C392.828 24.5279 394.844 27.4339 394.844 32.5403H386.238ZM390.541 29.9367C390.541 28.7231 389.725 27.7364 388.57 27.7364C387.234 27.7364 386.464 28.5215 386.261 29.9367H390.541Z" fill="#9C9C9C"/>
<path fill-rule="evenodd" clip-rule="evenodd" d="M395.664 19.9265H400.148V28.6475L403.002 24.8555H408.075L403.886 29.8098L408.732 37.9744H403.342L400.941 33.2218L400.148 34.1824V37.9744H395.664V19.9265Z" fill="#9C9C9C"/>
</g>
</g>
<g clip-path="url(#clip4_1_27)">
<g clip-path="url(#clip5_1_27)">
<path fill-rule="evenodd" clip-rule="evenodd" d="M606.787 3.25039C607.137 3.25039 607.483 3.23894 607.483 2.84713C607.483 2.52521 607.212 2.4496 606.931 2.4496H606.409V3.25039H606.787ZM606.409 4.51746H606.124V2.20902H607.012C607.535 2.20902 607.768 2.43356 607.768 2.84713C607.768 3.25498 607.497 3.43828 607.186 3.49098L607.875 4.51746H607.542L606.889 3.49098H606.407V4.51746H606.409ZM605.16 3.36152C605.16 4.31812 605.882 5.07538 606.852 5.07538C607.82 5.07538 608.542 4.31927 608.542 3.36152C608.542 2.40721 607.82 1.64995 606.852 1.64995C605.88 1.64995 605.161 2.40606 605.161 3.36152H605.16ZM608.856 3.36152C608.856 4.48424 607.985 5.36065 606.851 5.36065C606.587 5.36465 606.325 5.31571 606.08 5.21674C605.836 5.11776 605.613 4.97075 605.426 4.78439C605.239 4.59802 605.092 4.37609 604.992 4.13171C604.892 3.88732 604.843 3.62543 604.846 3.36152C604.846 2.24109 605.719 1.36469 606.851 1.36469C607.985 1.36469 608.856 2.24109 608.856 3.36152Z" fill="#9C9C9C"/>
<path fill-rule="evenodd" clip-rule="evenodd" d="M492.716 37.7522H529.319V1.29712H492.716V37.7522V37.7522ZM529.319 37.7522H565.92V1.29712H529.319V37.7522V37.7522ZM565.844 37.7522H602.447V1.29712H565.844V37.7522V37.7522Z" stroke="#9C9C9C" stroke-width="1.53973"/>
<path fill-rule="evenodd" clip-rule="evenodd" d="M514.574 28.8232V18.0669C514.574 16.479 514.267 15.3208 513.653 14.5887C513.04 13.8612 512.037 13.4946 510.646 13.4946C510.005 13.4946 509.317 13.6745 508.588 14.0331C507.858 14.3917 507.287 14.8408 506.877 15.3712V28.8232H502.503V10.1357H505.657L506.463 11.8782C507.654 10.5057 509.411 9.81946 511.734 9.81946C513.961 9.81946 515.724 10.4839 517.014 11.8163C518.303 13.1429 518.95 15.0011 518.95 17.3783V28.8232H514.574Z" fill="#9C9C9C"/>
<path fill-rule="evenodd" clip-rule="evenodd" d="M547.273 29.1921C550.134 29.1921 552.39 28.3672 554.045 26.7152C555.697 25.0667 556.522 22.709 556.522 19.6558C556.522 13.0994 553.534 9.81946 547.554 9.81946C545.952 9.81946 544.603 10.3442 543.507 11.389V10.1357H539.129V36.1209H543.507V28.3707C544.64 28.916 545.893 29.1921 547.272 29.1921H547.273ZM546.3 13.5462C548.312 13.5462 549.757 13.9964 550.63 14.8957C551.501 15.7951 551.936 17.3451 551.936 19.5504C551.936 21.6126 551.497 23.1248 550.621 24.0826C549.741 25.0369 548.295 25.5169 546.282 25.5169C545.223 25.5169 544.297 25.1984 543.507 24.5591V14.764C544.32 13.9552 545.251 13.5462 546.3 13.5462Z" fill="#9C9C9C"/>
<path fill-rule="evenodd" clip-rule="evenodd" d="M589.064 14.2301C588.298 13.7434 587.408 13.488 586.501 13.4946C585.493 13.4946 584.595 13.9529 583.81 14.8683C583.025 15.7848 582.636 16.9017 582.636 18.2227V28.8232H578.259V10.1357H582.636V11.9205C583.856 10.5194 585.474 9.81946 587.496 9.81946C588.981 9.81946 590.12 10.0474 590.91 10.5L589.063 14.2301" fill="#9C9C9C"/>
</g>
</g>
<g clip-path="url(#clip6_1_27)">
<g clip-path="url(#clip7_1_27)">
<path fill-rule="evenodd" clip-rule="evenodd" d="M768.469 35.4193V32.1409H770.208C771.621 32.2262 772.327 32.8177 772.327 33.9194C772.327 34.4346 772.11 34.8116 771.676 35.0496C771.249 35.2966 770.76 35.4193 770.208 35.4193H768.47M768.47 29.9008V26.8881H769.936C770.339 26.8881 770.678 27.0262 770.954 27.3041C771.262 27.5576 771.427 27.8728 771.451 28.2506C771.451 28.704 771.313 29.0932 771.036 29.4166C770.768 29.7399 770.418 29.9008 769.984 29.9008H768.468M771.45 24.4863H765.439V38.0981H771.45C772.555 38.0136 773.458 37.5781 774.16 36.7933C774.877 36.0003 775.236 35.0586 775.236 33.9649C775.149 32.3481 774.345 31.2325 772.823 30.6174C773.911 29.9471 774.455 28.9112 774.455 27.5121C774.384 26.6882 774.074 25.9992 773.521 25.4451C772.984 24.8982 772.294 24.5789 771.45 24.4863ZM752.661 23.8981V38.0981H755.667V30.9172L764.056 38.5369V24.4863H760.968V31.2057L752.662 23.8981M782.797 23.8981C781.491 23.9421 780.214 24.2942 779.07 24.9259C777.961 25.509 777.019 26.3677 776.337 27.4194C775.651 28.4578 775.284 29.6237 775.237 30.9172C775.237 32.3026 775.572 33.553 776.243 34.6694C776.882 35.7849 777.781 36.6779 778.94 37.3482C780.068 38.0177 781.323 38.4142 782.702 38.5369C782.845 38.5596 783.148 38.5718 783.614 38.5718C784.474 38.5718 785.345 38.4142 786.229 38.0981V34.7961C785.493 35.2253 784.666 35.4708 783.815 35.5119C783.373 35.5119 783.003 35.4811 782.702 35.4193C781.607 35.204 780.715 34.7076 780.029 33.9308C779.319 33.1533 778.964 32.2449 778.964 31.2057C778.964 30.0974 779.343 29.1395 780.1 28.3311C780.888 27.5308 781.851 27.0497 782.987 26.8881C783.507 26.8263 783.827 26.7954 783.945 26.7954C784.569 26.7954 785.329 27.0262 786.229 27.4885V24.4863C785.267 24.0947 784.123 23.8981 782.797 23.8981ZM753.94 13.3802C753.175 13.3802 752.469 13.5996 751.822 14.0384C751.593 14.1765 751.361 14.3617 751.124 14.5925C750.377 15.3595 750.003 16.2784 750 17.3501V17.3761C750.003 18.4405 750.377 19.3529 751.124 20.111C751.48 20.4425 751.842 20.696 752.212 20.8731C752.744 21.155 753.338 21.3018 753.94 21.3005H767.357L756.957 14.4658C756.727 14.3198 756.494 14.1773 756.259 14.0384C756.011 13.8776 755.75 13.7387 755.478 13.6232C755.045 13.4607 754.531 13.3802 753.94 13.3802ZM784.62 13.3802C784.028 13.3802 783.519 13.4615 783.094 13.6232C782.816 13.7335 782.55 13.8727 782.3 14.0384C782.269 14.0546 782.036 14.196 781.603 14.4658L771.203 21.3005H784.62C785.424 21.3005 786.177 21.0543 786.879 20.5611C787.073 20.4215 787.258 20.2712 787.435 20.111L787.542 19.9956C787.967 19.5499 788.276 19.0067 788.442 18.4137C788.504 18.1911 788.539 18.0058 788.547 17.8596C788.564 17.7515 788.572 17.5866 788.572 17.3639C788.572 16.4702 788.323 15.7007 787.826 15.0548C787.709 14.89 787.579 14.7353 787.436 14.5925C787.217 14.3802 786.975 14.1943 786.713 14.0384C786.493 13.8694 786.198 13.715 785.827 13.5769C785.438 13.4481 785.03 13.3817 784.62 13.3802ZM757.499 5.11062C757.203 5.11062 756.897 5.13906 756.578 5.19594C755.924 5.32675 755.371 5.56969 754.921 5.92312C754.717 6.09212 754.539 6.26194 754.389 6.43094C754.283 6.55932 754.181 6.69045 754.082 6.82419C753.822 7.18575 753.637 7.54325 753.526 7.8975C753.336 8.4825 753.305 9.09756 753.431 9.74431C753.558 10.3293 753.746 10.8184 754 11.2109C754.267 11.6334 754.618 11.9844 755.052 12.2614L766.766 20.0777L761.322 7.89831C761.11 7.38237 760.916 6.99644 760.744 6.74294L760.484 6.43094C760.311 6.24363 760.121 6.07356 759.915 5.92312C759.806 5.86341 759.704 5.79378 759.608 5.71513C758.988 5.31212 758.284 5.11062 757.499 5.11062ZM781.05 5.11062C780.265 5.11062 779.565 5.31294 778.953 5.71513C778.81 5.80775 778.708 5.87762 778.644 5.92312C778.446 6.07859 778.261 6.24832 778.088 6.43094C777.995 6.52949 777.908 6.63369 777.828 6.74294C777.592 7.09637 777.339 7.605 777.071 8.26637L771.795 20.0769L783.495 12.2606C783.918 11.9868 784.281 11.6296 784.561 11.2109L784.62 11.1069C784.746 10.907 784.864 10.6413 784.975 10.3106C785.046 10.1107 785.097 9.92225 785.128 9.74431C785.187 9.45171 785.215 9.1538 785.211 8.85544C785.18 8.14775 784.939 7.47013 784.489 6.82419C784.39 6.69045 784.288 6.55932 784.182 6.43094C783.614 5.76956 782.83 5.33177 781.969 5.19594C781.666 5.14055 781.358 5.11201 781.05 5.11062ZM764.905 0H764.881C764.546 0.00203401 764.213 0.0484803 763.89 0.138125C763.661 0.203366 763.436 0.280662 763.215 0.369687C762.191 0.81575 761.489 1.52344 761.11 2.49356L761.051 2.65525C760.696 3.67087 760.723 4.6215 761.134 5.50712L766.86 18.3674L768.765 5.38038C768.883 4.64913 768.931 4.09825 768.907 3.72938C768.899 3.42063 768.824 3.06312 768.682 2.65525C768.633 2.52506 768.585 2.39424 768.54 2.26281C768.115 1.3325 767.349 0.658125 766.245 0.242125C766.132 0.192731 766.012 0.157791 765.89 0.138125C765.57 0.0483653 765.239 0.0019107 764.906 0M773.679 0H773.653C773.321 0.00188557 772.99 0.0483413 772.67 0.138125C772.545 0.160932 772.421 0.195758 772.302 0.242125C771.214 0.658125 770.453 1.33088 770.019 2.26281L769.853 2.65525C769.66 3.19859 769.596 3.77922 769.664 4.35175V4.433H770.753C771.084 4.45656 771.277 4.50612 771.332 4.58331C771.412 4.65969 771.265 4.77994 770.895 4.94081L770.279 5.37956C770.161 5.4795 770.067 5.66069 769.995 5.92231C769.965 6.08983 769.957 6.26055 769.971 6.43013L769.984 6.66169L771.687 18.3674L777.438 5.50631C777.84 4.62231 777.863 3.67169 777.509 2.65444L777.438 2.49356C777.051 1.53156 776.353 0.823875 775.344 0.369687C775.123 0.280564 774.898 0.203267 774.669 0.138125C774.347 0.0486131 774.014 0.0021679 773.679 0" fill="#9C9C9C"/>
</g>
</g>
<defs>
<clipPath id="clip0_1_27">
<rect width="106" height="39" fill="white" transform="translate(57)"/>
</clipPath>
<clipPath id="clip1_1_27">
<rect width="106" height="36.3429" fill="white" transform="translate(57 1.32855)"/>
</clipPath>
<clipPath id="clip2_1_27">
<rect width="158" height="39" fill="white" transform="translate(251)"/>
</clipPath>
<clipPath id="clip3_1_27">
<rect width="158" height="38.773" fill="white" transform="translate(251 0.113525)"/>
</clipPath>
<clipPath id="clip4_1_27">
<rect width="118" height="39" fill="white" transform="translate(491)"/>
</clipPath>
<clipPath id="clip5_1_27">
<rect width="118" height="38.9515" fill="white" transform="translate(491 0.024292)"/>
</clipPath>
<clipPath id="clip6_1_27">
<rect width="39" height="39" fill="white" transform="translate(750)"/>
</clipPath>
<clipPath id="clip7_1_27">
<rect width="39" height="39" fill="white" transform="translate(750)"/>
</clipPath>
</defs>
</svg>
