<svg width="53" height="41" viewBox="0 0 53 41" fill="none" xmlns="http://www.w3.org/2000/svg">
<path d="M50.9729 15.2318L49.8177 14.0088L45.7635 3.08034C45.0727 1.2344 43.306 0.0113248 41.3355 0H12.378C10.4075 0 8.64081 1.2344 7.95 3.08034L3.95235 13.8729L2.28761 15.413C0.838034 16.6474 0 18.4594 0 20.362V36.2846C0.0113248 38.8893 2.12906 40.9957 4.73376 40.9957H7.7235C10.3282 40.9957 12.4459 38.8893 12.4573 36.2846V33.9744H40.5427V36.2846C40.5541 38.8893 42.6718 40.9957 45.2765 40.9957H48.2662C50.8709 40.9957 52.9887 38.8893 53 36.2846V19.9429C52.9887 18.165 52.2639 16.4662 50.9729 15.2318ZM10.0791 3.85043C10.4415 2.88782 11.3588 2.26496 12.378 2.26496H41.3468C42.366 2.26496 43.2833 2.89915 43.6457 3.85043L47.1791 13.3632H44.5404C43.9175 9.11645 39.9652 6.18333 35.7184 6.81752C32.3323 7.31581 29.6709 9.97714 29.1727 13.3632H6.54573L10.0791 3.85043ZM42.2301 13.3632H31.4603C32.0831 10.3848 35.0049 8.48226 37.9833 9.10513C40.1124 9.55812 41.7771 11.2229 42.2301 13.3632ZM10.1923 36.2846C10.181 37.6436 9.08248 38.7308 7.7235 38.7308H4.73376C3.37479 38.7308 2.27628 37.6436 2.26496 36.2846V33.3175C2.94444 33.7592 3.8391 33.9744 4.73376 33.9744H10.1923V36.2846ZM50.735 36.2846C50.7237 37.6436 49.6252 38.7308 48.2662 38.7308H45.2765C43.9175 38.7308 42.819 37.6323 42.8077 36.2846V33.9744H48.2662C49.1609 33.9744 50.0556 33.7592 50.735 33.3175V36.2846ZM48.2662 31.7094H4.73376C3.38611 31.7207 2.27628 30.6449 2.26496 29.2859V20.362C2.26496 19.1162 2.81987 17.9271 3.77115 17.1231C3.78248 17.1118 3.80513 17.0891 3.81645 17.0778L5.35662 15.6282H48.2436L49.3308 16.7947C49.3421 16.8173 49.3761 16.8286 49.3874 16.8513C50.2368 17.6553 50.7237 18.7765 50.7237 19.9429V29.2859H50.735C50.7237 30.6335 49.6139 31.7207 48.2662 31.7094Z" fill="#21E4C1"/>
<path d="M14.9488 20.1582H6.45523C5.83237 20.1582 5.32275 20.6678 5.32275 21.2907V27.1796C5.32275 27.8024 5.83237 28.312 6.45523 28.312H14.9488C15.5717 28.312 16.0813 27.8024 16.0813 27.1796V21.2907C16.0813 20.6678 15.5717 20.1582 14.9488 20.1582ZM13.8163 26.0471H7.58771V22.4232H13.8163V26.0471Z" fill="#21E4C1"/>
<path d="M46.545 20.1582H38.0514C37.4286 20.1582 36.9189 20.6678 36.9189 21.2907V27.1796C36.9189 27.8024 37.4286 28.312 38.0514 28.312H46.545C47.1679 28.312 47.6775 27.8024 47.6775 27.1796V21.2907C47.6775 20.6678 47.1679 20.1582 46.545 20.1582ZM45.4125 26.0471H39.1839V22.4232H45.4125V26.0471Z" fill="#21E4C1"/>
<path d="M31.9697 24.9146H21.0299C20.4071 24.9146 19.8975 25.4242 19.8975 26.047C19.8975 26.6699 20.4071 27.1795 21.0299 27.1795H31.9697C32.5925 27.1795 33.1022 26.6699 33.1022 26.047C33.1022 25.4242 32.5925 24.9146 31.9697 24.9146Z" fill="#21E4C1"/>
<path d="M31.9697 21.4038H21.0299C20.4071 21.4038 19.8975 21.9134 19.8975 22.5363C19.8975 23.1592 20.4071 23.6688 21.0299 23.6688H31.9697C32.5925 23.6688 33.1022 23.1592 33.1022 22.5363C33.1022 21.9134 32.5925 21.4038 31.9697 21.4038Z" fill="#21E4C1"/>
</svg>
