<svg width="53" height="53" viewBox="0 0 53 53" fill="none" xmlns="http://www.w3.org/2000/svg">
<path d="M4.1406 53H11.5194C13.8031 53 15.66 51.1432 15.66 48.8594V41.3821C15.66 39.0982 13.8031 37.2415 11.5194 37.2415H8.65814V31.0418H25.9922V37.2414H22.8123C20.5284 37.2414 18.6717 39.0982 18.6717 41.382V48.8593C18.6717 51.1432 20.5285 52.9999 22.8123 52.9999H30.1893C32.4732 52.9999 34.3299 51.143 34.3299 48.8593V41.382C34.3299 39.0981 32.4731 37.2414 30.1893 37.2414H27.6484V31.0418H44.3435V37.2414H41.4822C39.1984 37.2414 37.3416 39.0982 37.3416 41.382V48.8593C37.3416 51.1432 39.1985 52.9999 41.4822 52.9999H48.8594C51.1432 53 53 51.1432 53 48.8594V41.3821C53 39.0982 51.1432 37.2415 48.8594 37.2415H45.9998V29.3856H27.6484V23.1305C33.6195 22.5612 38.3023 17.6053 38.3023 11.5939C38.3023 5.20168 33.0085 0 26.5 0C19.9915 0 14.6975 5.20168 14.6975 11.5938C14.6975 17.8175 19.7201 22.8983 25.9921 23.1623V29.3856H7.00184V37.2415H4.1406C1.85684 37.2414 0 39.0982 0 41.382V48.8593C0 51.1432 1.85684 53 4.1406 53ZM32.6737 41.382V48.8593C32.6737 50.2293 31.5593 51.3437 30.1893 51.3437H22.8123C21.4423 51.3437 20.3279 50.2293 20.3279 48.8593V41.382C20.3279 40.012 21.4423 38.8976 22.8123 38.8976H30.1893C31.5593 38.8976 32.6737 40.0121 32.6737 41.382ZM51.3438 41.382V48.8593C51.3438 50.2293 50.2294 51.3437 48.8594 51.3437H41.4822C40.1122 51.3437 38.9978 50.2293 38.9978 48.8593V41.382C38.9978 40.012 40.1122 38.8976 41.4822 38.8976H48.8594C50.2293 38.8976 51.3438 40.0121 51.3438 41.382ZM16.3539 11.5938C16.3539 6.11393 20.9053 1.6563 26.5 1.6563C32.0947 1.6563 36.6461 6.11393 36.6461 11.5938C36.6461 17.0737 32.0946 21.5313 26.5 21.5313C20.9054 21.5313 16.3539 17.0736 16.3539 11.5938ZM1.6563 41.382C1.6563 40.012 2.77071 38.8976 4.14071 38.8976H11.5194C12.8894 38.8976 14.0038 40.012 14.0038 41.382V48.8593C14.0038 50.2293 12.8894 51.3437 11.5194 51.3437H4.1406C2.7706 51.3437 1.6562 50.2293 1.6562 48.8593V41.382H1.6563Z" fill="#21E4C1"/>
<path d="M27.0558 19.5367V17.5247C29.029 17.1955 30.0823 15.7634 30.0823 14.2351C30.0823 12.5131 29.0865 11.5065 27.1134 10.6942C25.447 9.99766 24.7382 9.49459 24.7382 8.48802C24.7382 7.7139 25.2937 6.82415 26.7689 6.82415C27.9948 6.82415 28.7797 7.24966 29.1824 7.4821L29.6611 6.20491C29.1057 5.87566 28.3202 5.56631 27.1709 5.52759V3.65063H25.9833V5.60504C24.2211 5.89491 23.091 7.11402 23.091 8.72046C23.091 10.4037 24.2976 11.2941 26.2517 12.0677C27.6688 12.6482 28.416 13.306 28.416 14.3708C28.416 15.4736 27.4963 16.267 26.1367 16.267C25.0634 16.267 24.0677 15.899 23.378 15.4348L22.9185 16.7313C23.5889 17.2149 24.7382 17.5636 25.849 17.5823V19.5367H27.0558Z" fill="#21E4C1"/>
</svg>
