<svg width="48" height="48" viewBox="0 0 48 48" fill="none" xmlns="http://www.w3.org/2000/svg">
<g clip-path="url(#clip0_2_1430)">
<path d="M43.2607 8.26706L28.607 0.332054C27.2169 -0.420903 25.3055 0.158295 24.5526 1.54837L15.9804 17.4763H5.55489C4.22273 17.4763 3.18018 18.5189 3.18018 19.851V24.0212V45.6253C3.18018 46.9575 4.22273 48 5.55489 48H38.8588C40.1909 48 41.2335 46.9575 41.2335 45.6253V39.6017H42.2181C42.7394 39.6017 43.1448 39.1962 43.1448 38.6749V31.7825C43.1448 31.2612 42.7394 30.8558 42.2181 30.8558H41.2335V24.0792C41.2335 22.9787 40.4226 21.994 39.38 21.7624L44.477 12.3214C45.2299 10.8735 44.7086 9.07794 43.2607 8.26706ZM32.8351 4.73396L23.6838 21.7045H21.0774L30.8658 3.6914L32.8351 4.73396ZM26.2322 2.41717C26.5218 1.89589 27.2169 1.66421 27.7382 1.95381L29.1862 2.76468L18.9923 21.7045H15.8067L26.2322 2.41717ZM4.97569 19.7931C4.97569 19.6193 5.20737 19.3297 5.49697 19.3297H14.9379L13.6637 21.6465H5.49697C5.32321 21.6465 5.14945 21.6465 4.97569 21.7045V19.7931ZM39.3221 45.6253C39.3221 45.9149 39.0904 46.1466 38.8008 46.1466H5.49697C5.20737 46.1466 4.97569 45.9149 4.97569 45.6253V24.0792C4.97569 23.7896 5.20737 23.5579 5.49697 23.5579H14.2429H17.9497H24.7263H37.7583H38.7429C39.0325 23.5579 39.2642 23.7896 39.2642 24.0792V30.8558H35.7311C34.1673 30.8558 32.9509 32.13 32.9509 33.6359V36.8215C32.9509 38.3853 34.2252 39.6017 35.7311 39.6017H39.3221V45.6253ZM41.1755 32.7092H41.2335V37.7482H41.1755H35.7311C35.2098 37.7482 34.8044 37.3428 34.8044 36.8215V33.6359C34.8044 33.1146 35.2098 32.7092 35.7311 32.7092H41.1755ZM42.7973 11.3947L37.237 21.7045H25.7689L34.4569 5.66067L42.3339 9.94674C42.9131 10.1784 43.0869 10.8735 42.7973 11.3947Z" fill="#21E4C1"/>
<path d="M39.2639 10.5259L38.8005 10.2942C37.6421 9.65708 36.0783 10.1204 35.4411 11.2788L34.8619 12.3793C34.5723 12.9585 34.4565 13.6535 34.6882 14.2907C34.8619 14.9278 35.3253 15.4491 35.9045 15.7387L36.3679 15.9703C36.7154 16.1441 37.1208 16.2599 37.5263 16.2599C38.453 16.2599 39.2638 15.7387 39.7272 14.9857L40.3064 13.8852C40.8856 12.6689 40.4222 11.163 39.2639 10.5259ZM38.6267 13.0164L38.0475 14.1169C37.8738 14.4065 37.4683 14.5223 37.1787 14.3486L36.7154 14.059C36.5995 14.0011 36.4837 13.8273 36.4258 13.7115C36.3679 13.5377 36.3679 13.3639 36.4837 13.2481L37.0629 12.1476C37.1787 11.9739 37.4104 11.8001 37.6421 11.8001C37.7579 11.8001 37.8159 11.8001 37.9317 11.858L38.3951 12.0897C38.6267 12.3214 38.7426 12.6689 38.6267 13.0164Z" fill="#21E4C1"/>
</g>
<defs>
<clipPath id="clip0_2_1430">
<rect width="48" height="48" fill="white"/>
</clipPath>
</defs>
</svg>
